{
	"patcher" : 	{
		"fileversion" : 1,
		"appversion" : 		{
			"major" : 5,
			"minor" : 1,
			"revision" : 9
		}
,
		"rect" : [ 197.0, 44.0, 1353.0, 827.0 ],
		"bglocked" : 0,
		"defrect" : [ 197.0, 44.0, 1353.0, 827.0 ],
		"openrect" : [ 0.0, 0.0, 0.0, 0.0 ],
		"openinpresentation" : 0,
		"default_fontsize" : 12.0,
		"default_fontface" : 0,
		"default_fontname" : "Arial",
		"gridonopen" : 0,
		"gridsize" : [ 15.0, 15.0 ],
		"gridsnaponopen" : 0,
		"toolbarvisible" : 1,
		"boxanimatetime" : 200,
		"imprint" : 0,
		"enablehscroll" : 1,
		"enablevscroll" : 1,
		"devicewidth" : 0.0,
		"boxes" : [ 			{
				"box" : 				{
					"maxclass" : "message",
					"text" : "dec",
					"id" : "obj-37",
					"fontname" : "Arial",
					"patching_rect" : [ 116.0, 33.0, 32.5, 18.0 ],
					"fontsize" : 12.0,
					"numinlets" : 2,
					"numoutlets" : 1,
					"outlettype" : [ "" ],
					"presentation_rect" : [ 91.0, 33.0, 0.0, 0.0 ]
				}

			}
, 			{
				"box" : 				{
					"maxclass" : "comment",
					"text" : "FOGGR / PXL8R / ALPHABLENDR\n",
					"linecount" : 2,
					"id" : "obj-35",
					"fontname" : "Arial",
					"patching_rect" : [ 524.0, 21.0, 150.0, 48.0 ],
					"fontsize" : 12.0,
					"numinlets" : 1,
					"numoutlets" : 0
				}

			}
, 			{
				"box" : 				{
					"maxclass" : "bpatcher",
					"varname" : "xfadr-patch[1]",
					"prototypename" : "pixl",
					"id" : "obj-30",
					"args" : [  ],
					"patching_rect" : [ 644.0, 502.0, 250.0, 142.0 ],
					"bgmode" : 1,
					"name" : "xfadr-patch.maxpat",
					"numinlets" : 3,
					"numoutlets" : 1,
					"outlettype" : [ "jit_matrix" ]
				}

			}
, 			{
				"box" : 				{
					"maxclass" : "bpatcher",
					"id" : "obj-25",
					"args" : [  ],
					"patching_rect" : [ 714.0, 34.0, 395.0, 263.0 ],
					"name" : "oscReceiver.maxpat",
					"numinlets" : 0,
					"numoutlets" : 0
				}

			}
, 			{
				"box" : 				{
					"maxclass" : "message",
					"text" : "inc",
					"id" : "obj-23",
					"fontname" : "Arial",
					"patching_rect" : [ 112.0, 11.0, 32.5, 18.0 ],
					"fontsize" : 12.0,
					"numinlets" : 2,
					"numoutlets" : 1,
					"outlettype" : [ "" ]
				}

			}
, 			{
				"box" : 				{
					"maxclass" : "newobj",
					"text" : "key",
					"id" : "obj-10",
					"fontname" : "Arial",
					"patching_rect" : [ 163.0, 6.0, 59.5, 20.0 ],
					"fontsize" : 11.595187,
					"numinlets" : 0,
					"numoutlets" : 4,
					"outlettype" : [ "int", "int", "int", "int" ]
				}

			}
, 			{
				"box" : 				{
					"maxclass" : "newobj",
					"text" : "select 29 28",
					"id" : "obj-27",
					"fontname" : "Arial",
					"patching_rect" : [ 163.0, 31.333344, 73.0, 20.0 ],
					"fontsize" : 11.595187,
					"numinlets" : 1,
					"numoutlets" : 3,
					"outlettype" : [ "bang", "bang", "" ]
				}

			}
, 			{
				"box" : 				{
					"maxclass" : "newobj",
					"text" : "jit.window right-screen",
					"id" : "obj-31",
					"fontname" : "Arial",
					"patching_rect" : [ 151.0, 599.0, 129.0, 20.0 ],
					"fontsize" : 12.0,
					"numinlets" : 1,
					"numoutlets" : 2,
					"outlettype" : [ "bang", "" ]
				}

			}
, 			{
				"box" : 				{
					"maxclass" : "newobj",
					"text" : "p esc-fullscreen",
					"id" : "obj-72",
					"fontname" : "Arial",
					"patching_rect" : [ 81.824768, 570.958557, 90.0, 20.0 ],
					"fontsize" : 11.595187,
					"numinlets" : 0,
					"numoutlets" : 1,
					"outlettype" : [ "" ],
					"patcher" : 					{
						"fileversion" : 1,
						"appversion" : 						{
							"major" : 5,
							"minor" : 1,
							"revision" : 9
						}
,
						"rect" : [ 86.0, 108.0, 235.0, 205.0 ],
						"bglocked" : 0,
						"defrect" : [ 86.0, 108.0, 235.0, 205.0 ],
						"openrect" : [ 0.0, 0.0, 0.0, 0.0 ],
						"openinpresentation" : 0,
						"default_fontsize" : 10.0,
						"default_fontface" : 0,
						"default_fontname" : "Arial",
						"gridonopen" : 0,
						"gridsize" : [ 15.0, 15.0 ],
						"gridsnaponopen" : 0,
						"toolbarvisible" : 1,
						"boxanimatetime" : 200,
						"imprint" : 0,
						"enablehscroll" : 1,
						"enablevscroll" : 1,
						"devicewidth" : 0.0,
						"boxes" : [ 							{
								"box" : 								{
									"maxclass" : "comment",
									"text" : "Escape ASCII Code",
									"id" : "obj-7",
									"fontname" : "Arial",
									"patching_rect" : [ 86.0, 67.0, 114.0, 20.0 ],
									"fontsize" : 11.595187,
									"numinlets" : 1,
									"numoutlets" : 0
								}

							}
, 							{
								"box" : 								{
									"maxclass" : "outlet",
									"id" : "obj-2",
									"patching_rect" : [ 27.0, 157.25, 25.0, 25.0 ],
									"numinlets" : 1,
									"numoutlets" : 0,
									"comment" : ""
								}

							}
, 							{
								"box" : 								{
									"maxclass" : "message",
									"text" : "fullscreen $1",
									"id" : "obj-3",
									"fontname" : "Arial",
									"patching_rect" : [ 27.0, 127.25, 76.0, 18.0 ],
									"fontsize" : 11.595187,
									"numinlets" : 2,
									"numoutlets" : 1,
									"outlettype" : [ "" ]
								}

							}
, 							{
								"box" : 								{
									"maxclass" : "newobj",
									"text" : "key",
									"id" : "obj-4",
									"fontname" : "Arial",
									"patching_rect" : [ 27.0, 37.0, 46.0, 20.0 ],
									"fontsize" : 11.595187,
									"numinlets" : 0,
									"numoutlets" : 4,
									"outlettype" : [ "int", "int", "int", "int" ]
								}

							}
, 							{
								"box" : 								{
									"maxclass" : "newobj",
									"text" : "select 27",
									"id" : "obj-5",
									"fontname" : "Arial",
									"patching_rect" : [ 27.0, 67.25, 57.0, 20.0 ],
									"fontsize" : 11.595187,
									"numinlets" : 2,
									"numoutlets" : 2,
									"outlettype" : [ "bang", "" ]
								}

							}
, 							{
								"box" : 								{
									"maxclass" : "toggle",
									"id" : "obj-6",
									"patching_rect" : [ 27.0, 97.25, 20.0, 20.0 ],
									"numinlets" : 1,
									"numoutlets" : 1,
									"outlettype" : [ "int" ]
								}

							}
 ],
						"lines" : [ 							{
								"patchline" : 								{
									"source" : [ "obj-4", 0 ],
									"destination" : [ "obj-5", 0 ],
									"hidden" : 0,
									"midpoints" : [  ]
								}

							}
, 							{
								"patchline" : 								{
									"source" : [ "obj-5", 0 ],
									"destination" : [ "obj-6", 0 ],
									"hidden" : 0,
									"midpoints" : [  ]
								}

							}
, 							{
								"patchline" : 								{
									"source" : [ "obj-6", 0 ],
									"destination" : [ "obj-3", 0 ],
									"hidden" : 0,
									"midpoints" : [  ]
								}

							}
, 							{
								"patchline" : 								{
									"source" : [ "obj-3", 0 ],
									"destination" : [ "obj-2", 0 ],
									"hidden" : 0,
									"midpoints" : [  ]
								}

							}
 ]
					}
,
					"saved_object_attributes" : 					{
						"fontname" : "Arial",
						"default_fontface" : 0,
						"globalpatchername" : "",
						"default_fontname" : "Arial",
						"fontface" : 0,
						"fontsize" : 10.0,
						"default_fontsize" : 10.0
					}

				}

			}
, 			{
				"box" : 				{
					"maxclass" : "newobj",
					"text" : "jit.window left-screen",
					"id" : "obj-29",
					"fontname" : "Arial",
					"patching_rect" : [ 24.0, 602.0, 122.0, 20.0 ],
					"fontsize" : 12.0,
					"numinlets" : 1,
					"numoutlets" : 2,
					"outlettype" : [ "bang", "" ]
				}

			}
, 			{
				"box" : 				{
					"maxclass" : "bpatcher",
					"prototypename" : "pixl",
					"id" : "obj-24",
					"args" : [  ],
					"patching_rect" : [ 542.0, 101.0, 140.0, 94.0 ],
					"bgmode" : 1,
					"name" : "startr-patch.maxpat",
					"numinlets" : 0,
					"numoutlets" : 0
				}

			}
, 			{
				"box" : 				{
					"maxclass" : "bpatcher",
					"varname" : "chromakeyr",
					"prototypename" : "pixl",
					"id" : "obj-3",
					"args" : [  ],
					"patching_rect" : [ 908.0, 492.0, 330.0, 154.0 ],
					"bgmode" : 1,
					"name" : "chromakeyr-patch.maxpat",
					"numinlets" : 7,
					"numoutlets" : 4,
					"outlettype" : [ "jit_matrix", "", "", "" ]
				}

			}
, 			{
				"box" : 				{
					"maxclass" : "bpatcher",
					"varname" : "2toner-patch",
					"prototypename" : "pixl",
					"id" : "obj-33",
					"args" : [  ],
					"patching_rect" : [ 282.0, 395.0, 260.0, 154.0 ],
					"bgmode" : 1,
					"name" : "2toner-patch.maxpat",
					"numinlets" : 7,
					"numoutlets" : 1,
					"outlettype" : [ "jit_matrix" ]
				}

			}
, 			{
				"box" : 				{
					"maxclass" : "flonum",
					"id" : "obj-16",
					"fontname" : "Arial",
					"maximum" : 1.0,
					"patching_rect" : [ 263.0, 445.0, 50.0, 20.0 ],
					"numdecimalplaces" : 2,
					"fontsize" : 12.0,
					"numinlets" : 1,
					"numoutlets" : 2,
					"outlettype" : [ "float", "bang" ],
					"minimum" : 0.0
				}

			}
, 			{
				"box" : 				{
					"maxclass" : "bpatcher",
					"varname" : "xfadr-patch",
					"prototypename" : "pixl",
					"id" : "obj-34",
					"args" : [  ],
					"patching_rect" : [ 23.0, 401.0, 250.0, 142.0 ],
					"bgmode" : 1,
					"name" : "xfadr-patch.maxpat",
					"numinlets" : 3,
					"numoutlets" : 1,
					"outlettype" : [ "jit_matrix" ]
				}

			}
, 			{
				"box" : 				{
					"maxclass" : "newobj",
					"id" : "obj-15",
					"fontname" : "Arial",
					"patching_rect" : [ 145.0, 461.0, 100.0, 20.0 ],
					"fontsize" : 12.0,
					"numinlets" : 0,
					"numoutlets" : 0
				}

			}
, 			{
				"box" : 				{
					"maxclass" : "flonum",
					"id" : "obj-4",
					"fontname" : "Arial",
					"patching_rect" : [ 813.0, 391.0, 50.0, 20.0 ],
					"fontsize" : 12.0,
					"numinlets" : 1,
					"numoutlets" : 2,
					"outlettype" : [ "float", "bang" ]
				}

			}
, 			{
				"box" : 				{
					"maxclass" : "incdec",
					"id" : "obj-13",
					"patching_rect" : [ 26.0, 14.0, 39.0, 44.0 ],
					"numinlets" : 1,
					"increment" : 0.1,
					"numoutlets" : 1,
					"outlettype" : [ "float" ]
				}

			}
, 			{
				"box" : 				{
					"maxclass" : "flonum",
					"id" : "obj-19",
					"fontname" : "Arial",
					"maximum" : 1.1,
					"patching_rect" : [ 26.0, 65.0, 50.0, 20.0 ],
					"numdecimalplaces" : 1,
					"fontsize" : 12.0,
					"numinlets" : 1,
					"numoutlets" : 2,
					"outlettype" : [ "float", "bang" ],
					"minimum" : 0.1
				}

			}
, 			{
				"box" : 				{
					"maxclass" : "flonum",
					"id" : "obj-18",
					"fontname" : "Arial",
					"patching_rect" : [ 317.0, 65.0, 50.0, 20.0 ],
					"fontsize" : 12.0,
					"numinlets" : 1,
					"numoutlets" : 2,
					"outlettype" : [ "float", "bang" ]
				}

			}
, 			{
				"box" : 				{
					"maxclass" : "comment",
					"text" : "curr movie\n",
					"id" : "obj-12",
					"fontname" : "Arial",
					"patching_rect" : [ 84.0, 65.0, 150.0, 20.0 ],
					"fontsize" : 12.0,
					"numinlets" : 1,
					"numoutlets" : 0
				}

			}
, 			{
				"box" : 				{
					"maxclass" : "newobj",
					"text" : "- 0.1",
					"id" : "obj-8",
					"fontname" : "Arial",
					"patching_rect" : [ 279.0, 65.0, 35.0, 20.0 ],
					"fontsize" : 12.0,
					"numinlets" : 2,
					"numoutlets" : 1,
					"outlettype" : [ "float" ]
				}

			}
, 			{
				"box" : 				{
					"maxclass" : "bpatcher",
					"prototypename" : "pixl",
					"id" : "obj-7",
					"args" : [  ],
					"patching_rect" : [ 279.0, 181.0, 180.0, 208.0 ],
					"bgmode" : 1,
					"name" : "playr-patch.maxpat",
					"numinlets" : 4,
					"numoutlets" : 2,
					"outlettype" : [ "jit_matrix", "" ]
				}

			}
, 			{
				"box" : 				{
					"maxclass" : "bpatcher",
					"prototypename" : "pixl",
					"id" : "obj-5",
					"args" : [  ],
					"patching_rect" : [ 279.0, 89.0, 240.0, 84.0 ],
					"bgmode" : 1,
					"name" : "moviefoldr-patch.maxpat",
					"numinlets" : 1,
					"numoutlets" : 1,
					"outlettype" : [ "" ]
				}

			}
, 			{
				"box" : 				{
					"maxclass" : "bpatcher",
					"prototypename" : "pixl",
					"id" : "obj-17",
					"args" : [  ],
					"patching_rect" : [ 26.0, 92.0, 240.0, 84.0 ],
					"bgmode" : 1,
					"name" : "moviefoldr-patch.maxpat",
					"numinlets" : 1,
					"numoutlets" : 1,
					"outlettype" : [ "" ]
				}

			}
, 			{
				"box" : 				{
					"maxclass" : "bpatcher",
					"prototypename" : "pixl",
					"id" : "obj-6",
					"args" : [  ],
					"patching_rect" : [ 27.0, 183.0, 180.0, 208.0 ],
					"bgmode" : 1,
					"name" : "playr-patch.maxpat",
					"numinlets" : 4,
					"numoutlets" : 2,
					"outlettype" : [ "jit_matrix", "" ]
				}

			}
 ],
		"lines" : [ 			{
				"patchline" : 				{
					"source" : [ "obj-37", 0 ],
					"destination" : [ "obj-13", 0 ],
					"hidden" : 0,
					"midpoints" : [  ]
				}

			}
, 			{
				"patchline" : 				{
					"source" : [ "obj-27", 1 ],
					"destination" : [ "obj-37", 0 ],
					"hidden" : 0,
					"midpoints" : [  ]
				}

			}
, 			{
				"patchline" : 				{
					"source" : [ "obj-10", 0 ],
					"destination" : [ "obj-27", 0 ],
					"hidden" : 0,
					"midpoints" : [  ]
				}

			}
, 			{
				"patchline" : 				{
					"source" : [ "obj-27", 0 ],
					"destination" : [ "obj-23", 0 ],
					"hidden" : 0,
					"midpoints" : [  ]
				}

			}
, 			{
				"patchline" : 				{
					"source" : [ "obj-23", 0 ],
					"destination" : [ "obj-13", 0 ],
					"hidden" : 0,
					"midpoints" : [  ]
				}

			}
, 			{
				"patchline" : 				{
					"source" : [ "obj-19", 0 ],
					"destination" : [ "obj-13", 0 ],
					"hidden" : 0,
					"midpoints" : [ 35.5, 94.0, 80.0, 94.0, 80.0, 7.0, 35.5, 7.0 ]
				}

			}
, 			{
				"patchline" : 				{
					"source" : [ "obj-13", 0 ],
					"destination" : [ "obj-19", 0 ],
					"hidden" : 0,
					"midpoints" : [ 35.5, 61.5, 35.5, 61.5 ]
				}

			}
, 			{
				"patchline" : 				{
					"source" : [ "obj-17", 0 ],
					"destination" : [ "obj-6", 3 ],
					"hidden" : 0,
					"midpoints" : [  ]
				}

			}
, 			{
				"patchline" : 				{
					"source" : [ "obj-5", 0 ],
					"destination" : [ "obj-7", 3 ],
					"hidden" : 0,
					"midpoints" : [  ]
				}

			}
, 			{
				"patchline" : 				{
					"source" : [ "obj-8", 0 ],
					"destination" : [ "obj-18", 0 ],
					"hidden" : 0,
					"midpoints" : [ 288.5, 88.0, 313.5, 88.0, 313.5, 59.0, 326.5, 59.0 ]
				}

			}
, 			{
				"patchline" : 				{
					"source" : [ "obj-18", 0 ],
					"destination" : [ "obj-5", 0 ],
					"hidden" : 0,
					"midpoints" : [  ]
				}

			}
, 			{
				"patchline" : 				{
					"source" : [ "obj-19", 0 ],
					"destination" : [ "obj-8", 0 ],
					"hidden" : 0,
					"midpoints" : [ 35.5, 89.0, 269.0, 89.0, 269.0, 62.0, 288.5, 62.0 ]
				}

			}
, 			{
				"patchline" : 				{
					"source" : [ "obj-19", 0 ],
					"destination" : [ "obj-17", 0 ],
					"hidden" : 0,
					"midpoints" : [  ]
				}

			}
, 			{
				"patchline" : 				{
					"source" : [ "obj-6", 0 ],
					"destination" : [ "obj-34", 0 ],
					"hidden" : 0,
					"midpoints" : [  ]
				}

			}
, 			{
				"patchline" : 				{
					"source" : [ "obj-7", 0 ],
					"destination" : [ "obj-34", 1 ],
					"hidden" : 0,
					"midpoints" : [  ]
				}

			}
, 			{
				"patchline" : 				{
					"source" : [ "obj-16", 0 ],
					"destination" : [ "obj-34", 2 ],
					"hidden" : 0,
					"midpoints" : [  ]
				}

			}
, 			{
				"patchline" : 				{
					"source" : [ "obj-7", 0 ],
					"destination" : [ "obj-33", 0 ],
					"hidden" : 0,
					"midpoints" : [  ]
				}

			}
, 			{
				"patchline" : 				{
					"source" : [ "obj-72", 0 ],
					"destination" : [ "obj-29", 0 ],
					"hidden" : 0,
					"midpoints" : [  ]
				}

			}
, 			{
				"patchline" : 				{
					"source" : [ "obj-72", 0 ],
					"destination" : [ "obj-31", 0 ],
					"hidden" : 0,
					"midpoints" : [  ]
				}

			}
, 			{
				"patchline" : 				{
					"source" : [ "obj-34", 0 ],
					"destination" : [ "obj-29", 0 ],
					"hidden" : 0,
					"midpoints" : [  ]
				}

			}
, 			{
				"patchline" : 				{
					"source" : [ "obj-33", 0 ],
					"destination" : [ "obj-31", 0 ],
					"hidden" : 0,
					"midpoints" : [  ]
				}

			}
 ]
	}

}
