{
	"patcher" : 	{
		"fileversion" : 1,
		"appversion" : 		{
			"major" : 5,
			"minor" : 1,
			"revision" : 9
		}
,
		"rect" : [ 0.0, 44.0, 1366.0, 694.0 ],
		"bglocked" : 0,
		"defrect" : [ 0.0, 44.0, 1366.0, 694.0 ],
		"openrect" : [ 0.0, 0.0, 0.0, 0.0 ],
		"openinpresentation" : 1,
		"default_fontsize" : 12.0,
		"default_fontface" : 0,
		"default_fontname" : "Arial",
		"gridonopen" : 0,
		"gridsize" : [ 15.0, 15.0 ],
		"gridsnaponopen" : 0,
		"toolbarvisible" : 1,
		"boxanimatetime" : 200,
		"imprint" : 0,
		"enablehscroll" : 1,
		"enablevscroll" : 1,
		"devicewidth" : 0.0,
		"boxes" : [ 			{
				"box" : 				{
					"maxclass" : "message",
					"text" : "/vsec $1",
					"fontsize" : 12.0,
					"outlettype" : [ "" ],
					"presentation_rect" : [ 640.0, 724.0, 0.0, 0.0 ],
					"patching_rect" : [ 433.0, 702.0, 55.0, 18.0 ],
					"id" : "obj-97",
					"fontname" : "Arial",
					"numinlets" : 2,
					"numoutlets" : 1
				}

			}
, 			{
				"box" : 				{
					"maxclass" : "message",
					"text" : "/psec $1",
					"fontsize" : 12.0,
					"outlettype" : [ "" ],
					"presentation_rect" : [ 566.0, 724.0, 0.0, 0.0 ],
					"patching_rect" : [ 367.0, 701.0, 56.0, 18.0 ],
					"id" : "obj-95",
					"fontname" : "Arial",
					"numinlets" : 2,
					"numoutlets" : 1
				}

			}
, 			{
				"box" : 				{
					"maxclass" : "message",
					"text" : "/vprime $1",
					"fontsize" : 12.0,
					"outlettype" : [ "" ],
					"presentation_rect" : [ 492.0, 727.0, 0.0, 0.0 ],
					"patching_rect" : [ 298.0, 701.0, 67.0, 18.0 ],
					"id" : "obj-93",
					"fontname" : "Arial",
					"numinlets" : 2,
					"numoutlets" : 1
				}

			}
, 			{
				"box" : 				{
					"maxclass" : "message",
					"text" : "/pprime $1",
					"fontsize" : 12.0,
					"outlettype" : [ "" ],
					"patching_rect" : [ 230.0, 701.0, 67.0, 18.0 ],
					"id" : "obj-91",
					"fontname" : "Arial",
					"numinlets" : 2,
					"numoutlets" : 1
				}

			}
, 			{
				"box" : 				{
					"maxclass" : "newobj",
					"text" : "udpsend 127.0.0.1 54321",
					"fontsize" : 12.0,
					"patching_rect" : [ 426.0, 763.0, 147.0, 20.0 ],
					"id" : "obj-80",
					"fontname" : "Arial",
					"numinlets" : 1,
					"numoutlets" : 0
				}

			}
, 			{
				"box" : 				{
					"maxclass" : "comment",
					"text" : "vSec",
					"fontsize" : 12.0,
					"presentation_rect" : [ 1078.0, 404.0, 44.0, 20.0 ],
					"patching_rect" : [ 391.0, 674.0, 46.0, 20.0 ],
					"presentation" : 1,
					"id" : "obj-18",
					"fontname" : "Arial",
					"numinlets" : 1,
					"numoutlets" : 0
				}

			}
, 			{
				"box" : 				{
					"maxclass" : "comment",
					"text" : "pSec",
					"fontsize" : 12.0,
					"presentation_rect" : [ 1024.0, 404.0, 45.0, 20.0 ],
					"patching_rect" : [ 338.0, 674.0, 47.0, 20.0 ],
					"presentation" : 1,
					"id" : "obj-31",
					"fontname" : "Arial",
					"numinlets" : 1,
					"numoutlets" : 0
				}

			}
, 			{
				"box" : 				{
					"maxclass" : "number",
					"fontsize" : 12.0,
					"outlettype" : [ "int", "bang" ],
					"presentation_rect" : [ 1078.0, 381.0, 50.0, 20.0 ],
					"patching_rect" : [ 391.0, 651.0, 50.0, 20.0 ],
					"presentation" : 1,
					"id" : "obj-46",
					"fontname" : "Arial",
					"numinlets" : 1,
					"numoutlets" : 2
				}

			}
, 			{
				"box" : 				{
					"maxclass" : "number",
					"fontsize" : 12.0,
					"outlettype" : [ "int", "bang" ],
					"presentation_rect" : [ 1022.0, 381.0, 50.0, 20.0 ],
					"patching_rect" : [ 335.0, 651.0, 50.0, 20.0 ],
					"presentation" : 1,
					"id" : "obj-75",
					"fontname" : "Arial",
					"numinlets" : 1,
					"numoutlets" : 2
				}

			}
, 			{
				"box" : 				{
					"maxclass" : "number",
					"fontsize" : 12.0,
					"outlettype" : [ "int", "bang" ],
					"patching_rect" : [ 1185.0, 841.0, 50.0, 20.0 ],
					"id" : "obj-96",
					"fontname" : "Arial",
					"numinlets" : 1,
					"numoutlets" : 2
				}

			}
, 			{
				"box" : 				{
					"maxclass" : "number",
					"fontsize" : 12.0,
					"outlettype" : [ "int", "bang" ],
					"patching_rect" : [ 1065.0, 841.0, 50.0, 20.0 ],
					"id" : "obj-94",
					"fontname" : "Arial",
					"numinlets" : 1,
					"numoutlets" : 2
				}

			}
, 			{
				"box" : 				{
					"maxclass" : "button",
					"outlettype" : [ "bang" ],
					"patching_rect" : [ 1260.0, 766.0, 20.0, 20.0 ],
					"id" : "obj-92",
					"numinlets" : 1,
					"numoutlets" : 1
				}

			}
, 			{
				"box" : 				{
					"maxclass" : "gswitch2",
					"outlettype" : [ "", "" ],
					"patching_rect" : [ 1080.0, 796.0, 39.0, 32.0 ],
					"id" : "obj-90",
					"numinlets" : 2,
					"numoutlets" : 2
				}

			}
, 			{
				"box" : 				{
					"maxclass" : "newobj",
					"text" : "t",
					"fontsize" : 12.0,
					"outlettype" : [ "", "" ],
					"patching_rect" : [ 750.0, 690.0, 32.5, 20.0 ],
					"id" : "obj-89",
					"fontname" : "Arial",
					"numinlets" : 1,
					"numoutlets" : 2
				}

			}
, 			{
				"box" : 				{
					"maxclass" : "newobj",
					"text" : "gate",
					"fontsize" : 12.0,
					"outlettype" : [ "" ],
					"patching_rect" : [ 705.0, 675.0, 34.0, 20.0 ],
					"id" : "obj-88",
					"fontname" : "Arial",
					"numinlets" : 2,
					"numoutlets" : 1
				}

			}
, 			{
				"box" : 				{
					"maxclass" : "toggle",
					"outlettype" : [ "int" ],
					"patching_rect" : [ 1260.0, 796.0, 20.0, 20.0 ],
					"id" : "obj-83",
					"numinlets" : 1,
					"numoutlets" : 1
				}

			}
, 			{
				"box" : 				{
					"maxclass" : "newobj",
					"text" : "r vZ",
					"fontsize" : 12.0,
					"outlettype" : [ "" ],
					"patching_rect" : [ 1022.0, 731.0, 31.0, 20.0 ],
					"id" : "obj-79",
					"fontname" : "Arial",
					"numinlets" : 0,
					"numoutlets" : 1
				}

			}
, 			{
				"box" : 				{
					"maxclass" : "newobj",
					"text" : "r pZ",
					"fontsize" : 12.0,
					"outlettype" : [ "" ],
					"patching_rect" : [ 1135.0, 710.0, 32.0, 20.0 ],
					"id" : "obj-74",
					"fontname" : "Arial",
					"numinlets" : 0,
					"numoutlets" : 1
				}

			}
, 			{
				"box" : 				{
					"maxclass" : "number",
					"fontsize" : 12.0,
					"outlettype" : [ "int", "bang" ],
					"patching_rect" : [ 1140.0, 766.0, 50.0, 20.0 ],
					"id" : "obj-65",
					"fontname" : "Arial",
					"numinlets" : 1,
					"numoutlets" : 2
				}

			}
, 			{
				"box" : 				{
					"maxclass" : "newobj",
					"text" : "scale 0 1",
					"fontsize" : 12.0,
					"outlettype" : [ "" ],
					"patching_rect" : [ 1140.0, 736.0, 86.5, 20.0 ],
					"id" : "obj-71",
					"fontname" : "Arial",
					"numinlets" : 6,
					"numoutlets" : 1
				}

			}
, 			{
				"box" : 				{
					"maxclass" : "number",
					"fontsize" : 12.0,
					"outlettype" : [ "int", "bang" ],
					"patching_rect" : [ 990.0, 796.0, 50.0, 20.0 ],
					"id" : "obj-49",
					"fontname" : "Arial",
					"numinlets" : 1,
					"numoutlets" : 2
				}

			}
, 			{
				"box" : 				{
					"maxclass" : "newobj",
					"text" : "scale 0 1",
					"fontsize" : 12.0,
					"outlettype" : [ "" ],
					"patching_rect" : [ 990.0, 766.0, 86.5, 20.0 ],
					"id" : "obj-26",
					"fontname" : "Arial",
					"numinlets" : 6,
					"numoutlets" : 1
				}

			}
, 			{
				"box" : 				{
					"maxclass" : "comment",
					"text" : "BANG nextIndex",
					"fontsize" : 12.0,
					"presentation_rect" : [ 1085.0, 166.0, 109.0, 20.0 ],
					"patching_rect" : [ 1085.0, 166.0, 109.0, 20.0 ],
					"presentation" : 1,
					"id" : "obj-17",
					"fontname" : "Arial",
					"numinlets" : 1,
					"numoutlets" : 0
				}

			}
, 			{
				"box" : 				{
					"maxclass" : "newobj",
					"text" : "if $i2 < $i1 then bang",
					"fontsize" : 12.0,
					"outlettype" : [ "" ],
					"patching_rect" : [ 1003.0, 493.0, 122.0, 20.0 ],
					"id" : "obj-23",
					"fontname" : "Arial",
					"numinlets" : 2,
					"numoutlets" : 1
				}

			}
, 			{
				"box" : 				{
					"maxclass" : "message",
					"text" : "if $2 < $1 + $3",
					"fontsize" : 12.0,
					"outlettype" : [ "" ],
					"patching_rect" : [ 1021.0, 559.0, 87.0, 18.0 ],
					"id" : "obj-20",
					"fontname" : "Arial",
					"numinlets" : 2,
					"numoutlets" : 1
				}

			}
, 			{
				"box" : 				{
					"maxclass" : "newobj",
					"text" : "loadbang",
					"fontsize" : 12.0,
					"outlettype" : [ "bang" ],
					"patching_rect" : [ 1217.0, 426.0, 60.0, 20.0 ],
					"id" : "obj-12",
					"fontname" : "Arial",
					"numinlets" : 1,
					"numoutlets" : 1
				}

			}
, 			{
				"box" : 				{
					"maxclass" : "newobj",
					"text" : "r thisFlagTime",
					"fontsize" : 12.0,
					"outlettype" : [ "" ],
					"patching_rect" : [ 1120.0, 400.0, 86.0, 20.0 ],
					"id" : "obj-86",
					"fontname" : "Arial",
					"numinlets" : 0,
					"numoutlets" : 1
				}

			}
, 			{
				"box" : 				{
					"maxclass" : "number",
					"fontsize" : 12.0,
					"outlettype" : [ "int", "bang" ],
					"patching_rect" : [ 1145.0, 446.0, 50.0, 20.0 ],
					"id" : "obj-87",
					"fontname" : "Arial",
					"numinlets" : 1,
					"numoutlets" : 2
				}

			}
, 			{
				"box" : 				{
					"maxclass" : "newobj",
					"text" : "r currTime",
					"fontsize" : 12.0,
					"outlettype" : [ "" ],
					"patching_rect" : [ 974.0, 408.0, 65.0, 20.0 ],
					"id" : "obj-84",
					"fontname" : "Arial",
					"numinlets" : 0,
					"numoutlets" : 1
				}

			}
, 			{
				"box" : 				{
					"maxclass" : "number",
					"fontsize" : 12.0,
					"outlettype" : [ "int", "bang" ],
					"patching_rect" : [ 999.0, 454.0, 50.0, 20.0 ],
					"id" : "obj-85",
					"fontname" : "Arial",
					"numinlets" : 1,
					"numoutlets" : 2
				}

			}
, 			{
				"box" : 				{
					"maxclass" : "newobj",
					"text" : "s currTime",
					"fontsize" : 12.0,
					"patching_rect" : [ 1124.0, 274.0, 67.0, 20.0 ],
					"id" : "obj-81",
					"fontname" : "Arial",
					"numinlets" : 1,
					"numoutlets" : 0
				}

			}
, 			{
				"box" : 				{
					"maxclass" : "comment",
					"text" : "hit max - BANG next vid and flag time",
					"linecount" : 3,
					"fontsize" : 12.0,
					"patching_rect" : [ 1120.0, 643.0, 102.0, 48.0 ],
					"id" : "obj-76",
					"fontname" : "Arial",
					"numinlets" : 1,
					"numoutlets" : 0
				}

			}
, 			{
				"box" : 				{
					"maxclass" : "button",
					"outlettype" : [ "bang" ],
					"presentation_rect" : [ 1044.0, 156.0, 36.0, 36.0 ],
					"patching_rect" : [ 1122.0, 547.0, 60.0, 60.0 ],
					"presentation" : 1,
					"id" : "obj-77",
					"numinlets" : 1,
					"numoutlets" : 1
				}

			}
, 			{
				"box" : 				{
					"maxclass" : "newobj",
					"text" : "s thisFlagTime",
					"fontsize" : 12.0,
					"patching_rect" : [ 124.0, 710.0, 88.0, 20.0 ],
					"id" : "obj-21",
					"fontname" : "Arial",
					"numinlets" : 1,
					"numoutlets" : 0
				}

			}
, 			{
				"box" : 				{
					"maxclass" : "newobj",
					"text" : "r nextIndex",
					"fontsize" : 12.0,
					"outlettype" : [ "" ],
					"patching_rect" : [ 491.0, 481.0, 70.0, 20.0 ],
					"id" : "obj-16",
					"fontname" : "Arial",
					"numinlets" : 0,
					"numoutlets" : 1
				}

			}
, 			{
				"box" : 				{
					"maxclass" : "comment",
					"text" : "for testing: Fake nextIndex bang!",
					"linecount" : 4,
					"presentation_linecount" : 2,
					"fontsize" : 12.0,
					"presentation_rect" : [ 946.0, 223.0, 140.0, 34.0 ],
					"patching_rect" : [ 539.0, 566.0, 68.0, 62.0 ],
					"presentation" : 1,
					"id" : "obj-61",
					"fontname" : "Arial",
					"numinlets" : 1,
					"numoutlets" : 0
				}

			}
, 			{
				"box" : 				{
					"maxclass" : "message",
					"text" : "inc",
					"fontsize" : 12.0,
					"outlettype" : [ "" ],
					"patching_rect" : [ 487.0, 609.0, 32.5, 18.0 ],
					"id" : "obj-73",
					"fontname" : "Arial",
					"numinlets" : 2,
					"numoutlets" : 1
				}

			}
, 			{
				"box" : 				{
					"maxclass" : "incdec",
					"outlettype" : [ "float" ],
					"patching_rect" : [ 406.0, 533.0, 39.0, 44.0 ],
					"id" : "obj-62",
					"numinlets" : 1,
					"numoutlets" : 1
				}

			}
, 			{
				"box" : 				{
					"maxclass" : "newobj",
					"text" : "loadmess 1",
					"fontsize" : 12.0,
					"outlettype" : [ "" ],
					"patching_rect" : [ 391.0, 503.0, 72.0, 20.0 ],
					"id" : "obj-58",
					"fontname" : "Arial",
					"numinlets" : 1,
					"numoutlets" : 1
				}

			}
, 			{
				"box" : 				{
					"maxclass" : "comment",
					"text" : "currentIndex",
					"fontsize" : 12.0,
					"presentation_rect" : [ 999.0, 277.0, 104.0, 20.0 ],
					"patching_rect" : [ 201.0, 553.0, 104.0, 20.0 ],
					"presentation" : 1,
					"id" : "obj-64",
					"fontname" : "Arial",
					"numinlets" : 1,
					"numoutlets" : 0
				}

			}
, 			{
				"box" : 				{
					"maxclass" : "number",
					"fontsize" : 12.0,
					"outlettype" : [ "int", "bang" ],
					"presentation_rect" : [ 940.0, 276.0, 50.0, 20.0 ],
					"patching_rect" : [ 148.0, 555.0, 50.0, 20.0 ],
					"minimum" : 0,
					"presentation" : 1,
					"id" : "obj-63",
					"fontname" : "Arial",
					"numinlets" : 1,
					"numoutlets" : 2
				}

			}
, 			{
				"box" : 				{
					"maxclass" : "comment",
					"text" : "currEffectRange",
					"fontsize" : 12.0,
					"presentation_rect" : [ 1160.0, 303.0, 104.0, 20.0 ],
					"patching_rect" : [ 454.0, 620.0, 104.0, 20.0 ],
					"presentation" : 1,
					"id" : "obj-60",
					"fontname" : "Arial",
					"numinlets" : 1,
					"numoutlets" : 0
				}

			}
, 			{
				"box" : 				{
					"maxclass" : "comment",
					"text" : "vidRange",
					"fontsize" : 12.0,
					"presentation_rect" : [ 1026.0, 304.0, 104.0, 20.0 ],
					"patching_rect" : [ 237.0, 623.0, 104.0, 20.0 ],
					"presentation" : 1,
					"id" : "obj-59",
					"fontname" : "Arial",
					"numinlets" : 1,
					"numoutlets" : 0
				}

			}
, 			{
				"box" : 				{
					"maxclass" : "comment",
					"text" : "max",
					"fontsize" : 12.0,
					"presentation_rect" : [ 1208.0, 358.0, 31.0, 20.0 ],
					"patching_rect" : [ 502.0, 675.0, 31.0, 20.0 ],
					"presentation" : 1,
					"id" : "obj-30",
					"fontname" : "Arial",
					"numinlets" : 1,
					"numoutlets" : 0
				}

			}
, 			{
				"box" : 				{
					"maxclass" : "comment",
					"text" : "min",
					"fontsize" : 12.0,
					"presentation_rect" : [ 1149.0, 358.0, 31.0, 20.0 ],
					"patching_rect" : [ 443.0, 675.0, 31.0, 20.0 ],
					"presentation" : 1,
					"id" : "obj-35",
					"fontname" : "Arial",
					"numinlets" : 1,
					"numoutlets" : 0
				}

			}
, 			{
				"box" : 				{
					"maxclass" : "number",
					"fontsize" : 12.0,
					"outlettype" : [ "int", "bang" ],
					"presentation_rect" : [ 1204.0, 333.0, 50.0, 20.0 ],
					"patching_rect" : [ 498.0, 650.0, 50.0, 20.0 ],
					"presentation" : 1,
					"id" : "obj-36",
					"fontname" : "Arial",
					"numinlets" : 1,
					"numoutlets" : 2
				}

			}
, 			{
				"box" : 				{
					"maxclass" : "number",
					"fontsize" : 12.0,
					"outlettype" : [ "int", "bang" ],
					"presentation_rect" : [ 1148.0, 333.0, 50.0, 20.0 ],
					"patching_rect" : [ 442.0, 650.0, 50.0, 20.0 ],
					"presentation" : 1,
					"id" : "obj-40",
					"fontname" : "Arial",
					"numinlets" : 1,
					"numoutlets" : 2
				}

			}
, 			{
				"box" : 				{
					"maxclass" : "comment",
					"text" : "vPrime",
					"fontsize" : 12.0,
					"presentation_rect" : [ 1080.0, 356.0, 47.0, 20.0 ],
					"patching_rect" : [ 284.0, 675.0, 46.0, 20.0 ],
					"presentation" : 1,
					"id" : "obj-43",
					"fontname" : "Arial",
					"numinlets" : 1,
					"numoutlets" : 0
				}

			}
, 			{
				"box" : 				{
					"maxclass" : "comment",
					"text" : "pPrime",
					"fontsize" : 12.0,
					"presentation_rect" : [ 1027.0, 356.0, 51.0, 20.0 ],
					"patching_rect" : [ 230.0, 675.0, 47.0, 20.0 ],
					"presentation" : 1,
					"id" : "obj-51",
					"fontname" : "Arial",
					"numinlets" : 1,
					"numoutlets" : 0
				}

			}
, 			{
				"box" : 				{
					"maxclass" : "comment",
					"text" : "currentFlagTime",
					"fontsize" : 12.0,
					"presentation_rect" : [ 924.0, 307.0, 104.0, 20.0 ],
					"patching_rect" : [ 114.0, 622.0, 104.0, 20.0 ],
					"presentation" : 1,
					"id" : "obj-53",
					"fontname" : "Arial",
					"numinlets" : 1,
					"numoutlets" : 0
				}

			}
, 			{
				"box" : 				{
					"maxclass" : "number",
					"fontsize" : 12.0,
					"outlettype" : [ "int", "bang" ],
					"presentation_rect" : [ 946.0, 333.0, 50.0, 20.0 ],
					"patching_rect" : [ 149.0, 652.0, 50.0, 20.0 ],
					"presentation" : 1,
					"id" : "obj-55",
					"fontname" : "Arial",
					"numinlets" : 1,
					"numoutlets" : 2
				}

			}
, 			{
				"box" : 				{
					"maxclass" : "number",
					"fontsize" : 12.0,
					"outlettype" : [ "int", "bang" ],
					"presentation_rect" : [ 1081.0, 333.0, 50.0, 20.0 ],
					"patching_rect" : [ 284.0, 652.0, 50.0, 20.0 ],
					"presentation" : 1,
					"id" : "obj-56",
					"fontname" : "Arial",
					"numinlets" : 1,
					"numoutlets" : 2
				}

			}
, 			{
				"box" : 				{
					"maxclass" : "number",
					"fontsize" : 12.0,
					"outlettype" : [ "int", "bang" ],
					"presentation_rect" : [ 1025.0, 333.0, 50.0, 20.0 ],
					"patching_rect" : [ 228.0, 652.0, 50.0, 20.0 ],
					"presentation" : 1,
					"id" : "obj-57",
					"fontname" : "Arial",
					"numinlets" : 1,
					"numoutlets" : 2
				}

			}
, 			{
				"box" : 				{
					"maxclass" : "newobj",
					"text" : "s nextIndex",
					"fontsize" : 12.0,
					"patching_rect" : [ 1126.0, 613.0, 72.0, 20.0 ],
					"id" : "obj-14",
					"fontname" : "Arial",
					"numinlets" : 1,
					"numoutlets" : 0
				}

			}
, 			{
				"box" : 				{
					"maxclass" : "newobj",
					"text" : "r thisFlagTime",
					"fontsize" : 12.0,
					"outlettype" : [ "" ],
					"patching_rect" : [ 1086.0, 137.0, 86.0, 20.0 ],
					"id" : "obj-3",
					"fontname" : "Arial",
					"numinlets" : 0,
					"numoutlets" : 1
				}

			}
, 			{
				"box" : 				{
					"maxclass" : "comment",
					"text" : "current time",
					"fontsize" : 12.0,
					"presentation_rect" : [ 1090.0, 121.0, 109.0, 20.0 ],
					"patching_rect" : [ 1057.0, 298.0, 109.0, 20.0 ],
					"presentation" : 1,
					"id" : "obj-32",
					"fontname" : "Arial",
					"numinlets" : 1,
					"numoutlets" : 0
				}

			}
, 			{
				"box" : 				{
					"maxclass" : "number",
					"fontsize" : 12.0,
					"outlettype" : [ "int", "bang" ],
					"presentation_rect" : [ 1035.0, 124.0, 50.0, 20.0 ],
					"patching_rect" : [ 1057.0, 275.0, 50.0, 20.0 ],
					"presentation" : 1,
					"id" : "obj-27",
					"fontname" : "Arial",
					"numinlets" : 1,
					"numoutlets" : 2
				}

			}
, 			{
				"box" : 				{
					"maxclass" : "comment",
					"text" : "timer",
					"fontface" : 1,
					"fontsize" : 14.0,
					"presentation_rect" : [ 955.0, 97.0, 47.0, 23.0 ],
					"patching_rect" : [ 1018.0, 204.0, 185.0, 23.0 ],
					"presentation" : 1,
					"id" : "obj-52",
					"fontname" : "Arial",
					"numinlets" : 1,
					"numoutlets" : 0
				}

			}
, 			{
				"box" : 				{
					"maxclass" : "newobj",
					"text" : "loadmess 1",
					"fontsize" : 12.0,
					"outlettype" : [ "" ],
					"patching_rect" : [ 1030.0, 175.0, 72.0, 20.0 ],
					"id" : "obj-50",
					"fontname" : "Arial",
					"numinlets" : 1,
					"numoutlets" : 1
				}

			}
, 			{
				"box" : 				{
					"maxclass" : "comment",
					"text" : "on/off",
					"fontsize" : 12.0,
					"presentation_rect" : [ 953.0, 119.0, 44.0, 20.0 ],
					"patching_rect" : [ 1018.0, 226.0, 41.0, 20.0 ],
					"presentation" : 1,
					"id" : "obj-42",
					"fontname" : "Arial",
					"numinlets" : 1,
					"numoutlets" : 0
				}

			}
, 			{
				"box" : 				{
					"maxclass" : "toggle",
					"outlettype" : [ "int" ],
					"presentation_rect" : [ 955.0, 142.0, 59.0, 59.0 ],
					"patching_rect" : [ 1056.0, 219.0, 20.0, 20.0 ],
					"presentation" : 1,
					"id" : "obj-37",
					"numinlets" : 1,
					"numoutlets" : 1
				}

			}
, 			{
				"box" : 				{
					"maxclass" : "comment",
					"text" : "current Flag Time",
					"linecount" : 2,
					"fontsize" : 12.0,
					"presentation_rect" : [ 1090.0, 105.0, 109.0, 20.0 ],
					"patching_rect" : [ 1136.0, 222.0, 62.0, 34.0 ],
					"presentation" : 1,
					"id" : "obj-33",
					"fontname" : "Arial",
					"numinlets" : 1,
					"numoutlets" : 0
				}

			}
, 			{
				"box" : 				{
					"maxclass" : "number",
					"fontsize" : 12.0,
					"outlettype" : [ "int", "bang" ],
					"presentation_rect" : [ 1034.0, 103.0, 50.0, 20.0 ],
					"patching_rect" : [ 1086.0, 221.0, 50.0, 20.0 ],
					"minimum" : 3,
					"presentation" : 1,
					"id" : "obj-28",
					"fontname" : "Arial",
					"numinlets" : 1,
					"numoutlets" : 2
				}

			}
, 			{
				"box" : 				{
					"maxclass" : "newobj",
					"text" : "p timer",
					"fontsize" : 12.0,
					"outlettype" : [ "int" ],
					"patching_rect" : [ 1058.0, 249.0, 47.0, 20.0 ],
					"id" : "obj-22",
					"fontname" : "Arial",
					"numinlets" : 2,
					"numoutlets" : 1,
					"patcher" : 					{
						"fileversion" : 1,
						"appversion" : 						{
							"major" : 5,
							"minor" : 1,
							"revision" : 9
						}
,
						"rect" : [ 60.0, 69.0, 640.0, 480.0 ],
						"bglocked" : 0,
						"defrect" : [ 60.0, 69.0, 640.0, 480.0 ],
						"openrect" : [ 0.0, 0.0, 0.0, 0.0 ],
						"openinpresentation" : 0,
						"default_fontsize" : 12.0,
						"default_fontface" : 0,
						"default_fontname" : "Arial",
						"gridonopen" : 0,
						"gridsize" : [ 15.0, 15.0 ],
						"gridsnaponopen" : 0,
						"toolbarvisible" : 1,
						"boxanimatetime" : 200,
						"imprint" : 0,
						"enablehscroll" : 1,
						"enablevscroll" : 1,
						"devicewidth" : 0.0,
						"boxes" : [ 							{
								"box" : 								{
									"maxclass" : "newobj",
									"text" : "r nextIndex",
									"fontsize" : 12.0,
									"outlettype" : [ "" ],
									"patching_rect" : [ 434.0, 33.0, 70.0, 20.0 ],
									"id" : "obj-19",
									"fontname" : "Arial",
									"numinlets" : 0,
									"numoutlets" : 1
								}

							}
, 							{
								"box" : 								{
									"maxclass" : "comment",
									"text" : "CHANGE TO 1000",
									"linecount" : 2,
									"fontsize" : 12.0,
									"patching_rect" : [ 194.0, 137.0, 92.0, 34.0 ],
									"id" : "obj-14",
									"fontname" : "Arial",
									"numinlets" : 1,
									"numoutlets" : 0
								}

							}
, 							{
								"box" : 								{
									"maxclass" : "newobj",
									"text" : "loadbang",
									"fontsize" : 12.0,
									"outlettype" : [ "bang" ],
									"patching_rect" : [ 494.0, 60.0, 60.0, 20.0 ],
									"id" : "obj-1",
									"fontname" : "Arial",
									"numinlets" : 1,
									"numoutlets" : 1
								}

							}
, 							{
								"box" : 								{
									"maxclass" : "comment",
									"text" : "end of piece, turn off",
									"linecount" : 2,
									"fontsize" : 12.0,
									"patching_rect" : [ 398.0, 271.0, 92.0, 34.0 ],
									"id" : "obj-9",
									"fontname" : "Arial",
									"numinlets" : 1,
									"numoutlets" : 0
								}

							}
, 							{
								"box" : 								{
									"maxclass" : "button",
									"outlettype" : [ "bang" ],
									"patching_rect" : [ 360.0, 239.0, 20.0, 20.0 ],
									"id" : "obj-4",
									"numinlets" : 1,
									"numoutlets" : 1
								}

							}
, 							{
								"box" : 								{
									"maxclass" : "message",
									"text" : "0",
									"fontsize" : 12.0,
									"outlettype" : [ "" ],
									"patching_rect" : [ 363.0, 271.0, 32.5, 18.0 ],
									"id" : "obj-2",
									"fontname" : "Arial",
									"numinlets" : 2,
									"numoutlets" : 1
								}

							}
, 							{
								"box" : 								{
									"maxclass" : "comment",
									"text" : "current count ",
									"fontsize" : 12.0,
									"patching_rect" : [ 250.0, 310.0, 92.0, 20.0 ],
									"id" : "obj-21",
									"fontname" : "Arial",
									"numinlets" : 1,
									"numoutlets" : 0
								}

							}
, 							{
								"box" : 								{
									"maxclass" : "comment",
									"text" : "count seconds",
									"fontsize" : 12.0,
									"patching_rect" : [ 167.0, 92.0, 92.0, 20.0 ],
									"id" : "obj-18",
									"fontname" : "Arial",
									"numinlets" : 1,
									"numoutlets" : 0
								}

							}
, 							{
								"box" : 								{
									"maxclass" : "comment",
									"text" : "next timing flag",
									"fontsize" : 12.0,
									"patching_rect" : [ 419.0, 109.0, 99.0, 20.0 ],
									"id" : "obj-17",
									"fontname" : "Arial",
									"numinlets" : 1,
									"numoutlets" : 0
								}

							}
, 							{
								"box" : 								{
									"maxclass" : "number",
									"fontsize" : 12.0,
									"outlettype" : [ "int", "bang" ],
									"patching_rect" : [ 367.0, 111.0, 50.0, 20.0 ],
									"id" : "obj-15",
									"fontname" : "Arial",
									"numinlets" : 1,
									"numoutlets" : 2
								}

							}
, 							{
								"box" : 								{
									"maxclass" : "inlet",
									"outlettype" : [ "int" ],
									"patching_rect" : [ 368.0, 44.0, 25.0, 25.0 ],
									"id" : "obj-13",
									"numinlets" : 0,
									"numoutlets" : 1,
									"comment" : ""
								}

							}
, 							{
								"box" : 								{
									"maxclass" : "number",
									"fontsize" : 12.0,
									"outlettype" : [ "int", "bang" ],
									"patching_rect" : [ 197.0, 310.0, 50.0, 20.0 ],
									"id" : "obj-12",
									"fontname" : "Arial",
									"numinlets" : 1,
									"numoutlets" : 2
								}

							}
, 							{
								"box" : 								{
									"maxclass" : "toggle",
									"outlettype" : [ "int" ],
									"patching_rect" : [ 146.0, 78.0, 20.0, 20.0 ],
									"id" : "obj-10",
									"numinlets" : 1,
									"numoutlets" : 1
								}

							}
, 							{
								"box" : 								{
									"maxclass" : "newobj",
									"text" : "metro 125",
									"fontsize" : 12.0,
									"outlettype" : [ "bang" ],
									"patching_rect" : [ 151.0, 114.0, 65.0, 20.0 ],
									"id" : "obj-8",
									"fontname" : "Arial",
									"numinlets" : 2,
									"numoutlets" : 1
								}

							}
, 							{
								"box" : 								{
									"maxclass" : "newobj",
									"text" : "counter 0 500",
									"fontsize" : 12.0,
									"outlettype" : [ "int", "", "", "int" ],
									"patching_rect" : [ 241.0, 185.0, 84.0, 20.0 ],
									"id" : "obj-7",
									"fontname" : "Arial",
									"numinlets" : 5,
									"numoutlets" : 4
								}

							}
, 							{
								"box" : 								{
									"maxclass" : "outlet",
									"patching_rect" : [ 191.0, 348.0, 25.0, 25.0 ],
									"id" : "obj-6",
									"numinlets" : 1,
									"numoutlets" : 0,
									"comment" : ""
								}

							}
, 							{
								"box" : 								{
									"maxclass" : "inlet",
									"outlettype" : [ "int" ],
									"patching_rect" : [ 142.0, 42.0, 25.0, 25.0 ],
									"id" : "obj-5",
									"numinlets" : 0,
									"numoutlets" : 1,
									"comment" : ""
								}

							}
 ],
						"lines" : [ 							{
								"patchline" : 								{
									"source" : [ "obj-8", 0 ],
									"destination" : [ "obj-7", 0 ],
									"hidden" : 0,
									"midpoints" : [  ]
								}

							}
, 							{
								"patchline" : 								{
									"source" : [ "obj-10", 0 ],
									"destination" : [ "obj-8", 0 ],
									"hidden" : 0,
									"midpoints" : [  ]
								}

							}
, 							{
								"patchline" : 								{
									"source" : [ "obj-1", 0 ],
									"destination" : [ "obj-15", 0 ],
									"hidden" : 0,
									"midpoints" : [  ]
								}

							}
, 							{
								"patchline" : 								{
									"source" : [ "obj-7", 0 ],
									"destination" : [ "obj-12", 0 ],
									"hidden" : 0,
									"midpoints" : [  ]
								}

							}
, 							{
								"patchline" : 								{
									"source" : [ "obj-2", 0 ],
									"destination" : [ "obj-10", 0 ],
									"hidden" : 0,
									"midpoints" : [ 372.5, 414.0, 97.0, 414.0, 97.0, 66.0 ]
								}

							}
, 							{
								"patchline" : 								{
									"source" : [ "obj-4", 0 ],
									"destination" : [ "obj-2", 0 ],
									"hidden" : 0,
									"midpoints" : [  ]
								}

							}
, 							{
								"patchline" : 								{
									"source" : [ "obj-5", 0 ],
									"destination" : [ "obj-10", 0 ],
									"hidden" : 0,
									"midpoints" : [  ]
								}

							}
, 							{
								"patchline" : 								{
									"source" : [ "obj-12", 0 ],
									"destination" : [ "obj-6", 0 ],
									"hidden" : 0,
									"midpoints" : [  ]
								}

							}
, 							{
								"patchline" : 								{
									"source" : [ "obj-13", 0 ],
									"destination" : [ "obj-15", 0 ],
									"hidden" : 0,
									"midpoints" : [  ]
								}

							}
, 							{
								"patchline" : 								{
									"source" : [ "obj-19", 0 ],
									"destination" : [ "obj-15", 0 ],
									"hidden" : 0,
									"midpoints" : [  ]
								}

							}
, 							{
								"patchline" : 								{
									"source" : [ "obj-7", 2 ],
									"destination" : [ "obj-4", 0 ],
									"hidden" : 0,
									"midpoints" : [  ]
								}

							}
 ]
					}
,
					"saved_object_attributes" : 					{
						"fontface" : 0,
						"fontsize" : 12.0,
						"default_fontface" : 0,
						"default_fontname" : "Arial",
						"fontname" : "Arial",
						"default_fontsize" : 12.0,
						"globalpatchername" : ""
					}

				}

			}
, 			{
				"box" : 				{
					"maxclass" : "newobj",
					"text" : "+ 2",
					"fontsize" : 12.0,
					"outlettype" : [ "int" ],
					"patching_rect" : [ 1184.0, 12.0, 32.5, 20.0 ],
					"id" : "obj-10",
					"fontname" : "Arial",
					"numinlets" : 2,
					"numoutlets" : 1
				}

			}
, 			{
				"box" : 				{
					"maxclass" : "comment",
					"text" : "NWS Gestural Video Controller v0.1",
					"linecount" : 2,
					"presentation_linecount" : 2,
					"fontface" : 1,
					"fontsize" : 24.0,
					"presentation_rect" : [ 30.0, 28.0, 310.0, 62.0 ],
					"patching_rect" : [ 601.0, 502.0, 310.0, 62.0 ],
					"presentation" : 1,
					"id" : "obj-11",
					"fontname" : "Gill Sans",
					"numinlets" : 1,
					"numoutlets" : 0
				}

			}
, 			{
				"box" : 				{
					"maxclass" : "comment",
					"text" : "for testing",
					"fontsize" : 12.0,
					"patching_rect" : [ 361.0, 383.0, 68.0, 20.0 ],
					"id" : "obj-9",
					"fontname" : "Arial",
					"numinlets" : 1,
					"numoutlets" : 0
				}

			}
, 			{
				"box" : 				{
					"maxclass" : "newobj",
					"text" : "loadmess 0.5",
					"fontsize" : 12.0,
					"outlettype" : [ "" ],
					"patching_rect" : [ 290.0, 409.0, 82.0, 20.0 ],
					"id" : "obj-2",
					"fontname" : "Arial",
					"numinlets" : 1,
					"numoutlets" : 1
				}

			}
, 			{
				"box" : 				{
					"maxclass" : "newobj",
					"text" : "p vidLists",
					"fontsize" : 12.0,
					"outlettype" : [ "int", "int", "int", "int", "int", "int", "int" ],
					"patching_rect" : [ 148.0, 589.0, 302.0, 20.0 ],
					"id" : "obj-4",
					"fontname" : "Arial",
					"numinlets" : 1,
					"numoutlets" : 7,
					"patcher" : 					{
						"fileversion" : 1,
						"appversion" : 						{
							"major" : 5,
							"minor" : 1,
							"revision" : 9
						}
,
						"rect" : [ 482.0, 50.0, 640.0, 480.0 ],
						"bglocked" : 0,
						"defrect" : [ 482.0, 50.0, 640.0, 480.0 ],
						"openrect" : [ 0.0, 0.0, 0.0, 0.0 ],
						"openinpresentation" : 0,
						"default_fontsize" : 12.0,
						"default_fontface" : 0,
						"default_fontname" : "Arial",
						"gridonopen" : 0,
						"gridsize" : [ 15.0, 15.0 ],
						"gridsnaponopen" : 0,
						"toolbarvisible" : 1,
						"boxanimatetime" : 200,
						"imprint" : 0,
						"enablehscroll" : 1,
						"enablevscroll" : 1,
						"devicewidth" : 0.0,
						"visible" : 1,
						"boxes" : [ 							{
								"box" : 								{
									"maxclass" : "outlet",
									"patching_rect" : [ 390.0, 287.0, 25.0, 25.0 ],
									"id" : "obj-26",
									"numinlets" : 1,
									"numoutlets" : 0,
									"comment" : ""
								}

							}
, 							{
								"box" : 								{
									"maxclass" : "outlet",
									"patching_rect" : [ 325.0, 287.0, 25.0, 25.0 ],
									"id" : "obj-14",
									"numinlets" : 1,
									"numoutlets" : 0,
									"comment" : ""
								}

							}
, 							{
								"box" : 								{
									"maxclass" : "comment",
									"text" : "pSec",
									"fontsize" : 12.0,
									"presentation_rect" : [ 318.0, 244.0, 0.0, 0.0 ],
									"patching_rect" : [ 316.0, 242.0, 61.0, 20.0 ],
									"id" : "obj-11",
									"fontname" : "Arial",
									"numinlets" : 1,
									"numoutlets" : 0
								}

							}
, 							{
								"box" : 								{
									"maxclass" : "comment",
									"text" : "vSec\n",
									"fontsize" : 12.0,
									"presentation_rect" : [ 379.0, 243.0, 0.0, 0.0 ],
									"patching_rect" : [ 379.0, 242.0, 58.0, 34.0 ],
									"id" : "obj-10",
									"fontname" : "Arial",
									"numinlets" : 1,
									"numoutlets" : 0
								}

							}
, 							{
								"box" : 								{
									"maxclass" : "number",
									"fontsize" : 12.0,
									"outlettype" : [ "int", "bang" ],
									"presentation_rect" : [ 363.0, 213.0, 0.0, 0.0 ],
									"patching_rect" : [ 363.0, 213.0, 50.0, 20.0 ],
									"id" : "obj-7",
									"fontname" : "Arial",
									"numinlets" : 1,
									"numoutlets" : 2
								}

							}
, 							{
								"box" : 								{
									"maxclass" : "number",
									"fontsize" : 12.0,
									"outlettype" : [ "int", "bang" ],
									"presentation_rect" : [ 305.0, 214.0, 0.0, 0.0 ],
									"patching_rect" : [ 305.0, 214.0, 50.0, 20.0 ],
									"id" : "obj-2",
									"fontname" : "Arial",
									"numinlets" : 1,
									"numoutlets" : 2
								}

							}
, 							{
								"box" : 								{
									"maxclass" : "newobj",
									"text" : "loadmess 1",
									"fontsize" : 12.0,
									"outlettype" : [ "" ],
									"patching_rect" : [ 42.0, 67.0, 72.0, 20.0 ],
									"id" : "obj-34",
									"fontname" : "Arial",
									"numinlets" : 1,
									"numoutlets" : 1
								}

							}
, 							{
								"box" : 								{
									"maxclass" : "outlet",
									"patching_rect" : [ 504.0, 288.0, 25.0, 25.0 ],
									"id" : "obj-33",
									"numinlets" : 1,
									"numoutlets" : 0,
									"comment" : ""
								}

							}
, 							{
								"box" : 								{
									"maxclass" : "outlet",
									"patching_rect" : [ 445.0, 288.0, 25.0, 25.0 ],
									"id" : "obj-32",
									"numinlets" : 1,
									"numoutlets" : 0,
									"comment" : ""
								}

							}
, 							{
								"box" : 								{
									"maxclass" : "outlet",
									"patching_rect" : [ 265.0, 294.0, 25.0, 25.0 ],
									"id" : "obj-31",
									"numinlets" : 1,
									"numoutlets" : 0,
									"comment" : ""
								}

							}
, 							{
								"box" : 								{
									"maxclass" : "outlet",
									"patching_rect" : [ 193.0, 294.0, 25.0, 25.0 ],
									"id" : "obj-30",
									"numinlets" : 1,
									"numoutlets" : 0,
									"comment" : ""
								}

							}
, 							{
								"box" : 								{
									"maxclass" : "outlet",
									"patching_rect" : [ 57.0, 294.0, 25.0, 25.0 ],
									"id" : "obj-29",
									"numinlets" : 1,
									"numoutlets" : 0,
									"comment" : ""
								}

							}
, 							{
								"box" : 								{
									"maxclass" : "inlet",
									"outlettype" : [ "int" ],
									"patching_rect" : [ 277.0, 36.0, 25.0, 25.0 ],
									"id" : "obj-28",
									"numinlets" : 0,
									"numoutlets" : 1,
									"comment" : ""
								}

							}
, 							{
								"box" : 								{
									"maxclass" : "comment",
									"text" : "max",
									"fontsize" : 12.0,
									"patching_rect" : [ 511.0, 239.0, 31.0, 20.0 ],
									"id" : "obj-21",
									"fontname" : "Arial",
									"numinlets" : 1,
									"numoutlets" : 0
								}

							}
, 							{
								"box" : 								{
									"maxclass" : "comment",
									"text" : "min",
									"fontsize" : 12.0,
									"patching_rect" : [ 447.0, 240.0, 31.0, 20.0 ],
									"id" : "obj-22",
									"fontname" : "Arial",
									"numinlets" : 1,
									"numoutlets" : 0
								}

							}
, 							{
								"box" : 								{
									"maxclass" : "number",
									"fontsize" : 12.0,
									"outlettype" : [ "int", "bang" ],
									"patching_rect" : [ 505.0, 210.0, 50.0, 20.0 ],
									"id" : "obj-23",
									"fontname" : "Arial",
									"numinlets" : 1,
									"numoutlets" : 2
								}

							}
, 							{
								"box" : 								{
									"maxclass" : "number",
									"fontsize" : 12.0,
									"outlettype" : [ "int", "bang" ],
									"patching_rect" : [ 449.0, 211.0, 50.0, 20.0 ],
									"id" : "obj-24",
									"fontname" : "Arial",
									"numinlets" : 1,
									"numoutlets" : 2
								}

							}
, 							{
								"box" : 								{
									"maxclass" : "newobj",
									"text" : "unpack 0 0",
									"fontsize" : 12.0,
									"outlettype" : [ "int", "int" ],
									"patching_rect" : [ 458.0, 180.0, 69.0, 20.0 ],
									"id" : "obj-25",
									"fontname" : "Arial",
									"numinlets" : 1,
									"numoutlets" : 2
								}

							}
, 							{
								"box" : 								{
									"maxclass" : "comment",
									"text" : "vPrimary",
									"fontsize" : 12.0,
									"patching_rect" : [ 249.0, 243.0, 58.0, 20.0 ],
									"id" : "obj-20",
									"fontname" : "Arial",
									"numinlets" : 1,
									"numoutlets" : 0
								}

							}
, 							{
								"box" : 								{
									"maxclass" : "comment",
									"text" : "pPrimary",
									"fontsize" : 12.0,
									"patching_rect" : [ 183.0, 242.0, 61.0, 20.0 ],
									"id" : "obj-19",
									"fontname" : "Arial",
									"numinlets" : 1,
									"numoutlets" : 0
								}

							}
, 							{
								"box" : 								{
									"maxclass" : "comment",
									"text" : "currentFlagTime",
									"fontsize" : 12.0,
									"patching_rect" : [ 31.0, 214.0, 150.0, 20.0 ],
									"id" : "obj-18",
									"fontname" : "Arial",
									"numinlets" : 1,
									"numoutlets" : 0
								}

							}
, 							{
								"box" : 								{
									"maxclass" : "number",
									"fontsize" : 12.0,
									"outlettype" : [ "int", "bang" ],
									"patching_rect" : [ 42.0, 194.0, 50.0, 20.0 ],
									"id" : "obj-17",
									"fontname" : "Arial",
									"numinlets" : 1,
									"numoutlets" : 2
								}

							}
, 							{
								"box" : 								{
									"maxclass" : "number",
									"fontsize" : 12.0,
									"outlettype" : [ "int", "bang" ],
									"patching_rect" : [ 252.0, 213.0, 50.0, 20.0 ],
									"id" : "obj-16",
									"fontname" : "Arial",
									"numinlets" : 1,
									"numoutlets" : 2
								}

							}
, 							{
								"box" : 								{
									"maxclass" : "number",
									"fontsize" : 12.0,
									"outlettype" : [ "int", "bang" ],
									"patching_rect" : [ 196.0, 214.0, 50.0, 20.0 ],
									"id" : "obj-15",
									"fontname" : "Arial",
									"numinlets" : 1,
									"numoutlets" : 2
								}

							}
, 							{
								"box" : 								{
									"maxclass" : "newobj",
									"text" : "unpack 0 0 0 0",
									"fontsize" : 12.0,
									"outlettype" : [ "int", "int", "int", "int" ],
									"patching_rect" : [ 205.0, 183.0, 89.0, 20.0 ],
									"id" : "obj-13",
									"fontname" : "Arial",
									"numinlets" : 1,
									"numoutlets" : 4
								}

							}
, 							{
								"box" : 								{
									"maxclass" : "comment",
									"text" : "current index",
									"fontsize" : 12.0,
									"patching_rect" : [ 342.0, 79.0, 150.0, 20.0 ],
									"id" : "obj-12",
									"fontname" : "Arial",
									"numinlets" : 1,
									"numoutlets" : 0
								}

							}
, 							{
								"box" : 								{
									"maxclass" : "number",
									"fontsize" : 12.0,
									"outlettype" : [ "int", "bang" ],
									"patching_rect" : [ 282.0, 80.0, 50.0, 20.0 ],
									"id" : "obj-8",
									"fontname" : "Arial",
									"numinlets" : 1,
									"numoutlets" : 2
								}

							}
, 							{
								"box" : 								{
									"maxclass" : "message",
									"text" : "read ./NWS/transitionOptions.txt",
									"fontsize" : 12.0,
									"outlettype" : [ "" ],
									"patching_rect" : [ 458.0, 128.0, 182.0, 18.0 ],
									"id" : "obj-5",
									"fontname" : "Arial",
									"numinlets" : 2,
									"numoutlets" : 1
								}

							}
, 							{
								"box" : 								{
									"maxclass" : "newobj",
									"text" : "coll transitionOptions",
									"fontsize" : 12.0,
									"outlettype" : [ "", "", "", "" ],
									"patching_rect" : [ 458.0, 156.0, 122.0, 20.0 ],
									"id" : "obj-6",
									"fontname" : "Arial",
									"numinlets" : 1,
									"numoutlets" : 4,
									"saved_object_attributes" : 									{
										"embed" : 0
									}

								}

							}
, 							{
								"box" : 								{
									"maxclass" : "message",
									"text" : "read ./NWS/vidRange.txt",
									"fontsize" : 12.0,
									"outlettype" : [ "" ],
									"patching_rect" : [ 205.0, 131.0, 143.0, 18.0 ],
									"id" : "obj-1",
									"fontname" : "Arial",
									"numinlets" : 2,
									"numoutlets" : 1
								}

							}
, 							{
								"box" : 								{
									"maxclass" : "newobj",
									"text" : "coll vidRange",
									"fontsize" : 12.0,
									"outlettype" : [ "", "", "", "" ],
									"patching_rect" : [ 205.0, 159.0, 83.0, 20.0 ],
									"id" : "obj-4",
									"fontname" : "Arial",
									"numinlets" : 1,
									"numoutlets" : 4,
									"saved_object_attributes" : 									{
										"embed" : 0
									}

								}

							}
, 							{
								"box" : 								{
									"maxclass" : "message",
									"text" : "read ./NWS/flagTimes.txt",
									"fontsize" : 12.0,
									"outlettype" : [ "" ],
									"patching_rect" : [ 46.0, 131.0, 143.0, 18.0 ],
									"id" : "obj-9",
									"fontname" : "Arial",
									"numinlets" : 2,
									"numoutlets" : 1
								}

							}
, 							{
								"box" : 								{
									"maxclass" : "newobj",
									"text" : "coll flagTimes",
									"fontsize" : 12.0,
									"outlettype" : [ "", "", "", "" ],
									"patching_rect" : [ 46.0, 159.0, 83.0, 20.0 ],
									"id" : "obj-3",
									"fontname" : "Arial",
									"numinlets" : 1,
									"numoutlets" : 4,
									"saved_object_attributes" : 									{
										"embed" : 0
									}

								}

							}
 ],
						"lines" : [ 							{
								"patchline" : 								{
									"source" : [ "obj-7", 0 ],
									"destination" : [ "obj-26", 0 ],
									"hidden" : 0,
									"midpoints" : [  ]
								}

							}
, 							{
								"patchline" : 								{
									"source" : [ "obj-2", 0 ],
									"destination" : [ "obj-14", 0 ],
									"hidden" : 0,
									"midpoints" : [  ]
								}

							}
, 							{
								"patchline" : 								{
									"source" : [ "obj-13", 3 ],
									"destination" : [ "obj-7", 0 ],
									"hidden" : 0,
									"midpoints" : [  ]
								}

							}
, 							{
								"patchline" : 								{
									"source" : [ "obj-13", 2 ],
									"destination" : [ "obj-2", 0 ],
									"hidden" : 0,
									"midpoints" : [  ]
								}

							}
, 							{
								"patchline" : 								{
									"source" : [ "obj-13", 0 ],
									"destination" : [ "obj-15", 0 ],
									"hidden" : 0,
									"midpoints" : [  ]
								}

							}
, 							{
								"patchline" : 								{
									"source" : [ "obj-13", 1 ],
									"destination" : [ "obj-16", 0 ],
									"hidden" : 0,
									"midpoints" : [  ]
								}

							}
, 							{
								"patchline" : 								{
									"source" : [ "obj-4", 0 ],
									"destination" : [ "obj-13", 0 ],
									"hidden" : 0,
									"midpoints" : [  ]
								}

							}
, 							{
								"patchline" : 								{
									"source" : [ "obj-1", 0 ],
									"destination" : [ "obj-4", 0 ],
									"hidden" : 0,
									"midpoints" : [  ]
								}

							}
, 							{
								"patchline" : 								{
									"source" : [ "obj-8", 0 ],
									"destination" : [ "obj-4", 0 ],
									"hidden" : 0,
									"midpoints" : [  ]
								}

							}
, 							{
								"patchline" : 								{
									"source" : [ "obj-23", 0 ],
									"destination" : [ "obj-33", 0 ],
									"hidden" : 0,
									"midpoints" : [  ]
								}

							}
, 							{
								"patchline" : 								{
									"source" : [ "obj-24", 0 ],
									"destination" : [ "obj-32", 0 ],
									"hidden" : 0,
									"midpoints" : [  ]
								}

							}
, 							{
								"patchline" : 								{
									"source" : [ "obj-16", 0 ],
									"destination" : [ "obj-31", 0 ],
									"hidden" : 0,
									"midpoints" : [  ]
								}

							}
, 							{
								"patchline" : 								{
									"source" : [ "obj-15", 0 ],
									"destination" : [ "obj-30", 0 ],
									"hidden" : 0,
									"midpoints" : [  ]
								}

							}
, 							{
								"patchline" : 								{
									"source" : [ "obj-17", 0 ],
									"destination" : [ "obj-29", 0 ],
									"hidden" : 0,
									"midpoints" : [  ]
								}

							}
, 							{
								"patchline" : 								{
									"source" : [ "obj-28", 0 ],
									"destination" : [ "obj-8", 0 ],
									"hidden" : 0,
									"midpoints" : [  ]
								}

							}
, 							{
								"patchline" : 								{
									"source" : [ "obj-6", 0 ],
									"destination" : [ "obj-25", 0 ],
									"hidden" : 0,
									"midpoints" : [  ]
								}

							}
, 							{
								"patchline" : 								{
									"source" : [ "obj-25", 0 ],
									"destination" : [ "obj-24", 0 ],
									"hidden" : 0,
									"midpoints" : [  ]
								}

							}
, 							{
								"patchline" : 								{
									"source" : [ "obj-25", 1 ],
									"destination" : [ "obj-23", 0 ],
									"hidden" : 0,
									"midpoints" : [  ]
								}

							}
, 							{
								"patchline" : 								{
									"source" : [ "obj-3", 0 ],
									"destination" : [ "obj-17", 0 ],
									"hidden" : 0,
									"midpoints" : [  ]
								}

							}
, 							{
								"patchline" : 								{
									"source" : [ "obj-8", 0 ],
									"destination" : [ "obj-3", 0 ],
									"hidden" : 0,
									"midpoints" : [  ]
								}

							}
, 							{
								"patchline" : 								{
									"source" : [ "obj-5", 0 ],
									"destination" : [ "obj-6", 0 ],
									"hidden" : 0,
									"midpoints" : [  ]
								}

							}
, 							{
								"patchline" : 								{
									"source" : [ "obj-9", 0 ],
									"destination" : [ "obj-3", 0 ],
									"hidden" : 0,
									"midpoints" : [  ]
								}

							}
, 							{
								"patchline" : 								{
									"source" : [ "obj-34", 0 ],
									"destination" : [ "obj-9", 0 ],
									"hidden" : 0,
									"midpoints" : [  ]
								}

							}
, 							{
								"patchline" : 								{
									"source" : [ "obj-34", 0 ],
									"destination" : [ "obj-1", 0 ],
									"hidden" : 0,
									"midpoints" : [  ]
								}

							}
 ]
					}
,
					"saved_object_attributes" : 					{
						"fontface" : 0,
						"fontsize" : 12.0,
						"default_fontface" : 0,
						"default_fontname" : "Arial",
						"fontname" : "Arial",
						"default_fontsize" : 12.0,
						"globalpatchername" : ""
					}

				}

			}
, 			{
				"box" : 				{
					"maxclass" : "newobj",
					"varname" : "experimental",
					"text" : "p experimental",
					"fontsize" : 12.0,
					"patching_rect" : [ 806.0, 42.0, 89.0, 20.0 ],
					"id" : "obj-1",
					"fontname" : "Arial",
					"numinlets" : 0,
					"numoutlets" : 0,
					"patcher" : 					{
						"fileversion" : 1,
						"appversion" : 						{
							"major" : 5,
							"minor" : 1,
							"revision" : 9
						}
,
						"rect" : [ 60.0, 69.0, 970.0, 579.0 ],
						"bglocked" : 0,
						"defrect" : [ 60.0, 69.0, 970.0, 579.0 ],
						"openrect" : [ 0.0, 0.0, 0.0, 0.0 ],
						"openinpresentation" : 0,
						"default_fontsize" : 12.0,
						"default_fontface" : 0,
						"default_fontname" : "Arial",
						"gridonopen" : 0,
						"gridsize" : [ 15.0, 15.0 ],
						"gridsnaponopen" : 0,
						"toolbarvisible" : 1,
						"boxanimatetime" : 200,
						"imprint" : 0,
						"enablehscroll" : 1,
						"enablevscroll" : 1,
						"devicewidth" : 0.0,
						"boxes" : [ 							{
								"box" : 								{
									"maxclass" : "newobj",
									"fontsize" : 12.0,
									"patching_rect" : [ 425.0, 379.0, 100.0, 20.0 ],
									"id" : "obj-1",
									"fontname" : "Arial",
									"numinlets" : 0,
									"numoutlets" : 0
								}

							}
, 							{
								"box" : 								{
									"maxclass" : "newobj",
									"text" : "r pX",
									"fontsize" : 12.0,
									"outlettype" : [ "" ],
									"patching_rect" : [ 77.0, 15.0, 33.0, 20.0 ],
									"id" : "obj-55",
									"fontname" : "Arial",
									"numinlets" : 0,
									"numoutlets" : 1
								}

							}
, 							{
								"box" : 								{
									"maxclass" : "newobj",
									"text" : "r pZ",
									"fontsize" : 12.0,
									"outlettype" : [ "" ],
									"patching_rect" : [ 158.0, 15.0, 32.0, 20.0 ],
									"id" : "obj-53",
									"fontname" : "Arial",
									"numinlets" : 0,
									"numoutlets" : 1
								}

							}
, 							{
								"box" : 								{
									"maxclass" : "newobj",
									"text" : "r pY",
									"fontsize" : 12.0,
									"outlettype" : [ "" ],
									"patching_rect" : [ 117.0, 14.0, 33.0, 20.0 ],
									"id" : "obj-51",
									"fontname" : "Arial",
									"numinlets" : 0,
									"numoutlets" : 1
								}

							}
, 							{
								"box" : 								{
									"maxclass" : "bpatcher",
									"varname" : "2toner-patch[1]",
									"prototypename" : "pixl",
									"outlettype" : [ "jit_matrix" ],
									"args" : [  ],
									"bgmode" : 1,
									"patching_rect" : [ 37.0, 51.0, 260.0, 154.0 ],
									"id" : "obj-49",
									"name" : "2toner-patch.maxpat",
									"numinlets" : 7,
									"numoutlets" : 1
								}

							}
, 							{
								"box" : 								{
									"maxclass" : "newobj",
									"text" : "r vZ",
									"fontsize" : 12.0,
									"outlettype" : [ "" ],
									"patching_rect" : [ 344.0, 15.0, 31.0, 20.0 ],
									"id" : "obj-57",
									"fontname" : "Arial",
									"numinlets" : 0,
									"numoutlets" : 1
								}

							}
, 							{
								"box" : 								{
									"maxclass" : "newobj",
									"text" : "r vY",
									"fontsize" : 12.0,
									"outlettype" : [ "" ],
									"patching_rect" : [ 426.0, 15.0, 32.0, 20.0 ],
									"id" : "obj-59",
									"fontname" : "Arial",
									"numinlets" : 0,
									"numoutlets" : 1
								}

							}
, 							{
								"box" : 								{
									"maxclass" : "newobj",
									"text" : "r vX",
									"fontsize" : 12.0,
									"outlettype" : [ "" ],
									"patching_rect" : [ 384.0, 15.0, 32.0, 20.0 ],
									"id" : "obj-61",
									"fontname" : "Arial",
									"numinlets" : 0,
									"numoutlets" : 1
								}

							}
, 							{
								"box" : 								{
									"maxclass" : "bpatcher",
									"varname" : "2toner-patch",
									"prototypename" : "pixl",
									"outlettype" : [ "jit_matrix" ],
									"args" : [  ],
									"bgmode" : 1,
									"patching_rect" : [ 305.0, 50.0, 260.0, 154.0 ],
									"id" : "obj-33",
									"name" : "2toner-patch.maxpat",
									"numinlets" : 7,
									"numoutlets" : 1
								}

							}
 ],
						"lines" : [ 							{
								"patchline" : 								{
									"source" : [ "obj-57", 0 ],
									"destination" : [ "obj-33", 1 ],
									"hidden" : 0,
									"midpoints" : [ 353.5, 42.0, 354.666656, 42.0 ]
								}

							}
, 							{
								"patchline" : 								{
									"source" : [ "obj-57", 0 ],
									"destination" : [ "obj-33", 6 ],
									"hidden" : 0,
									"midpoints" : [ 353.5, 42.0, 555.5, 42.0 ]
								}

							}
, 							{
								"patchline" : 								{
									"source" : [ "obj-59", 0 ],
									"destination" : [ "obj-33", 3 ],
									"hidden" : 0,
									"midpoints" : [ 435.5, 42.0, 435.0, 42.0 ]
								}

							}
, 							{
								"patchline" : 								{
									"source" : [ "obj-59", 0 ],
									"destination" : [ "obj-33", 4 ],
									"hidden" : 0,
									"midpoints" : [ 435.5, 42.0, 475.166656, 42.0 ]
								}

							}
, 							{
								"patchline" : 								{
									"source" : [ "obj-61", 0 ],
									"destination" : [ "obj-33", 2 ],
									"hidden" : 0,
									"midpoints" : [ 393.5, 42.0, 394.833344, 42.0 ]
								}

							}
, 							{
								"patchline" : 								{
									"source" : [ "obj-61", 0 ],
									"destination" : [ "obj-33", 5 ],
									"hidden" : 0,
									"midpoints" : [ 393.5, 42.0, 515.333313, 42.0 ]
								}

							}
, 							{
								"patchline" : 								{
									"source" : [ "obj-53", 0 ],
									"destination" : [ "obj-49", 4 ],
									"hidden" : 0,
									"midpoints" : [ 167.5, 42.5, 207.166672, 42.5 ]
								}

							}
, 							{
								"patchline" : 								{
									"source" : [ "obj-53", 0 ],
									"destination" : [ "obj-49", 3 ],
									"hidden" : 0,
									"midpoints" : [ 167.5, 42.5, 167.0, 42.5 ]
								}

							}
, 							{
								"patchline" : 								{
									"source" : [ "obj-51", 0 ],
									"destination" : [ "obj-49", 5 ],
									"hidden" : 0,
									"midpoints" : [ 126.5, 42.0, 247.333328, 42.0 ]
								}

							}
, 							{
								"patchline" : 								{
									"source" : [ "obj-51", 0 ],
									"destination" : [ "obj-49", 2 ],
									"hidden" : 0,
									"midpoints" : [ 126.5, 42.0, 126.833336, 42.0 ]
								}

							}
, 							{
								"patchline" : 								{
									"source" : [ "obj-55", 0 ],
									"destination" : [ "obj-49", 1 ],
									"hidden" : 0,
									"midpoints" : [ 86.5, 42.5, 86.666664, 42.5 ]
								}

							}
, 							{
								"patchline" : 								{
									"source" : [ "obj-55", 0 ],
									"destination" : [ "obj-49", 6 ],
									"hidden" : 0,
									"midpoints" : [ 86.5, 42.5, 287.5, 42.5 ]
								}

							}
 ]
					}
,
					"saved_object_attributes" : 					{
						"fontface" : 0,
						"fontsize" : 12.0,
						"default_fontface" : 0,
						"default_fontname" : "Arial",
						"fontname" : "Arial",
						"default_fontsize" : 12.0,
						"globalpatchername" : ""
					}

				}

			}
, 			{
				"box" : 				{
					"maxclass" : "newobj",
					"text" : "!- 1",
					"fontsize" : 12.0,
					"outlettype" : [ "int" ],
					"presentation_rect" : [ 654.0, 36.0, 32.5, 20.0 ],
					"patching_rect" : [ 544.0, 22.0, 32.5, 20.0 ],
					"presentation" : 1,
					"id" : "obj-68",
					"fontname" : "Arial",
					"numinlets" : 2,
					"numoutlets" : 1
				}

			}
, 			{
				"box" : 				{
					"maxclass" : "newobj",
					"text" : "s ---bypass",
					"fontsize" : 12.0,
					"presentation_rect" : [ 621.0, 60.0, 70.0, 20.0 ],
					"patching_rect" : [ 511.0, 46.0, 70.0, 20.0 ],
					"presentation" : 1,
					"id" : "obj-69",
					"fontname" : "Arial",
					"numinlets" : 1,
					"numoutlets" : 0
				}

			}
, 			{
				"box" : 				{
					"maxclass" : "toggle",
					"hint" : "Clicking on this button will disable the display windows of all Vizzie modules in your patch, although the modules will continue to process video. This may save you some CPU cycles in large patches.",
					"outlettype" : [ "int" ],
					"presentation_rect" : [ 628.0, 35.0, 20.0, 20.0 ],
					"checkedcolor" : [ 0.25098, 0.0, 0.0, 1.0 ],
					"bordercolor" : [ 0.25098, 0.0, 0.0, 1.0 ],
					"bgcolor" : [ 0.8, 0.501961, 0.501961, 1.0 ],
					"patching_rect" : [ 522.0, 23.0, 20.0, 20.0 ],
					"presentation" : 1,
					"id" : "obj-70",
					"numinlets" : 1,
					"numoutlets" : 1
				}

			}
, 			{
				"box" : 				{
					"maxclass" : "newobj",
					"text" : "r pY",
					"fontsize" : 12.0,
					"outlettype" : [ "" ],
					"patching_rect" : [ 224.0, 129.0, 33.0, 20.0 ],
					"id" : "obj-38",
					"fontname" : "Arial",
					"numinlets" : 0,
					"numoutlets" : 1
				}

			}
, 			{
				"box" : 				{
					"maxclass" : "newobj",
					"text" : "r pX",
					"fontsize" : 12.0,
					"outlettype" : [ "" ],
					"patching_rect" : [ 224.0, 336.0, 33.0, 20.0 ],
					"id" : "obj-8",
					"fontname" : "Arial",
					"numinlets" : 0,
					"numoutlets" : 1
				}

			}
, 			{
				"box" : 				{
					"maxclass" : "newobj",
					"text" : "- 1",
					"fontsize" : 12.0,
					"outlettype" : [ "int" ],
					"patching_rect" : [ 285.0, 39.0, 32.5, 20.0 ],
					"id" : "obj-5",
					"fontname" : "Arial",
					"numinlets" : 2,
					"numoutlets" : 1
				}

			}
, 			{
				"box" : 				{
					"maxclass" : "number",
					"fontsize" : 12.0,
					"outlettype" : [ "int", "bang" ],
					"patching_rect" : [ 175.0, 32.0, 50.0, 20.0 ],
					"id" : "obj-48",
					"fontname" : "Arial",
					"numinlets" : 1,
					"maximum" : 10,
					"numoutlets" : 2
				}

			}
, 			{
				"box" : 				{
					"maxclass" : "number",
					"fontsize" : 12.0,
					"outlettype" : [ "int", "bang" ],
					"patching_rect" : [ 363.0, 32.0, 50.0, 20.0 ],
					"id" : "obj-47",
					"fontname" : "Arial",
					"numinlets" : 1,
					"maximum" : 10,
					"numoutlets" : 2
				}

			}
, 			{
				"box" : 				{
					"maxclass" : "bpatcher",
					"outlettype" : [ "" ],
					"args" : [  ],
					"presentation_rect" : [ 264.0, 99.0, 243.0, 56.0 ],
					"patching_rect" : [ 259.0, 64.0, 243.0, 56.0 ],
					"presentation" : 1,
					"id" : "obj-45",
					"name" : "NWS_loadVid.maxpat",
					"numinlets" : 1,
					"numoutlets" : 1
				}

			}
, 			{
				"box" : 				{
					"maxclass" : "bpatcher",
					"outlettype" : [ "" ],
					"args" : [  ],
					"presentation_rect" : [ 22.0, 100.0, 243.0, 56.0 ],
					"patching_rect" : [ 17.0, 65.0, 243.0, 56.0 ],
					"presentation" : 1,
					"id" : "obj-44",
					"name" : "NWS_loadVid.maxpat",
					"numinlets" : 1,
					"numoutlets" : 1
				}

			}
, 			{
				"box" : 				{
					"maxclass" : "newobj",
					"text" : "p keySelect",
					"fontsize" : 12.0,
					"outlettype" : [ "" ],
					"patching_rect" : [ 84.0, 38.5, 73.0, 20.0 ],
					"id" : "obj-41",
					"fontname" : "Arial",
					"numinlets" : 0,
					"numoutlets" : 1,
					"patcher" : 					{
						"fileversion" : 1,
						"appversion" : 						{
							"major" : 5,
							"minor" : 1,
							"revision" : 9
						}
,
						"rect" : [ 0.0, 0.0, 640.0, 480.0 ],
						"bglocked" : 0,
						"defrect" : [ 0.0, 0.0, 640.0, 480.0 ],
						"openrect" : [ 0.0, 0.0, 0.0, 0.0 ],
						"openinpresentation" : 0,
						"default_fontsize" : 12.0,
						"default_fontface" : 0,
						"default_fontname" : "Arial",
						"gridonopen" : 0,
						"gridsize" : [ 15.0, 15.0 ],
						"gridsnaponopen" : 0,
						"toolbarvisible" : 1,
						"boxanimatetime" : 200,
						"imprint" : 0,
						"enablehscroll" : 1,
						"enablevscroll" : 1,
						"devicewidth" : 0.0,
						"boxes" : [ 							{
								"box" : 								{
									"maxclass" : "message",
									"text" : "dec",
									"fontsize" : 12.0,
									"outlettype" : [ "" ],
									"patching_rect" : [ 54.0, 128.5, 32.5, 18.0 ],
									"id" : "obj-37",
									"fontname" : "Arial",
									"numinlets" : 2,
									"numoutlets" : 1
								}

							}
, 							{
								"box" : 								{
									"maxclass" : "message",
									"text" : "inc",
									"fontsize" : 12.0,
									"outlettype" : [ "" ],
									"patching_rect" : [ 50.0, 106.5, 32.5, 18.0 ],
									"id" : "obj-23",
									"fontname" : "Arial",
									"numinlets" : 2,
									"numoutlets" : 1
								}

							}
, 							{
								"box" : 								{
									"maxclass" : "newobj",
									"text" : "key",
									"fontsize" : 11.595187,
									"outlettype" : [ "int", "int", "int", "int" ],
									"patching_rect" : [ 101.0, 101.5, 59.5, 20.0 ],
									"id" : "obj-10",
									"fontname" : "Arial",
									"numinlets" : 0,
									"numoutlets" : 4
								}

							}
, 							{
								"box" : 								{
									"maxclass" : "newobj",
									"text" : "select 29 28",
									"fontsize" : 11.595187,
									"outlettype" : [ "bang", "bang", "" ],
									"patching_rect" : [ 101.0, 126.833344, 73.0, 20.0 ],
									"id" : "obj-27",
									"fontname" : "Arial",
									"numinlets" : 1,
									"numoutlets" : 3
								}

							}
, 							{
								"box" : 								{
									"maxclass" : "outlet",
									"patching_rect" : [ 47.0, 213.0, 25.0, 25.0 ],
									"id" : "obj-40",
									"numinlets" : 1,
									"numoutlets" : 0,
									"comment" : ""
								}

							}
 ],
						"lines" : [ 							{
								"patchline" : 								{
									"source" : [ "obj-27", 0 ],
									"destination" : [ "obj-23", 0 ],
									"hidden" : 0,
									"midpoints" : [  ]
								}

							}
, 							{
								"patchline" : 								{
									"source" : [ "obj-10", 0 ],
									"destination" : [ "obj-27", 0 ],
									"hidden" : 0,
									"midpoints" : [  ]
								}

							}
, 							{
								"patchline" : 								{
									"source" : [ "obj-27", 1 ],
									"destination" : [ "obj-37", 0 ],
									"hidden" : 0,
									"midpoints" : [  ]
								}

							}
, 							{
								"patchline" : 								{
									"source" : [ "obj-23", 0 ],
									"destination" : [ "obj-40", 0 ],
									"hidden" : 0,
									"midpoints" : [  ]
								}

							}
, 							{
								"patchline" : 								{
									"source" : [ "obj-37", 0 ],
									"destination" : [ "obj-40", 0 ],
									"hidden" : 0,
									"midpoints" : [  ]
								}

							}
 ]
					}
,
					"saved_object_attributes" : 					{
						"fontface" : 0,
						"fontsize" : 12.0,
						"default_fontface" : 0,
						"default_fontname" : "Arial",
						"fontname" : "Arial",
						"default_fontsize" : 12.0,
						"globalpatchername" : ""
					}

				}

			}
, 			{
				"box" : 				{
					"maxclass" : "comment",
					"text" : "TOWER PATCH : LEFT AND RIGHT VIDEOS",
					"fontsize" : 16.0,
					"patching_rect" : [ 93.0, 6.0, 350.0, 25.0 ],
					"id" : "obj-39",
					"fontname" : "Arial",
					"numinlets" : 1,
					"numoutlets" : 0
				}

			}
, 			{
				"box" : 				{
					"maxclass" : "bpatcher",
					"args" : [  ],
					"presentation_rect" : [ 487.0, 209.0, 393.0, 277.0 ],
					"patching_rect" : [ 514.0, 174.0, 393.0, 277.0 ],
					"presentation" : 1,
					"id" : "obj-25",
					"name" : "oscReceiver.maxpat",
					"numinlets" : 0,
					"numoutlets" : 0
				}

			}
, 			{
				"box" : 				{
					"maxclass" : "newobj",
					"text" : "p esc-fullscreen",
					"fontsize" : 11.595187,
					"outlettype" : [ "" ],
					"patching_rect" : [ 177.824768, 744.958557, 90.0, 20.0 ],
					"id" : "obj-72",
					"fontname" : "Arial",
					"numinlets" : 0,
					"numoutlets" : 1,
					"patcher" : 					{
						"fileversion" : 1,
						"appversion" : 						{
							"major" : 5,
							"minor" : 1,
							"revision" : 9
						}
,
						"rect" : [ 86.0, 108.0, 235.0, 205.0 ],
						"bglocked" : 0,
						"defrect" : [ 86.0, 108.0, 235.0, 205.0 ],
						"openrect" : [ 0.0, 0.0, 0.0, 0.0 ],
						"openinpresentation" : 0,
						"default_fontsize" : 10.0,
						"default_fontface" : 0,
						"default_fontname" : "Arial",
						"gridonopen" : 0,
						"gridsize" : [ 15.0, 15.0 ],
						"gridsnaponopen" : 0,
						"toolbarvisible" : 1,
						"boxanimatetime" : 200,
						"imprint" : 0,
						"enablehscroll" : 1,
						"enablevscroll" : 1,
						"devicewidth" : 0.0,
						"boxes" : [ 							{
								"box" : 								{
									"maxclass" : "comment",
									"text" : "Escape ASCII Code",
									"fontsize" : 11.595187,
									"patching_rect" : [ 86.0, 67.0, 114.0, 20.0 ],
									"id" : "obj-7",
									"fontname" : "Arial",
									"numinlets" : 1,
									"numoutlets" : 0
								}

							}
, 							{
								"box" : 								{
									"maxclass" : "outlet",
									"patching_rect" : [ 27.0, 157.25, 25.0, 25.0 ],
									"id" : "obj-2",
									"numinlets" : 1,
									"numoutlets" : 0,
									"comment" : ""
								}

							}
, 							{
								"box" : 								{
									"maxclass" : "message",
									"text" : "fullscreen $1",
									"fontsize" : 11.595187,
									"outlettype" : [ "" ],
									"patching_rect" : [ 27.0, 127.25, 76.0, 18.0 ],
									"id" : "obj-3",
									"fontname" : "Arial",
									"numinlets" : 2,
									"numoutlets" : 1
								}

							}
, 							{
								"box" : 								{
									"maxclass" : "newobj",
									"text" : "key",
									"fontsize" : 11.595187,
									"outlettype" : [ "int", "int", "int", "int" ],
									"patching_rect" : [ 27.0, 37.0, 46.0, 20.0 ],
									"id" : "obj-4",
									"fontname" : "Arial",
									"numinlets" : 0,
									"numoutlets" : 4
								}

							}
, 							{
								"box" : 								{
									"maxclass" : "newobj",
									"text" : "select 27",
									"fontsize" : 11.595187,
									"outlettype" : [ "bang", "" ],
									"patching_rect" : [ 27.0, 67.25, 57.0, 20.0 ],
									"id" : "obj-5",
									"fontname" : "Arial",
									"numinlets" : 2,
									"numoutlets" : 2
								}

							}
, 							{
								"box" : 								{
									"maxclass" : "toggle",
									"outlettype" : [ "int" ],
									"patching_rect" : [ 27.0, 97.25, 20.0, 20.0 ],
									"id" : "obj-6",
									"numinlets" : 1,
									"numoutlets" : 1
								}

							}
 ],
						"lines" : [ 							{
								"patchline" : 								{
									"source" : [ "obj-4", 0 ],
									"destination" : [ "obj-5", 0 ],
									"hidden" : 0,
									"midpoints" : [  ]
								}

							}
, 							{
								"patchline" : 								{
									"source" : [ "obj-5", 0 ],
									"destination" : [ "obj-6", 0 ],
									"hidden" : 0,
									"midpoints" : [  ]
								}

							}
, 							{
								"patchline" : 								{
									"source" : [ "obj-6", 0 ],
									"destination" : [ "obj-3", 0 ],
									"hidden" : 0,
									"midpoints" : [  ]
								}

							}
, 							{
								"patchline" : 								{
									"source" : [ "obj-3", 0 ],
									"destination" : [ "obj-2", 0 ],
									"hidden" : 0,
									"midpoints" : [  ]
								}

							}
 ]
					}
,
					"saved_object_attributes" : 					{
						"fontface" : 0,
						"fontsize" : 10.0,
						"default_fontface" : 0,
						"default_fontname" : "Arial",
						"fontname" : "Arial",
						"default_fontsize" : 10.0,
						"globalpatchername" : ""
					}

				}

			}
, 			{
				"box" : 				{
					"maxclass" : "newobj",
					"text" : "jit.window left-screen @size 960 720",
					"fontsize" : 12.0,
					"outlettype" : [ "bang", "" ],
					"patching_rect" : [ 178.0, 782.0, 205.0, 20.0 ],
					"id" : "obj-29",
					"fontname" : "Arial",
					"numinlets" : 1,
					"numoutlets" : 2
				}

			}
, 			{
				"box" : 				{
					"maxclass" : "bpatcher",
					"prototypename" : "pixl",
					"args" : [  ],
					"presentation_rect" : [ 590.0, 81.0, 140.0, 94.0 ],
					"bgmode" : 1,
					"patching_rect" : [ 596.0, 16.0, 140.0, 94.0 ],
					"presentation" : 1,
					"id" : "obj-24",
					"name" : "startr-patch.maxpat",
					"numinlets" : 0,
					"numoutlets" : 0
				}

			}
, 			{
				"box" : 				{
					"maxclass" : "bpatcher",
					"varname" : "xfadr-patch",
					"prototypename" : "pixl",
					"outlettype" : [ "jit_matrix" ],
					"args" : [  ],
					"presentation_rect" : [ 128.0, 368.0, 248.0, 140.0 ],
					"bgmode" : 1,
					"patching_rect" : [ 22.0, 381.0, 248.0, 140.0 ],
					"presentation" : 1,
					"id" : "obj-34",
					"name" : "xfadr-patch.maxpat",
					"numinlets" : 3,
					"numoutlets" : 1
				}

			}
, 			{
				"box" : 				{
					"maxclass" : "newobj",
					"fontsize" : 12.0,
					"presentation_rect" : [ 208.0, 456.0, 100.0, 20.0 ],
					"patching_rect" : [ 145.0, 461.0, 100.0, 20.0 ],
					"presentation" : 1,
					"id" : "obj-15",
					"fontname" : "Arial",
					"numinlets" : 0,
					"numoutlets" : 0
				}

			}
, 			{
				"box" : 				{
					"maxclass" : "incdec",
					"outlettype" : [ "float" ],
					"presentation_rect" : [ 522.0, 102.0, 39.0, 44.0 ],
					"patching_rect" : [ 26.0, 14.0, 39.0, 44.0 ],
					"presentation" : 1,
					"id" : "obj-13",
					"numinlets" : 1,
					"numoutlets" : 1
				}

			}
, 			{
				"box" : 				{
					"maxclass" : "bpatcher",
					"prototypename" : "pixl",
					"outlettype" : [ "jit_matrix", "" ],
					"args" : [  ],
					"presentation_rect" : [ 266.0, 159.0, 180.0, 208.0 ],
					"bgmode" : 1,
					"patching_rect" : [ 264.0, 163.0, 180.0, 208.0 ],
					"presentation" : 1,
					"id" : "obj-7",
					"name" : "NWS_playerNoPrev.maxpat",
					"numinlets" : 4,
					"numoutlets" : 2
				}

			}
, 			{
				"box" : 				{
					"maxclass" : "bpatcher",
					"prototypename" : "pixl",
					"outlettype" : [ "jit_matrix", "" ],
					"args" : [  ],
					"presentation_rect" : [ 85.0, 158.0, 180.0, 208.0 ],
					"bgmode" : 1,
					"patching_rect" : [ 22.0, 163.0, 180.0, 208.0 ],
					"presentation" : 1,
					"id" : "obj-6",
					"name" : "NWS_playerNoPrev.maxpat",
					"numinlets" : 4,
					"numoutlets" : 2
				}

			}
, 			{
				"box" : 				{
					"maxclass" : "panel",
					"border" : 4,
					"presentation_rect" : [ 941.0, 93.0, 258.0, 119.0 ],
					"patching_rect" : [ 1003.0, 125.0, 228.0, 213.0 ],
					"presentation" : 1,
					"id" : "obj-54",
					"numinlets" : 1,
					"numoutlets" : 0
				}

			}
, 			{
				"box" : 				{
					"maxclass" : "panel",
					"border" : 4,
					"presentation_rect" : [ 916.0, 264.0, 359.0, 174.0 ],
					"patching_rect" : [ 112.0, 540.0, 228.0, 213.0 ],
					"presentation" : 1,
					"id" : "obj-66",
					"numinlets" : 1,
					"numoutlets" : 0
				}

			}
, 			{
				"box" : 				{
					"maxclass" : "button",
					"outlettype" : [ "bang" ],
					"presentation_rect" : [ 920.0, 228.0, 22.0, 22.0 ],
					"patching_rect" : [ 489.0, 521.0, 51.0, 51.0 ],
					"presentation" : 1,
					"id" : "obj-67",
					"numinlets" : 1,
					"numoutlets" : 1
				}

			}
, 			{
				"box" : 				{
					"maxclass" : "panel",
					"border" : 6,
					"presentation_rect" : [ 3.0, 4.0, 1330.0, 535.0 ],
					"bgcolor" : [ 0.768627, 0.964706, 1.0, 1.0 ],
					"patching_rect" : [ 758.0, 738.0, 128.0, 128.0 ],
					"presentation" : 1,
					"id" : "obj-19",
					"numinlets" : 1,
					"numoutlets" : 0
				}

			}
 ],
		"lines" : [ 			{
				"patchline" : 				{
					"source" : [ "obj-91", 0 ],
					"destination" : [ "obj-80", 0 ],
					"hidden" : 0,
					"midpoints" : [  ]
				}

			}
, 			{
				"patchline" : 				{
					"source" : [ "obj-93", 0 ],
					"destination" : [ "obj-80", 0 ],
					"hidden" : 0,
					"midpoints" : [  ]
				}

			}
, 			{
				"patchline" : 				{
					"source" : [ "obj-95", 0 ],
					"destination" : [ "obj-80", 0 ],
					"hidden" : 0,
					"midpoints" : [  ]
				}

			}
, 			{
				"patchline" : 				{
					"source" : [ "obj-97", 0 ],
					"destination" : [ "obj-80", 0 ],
					"hidden" : 0,
					"midpoints" : [  ]
				}

			}
, 			{
				"patchline" : 				{
					"source" : [ "obj-46", 0 ],
					"destination" : [ "obj-97", 0 ],
					"hidden" : 0,
					"midpoints" : [  ]
				}

			}
, 			{
				"patchline" : 				{
					"source" : [ "obj-75", 0 ],
					"destination" : [ "obj-95", 0 ],
					"hidden" : 0,
					"midpoints" : [  ]
				}

			}
, 			{
				"patchline" : 				{
					"source" : [ "obj-56", 0 ],
					"destination" : [ "obj-93", 0 ],
					"hidden" : 0,
					"midpoints" : [  ]
				}

			}
, 			{
				"patchline" : 				{
					"source" : [ "obj-57", 0 ],
					"destination" : [ "obj-91", 0 ],
					"hidden" : 0,
					"midpoints" : [  ]
				}

			}
, 			{
				"patchline" : 				{
					"source" : [ "obj-4", 4 ],
					"destination" : [ "obj-46", 0 ],
					"hidden" : 0,
					"midpoints" : [  ]
				}

			}
, 			{
				"patchline" : 				{
					"source" : [ "obj-4", 3 ],
					"destination" : [ "obj-75", 0 ],
					"hidden" : 0,
					"midpoints" : [  ]
				}

			}
, 			{
				"patchline" : 				{
					"source" : [ "obj-87", 0 ],
					"destination" : [ "obj-23", 1 ],
					"hidden" : 0,
					"midpoints" : [  ]
				}

			}
, 			{
				"patchline" : 				{
					"source" : [ "obj-85", 0 ],
					"destination" : [ "obj-23", 0 ],
					"hidden" : 0,
					"midpoints" : [  ]
				}

			}
, 			{
				"patchline" : 				{
					"source" : [ "obj-86", 0 ],
					"destination" : [ "obj-87", 0 ],
					"hidden" : 0,
					"midpoints" : [  ]
				}

			}
, 			{
				"patchline" : 				{
					"source" : [ "obj-84", 0 ],
					"destination" : [ "obj-85", 0 ],
					"hidden" : 0,
					"midpoints" : [  ]
				}

			}
, 			{
				"patchline" : 				{
					"source" : [ "obj-27", 0 ],
					"destination" : [ "obj-81", 0 ],
					"hidden" : 0,
					"midpoints" : [  ]
				}

			}
, 			{
				"patchline" : 				{
					"source" : [ "obj-77", 0 ],
					"destination" : [ "obj-14", 0 ],
					"hidden" : 0,
					"midpoints" : [  ]
				}

			}
, 			{
				"patchline" : 				{
					"source" : [ "obj-38", 0 ],
					"destination" : [ "obj-6", 0 ],
					"hidden" : 0,
					"midpoints" : [ 233.5, 155.5, 31.5, 155.5 ]
				}

			}
, 			{
				"patchline" : 				{
					"source" : [ "obj-6", 0 ],
					"destination" : [ "obj-34", 0 ],
					"hidden" : 0,
					"midpoints" : [  ]
				}

			}
, 			{
				"patchline" : 				{
					"source" : [ "obj-44", 0 ],
					"destination" : [ "obj-6", 3 ],
					"hidden" : 0,
					"midpoints" : [ 26.5, 126.5, 192.5, 126.5 ]
				}

			}
, 			{
				"patchline" : 				{
					"source" : [ "obj-73", 0 ],
					"destination" : [ "obj-62", 0 ],
					"hidden" : 0,
					"midpoints" : [  ]
				}

			}
, 			{
				"patchline" : 				{
					"source" : [ "obj-67", 0 ],
					"destination" : [ "obj-73", 0 ],
					"hidden" : 0,
					"midpoints" : [  ]
				}

			}
, 			{
				"patchline" : 				{
					"source" : [ "obj-63", 0 ],
					"destination" : [ "obj-62", 0 ],
					"hidden" : 0,
					"midpoints" : [  ]
				}

			}
, 			{
				"patchline" : 				{
					"source" : [ "obj-62", 0 ],
					"destination" : [ "obj-63", 0 ],
					"hidden" : 0,
					"midpoints" : [  ]
				}

			}
, 			{
				"patchline" : 				{
					"source" : [ "obj-63", 0 ],
					"destination" : [ "obj-4", 0 ],
					"hidden" : 0,
					"midpoints" : [  ]
				}

			}
, 			{
				"patchline" : 				{
					"source" : [ "obj-4", 6 ],
					"destination" : [ "obj-36", 0 ],
					"hidden" : 0,
					"midpoints" : [  ]
				}

			}
, 			{
				"patchline" : 				{
					"source" : [ "obj-4", 5 ],
					"destination" : [ "obj-40", 0 ],
					"hidden" : 0,
					"midpoints" : [  ]
				}

			}
, 			{
				"patchline" : 				{
					"source" : [ "obj-4", 2 ],
					"destination" : [ "obj-56", 0 ],
					"hidden" : 0,
					"midpoints" : [  ]
				}

			}
, 			{
				"patchline" : 				{
					"source" : [ "obj-4", 1 ],
					"destination" : [ "obj-57", 0 ],
					"hidden" : 0,
					"midpoints" : [  ]
				}

			}
, 			{
				"patchline" : 				{
					"source" : [ "obj-4", 0 ],
					"destination" : [ "obj-55", 0 ],
					"hidden" : 0,
					"midpoints" : [  ]
				}

			}
, 			{
				"patchline" : 				{
					"source" : [ "obj-3", 0 ],
					"destination" : [ "obj-28", 0 ],
					"hidden" : 0,
					"midpoints" : [  ]
				}

			}
, 			{
				"patchline" : 				{
					"source" : [ "obj-22", 0 ],
					"destination" : [ "obj-27", 0 ],
					"hidden" : 0,
					"midpoints" : [  ]
				}

			}
, 			{
				"patchline" : 				{
					"source" : [ "obj-2", 0 ],
					"destination" : [ "obj-34", 2 ],
					"hidden" : 0,
					"midpoints" : [  ]
				}

			}
, 			{
				"patchline" : 				{
					"source" : [ "obj-48", 0 ],
					"destination" : [ "obj-44", 0 ],
					"hidden" : 0,
					"midpoints" : [ 184.5, 58.0, 26.5, 58.0 ]
				}

			}
, 			{
				"patchline" : 				{
					"source" : [ "obj-47", 0 ],
					"destination" : [ "obj-45", 0 ],
					"hidden" : 0,
					"midpoints" : [ 372.5, 62.5, 268.5, 62.5 ]
				}

			}
, 			{
				"patchline" : 				{
					"source" : [ "obj-45", 0 ],
					"destination" : [ "obj-7", 3 ],
					"hidden" : 0,
					"midpoints" : [ 268.5, 124.0, 434.5, 124.0 ]
				}

			}
, 			{
				"patchline" : 				{
					"source" : [ "obj-34", 0 ],
					"destination" : [ "obj-29", 0 ],
					"hidden" : 0,
					"midpoints" : [ 31.5, 776.0, 187.5, 776.0 ]
				}

			}
, 			{
				"patchline" : 				{
					"source" : [ "obj-72", 0 ],
					"destination" : [ "obj-29", 0 ],
					"hidden" : 0,
					"midpoints" : [  ]
				}

			}
, 			{
				"patchline" : 				{
					"source" : [ "obj-13", 0 ],
					"destination" : [ "obj-48", 0 ],
					"hidden" : 0,
					"midpoints" : [ 35.5, 67.0, 170.0, 67.0, 170.0, 29.0, 184.5, 29.0 ]
				}

			}
, 			{
				"patchline" : 				{
					"source" : [ "obj-41", 0 ],
					"destination" : [ "obj-13", 0 ],
					"hidden" : 0,
					"midpoints" : [ 93.5, 62.5, 79.5, 62.5, 79.5, 7.0, 35.5, 7.0 ]
				}

			}
, 			{
				"patchline" : 				{
					"source" : [ "obj-48", 0 ],
					"destination" : [ "obj-5", 0 ],
					"hidden" : 0,
					"midpoints" : [ 184.5, 61.0, 281.5, 61.0, 281.5, 29.0, 294.5, 29.0 ]
				}

			}
, 			{
				"patchline" : 				{
					"source" : [ "obj-5", 0 ],
					"destination" : [ "obj-47", 0 ],
					"hidden" : 0,
					"midpoints" : [ 294.5, 68.0, 359.5, 68.0, 359.5, 22.0, 372.5, 22.0 ]
				}

			}
, 			{
				"patchline" : 				{
					"source" : [ "obj-68", 0 ],
					"destination" : [ "obj-69", 0 ],
					"hidden" : 0,
					"midpoints" : [ 553.5, 43.5, 520.5, 43.5 ]
				}

			}
, 			{
				"patchline" : 				{
					"source" : [ "obj-70", 0 ],
					"destination" : [ "obj-68", 0 ],
					"hidden" : 0,
					"midpoints" : [ 531.5, 46.0, 542.5, 46.0, 542.5, 18.0, 553.5, 18.0 ]
				}

			}
, 			{
				"patchline" : 				{
					"source" : [ "obj-7", 0 ],
					"destination" : [ "obj-34", 1 ],
					"hidden" : 0,
					"midpoints" : [ 273.5, 375.5, 146.0, 375.5 ]
				}

			}
, 			{
				"patchline" : 				{
					"source" : [ "obj-8", 0 ],
					"destination" : [ "obj-34", 2 ],
					"hidden" : 0,
					"midpoints" : [ 233.5, 368.0, 260.5, 368.0 ]
				}

			}
, 			{
				"patchline" : 				{
					"source" : [ "obj-38", 0 ],
					"destination" : [ "obj-7", 0 ],
					"hidden" : 0,
					"midpoints" : [ 233.5, 155.5, 273.5, 155.5 ]
				}

			}
, 			{
				"patchline" : 				{
					"source" : [ "obj-47", 0 ],
					"destination" : [ "obj-10", 0 ],
					"hidden" : 0,
					"midpoints" : [  ]
				}

			}
, 			{
				"patchline" : 				{
					"source" : [ "obj-28", 0 ],
					"destination" : [ "obj-22", 1 ],
					"hidden" : 0,
					"midpoints" : [  ]
				}

			}
, 			{
				"patchline" : 				{
					"source" : [ "obj-37", 0 ],
					"destination" : [ "obj-22", 0 ],
					"hidden" : 0,
					"midpoints" : [  ]
				}

			}
, 			{
				"patchline" : 				{
					"source" : [ "obj-58", 0 ],
					"destination" : [ "obj-63", 0 ],
					"hidden" : 0,
					"midpoints" : [  ]
				}

			}
, 			{
				"patchline" : 				{
					"source" : [ "obj-16", 0 ],
					"destination" : [ "obj-67", 0 ],
					"hidden" : 0,
					"midpoints" : [  ]
				}

			}
, 			{
				"patchline" : 				{
					"source" : [ "obj-55", 0 ],
					"destination" : [ "obj-21", 0 ],
					"hidden" : 0,
					"midpoints" : [  ]
				}

			}
, 			{
				"patchline" : 				{
					"source" : [ "obj-12", 0 ],
					"destination" : [ "obj-87", 0 ],
					"hidden" : 0,
					"midpoints" : [  ]
				}

			}
, 			{
				"patchline" : 				{
					"source" : [ "obj-23", 0 ],
					"destination" : [ "obj-77", 0 ],
					"hidden" : 0,
					"midpoints" : [  ]
				}

			}
, 			{
				"patchline" : 				{
					"source" : [ "obj-26", 0 ],
					"destination" : [ "obj-49", 0 ],
					"hidden" : 0,
					"midpoints" : [  ]
				}

			}
, 			{
				"patchline" : 				{
					"source" : [ "obj-71", 0 ],
					"destination" : [ "obj-65", 0 ],
					"hidden" : 0,
					"midpoints" : [  ]
				}

			}
, 			{
				"patchline" : 				{
					"source" : [ "obj-74", 0 ],
					"destination" : [ "obj-71", 0 ],
					"hidden" : 0,
					"midpoints" : [  ]
				}

			}
, 			{
				"patchline" : 				{
					"source" : [ "obj-79", 0 ],
					"destination" : [ "obj-26", 0 ],
					"hidden" : 0,
					"midpoints" : [  ]
				}

			}
, 			{
				"patchline" : 				{
					"source" : [ "obj-83", 0 ],
					"destination" : [ "obj-90", 0 ],
					"hidden" : 0,
					"midpoints" : [  ]
				}

			}
, 			{
				"patchline" : 				{
					"source" : [ "obj-92", 0 ],
					"destination" : [ "obj-83", 0 ],
					"hidden" : 0,
					"midpoints" : [  ]
				}

			}
, 			{
				"patchline" : 				{
					"source" : [ "obj-65", 0 ],
					"destination" : [ "obj-92", 0 ],
					"hidden" : 0,
					"midpoints" : [  ]
				}

			}
, 			{
				"patchline" : 				{
					"source" : [ "obj-65", 0 ],
					"destination" : [ "obj-90", 1 ],
					"hidden" : 0,
					"midpoints" : [  ]
				}

			}
, 			{
				"patchline" : 				{
					"source" : [ "obj-90", 0 ],
					"destination" : [ "obj-94", 0 ],
					"hidden" : 0,
					"midpoints" : [  ]
				}

			}
, 			{
				"patchline" : 				{
					"source" : [ "obj-90", 1 ],
					"destination" : [ "obj-96", 0 ],
					"hidden" : 0,
					"midpoints" : [  ]
				}

			}
 ]
	}

}
