{
	"patcher" : 	{
		"fileversion" : 1,
		"appversion" : 		{
			"major" : 5,
			"minor" : 1,
			"revision" : 9
		}
,
		"rect" : [ 494.0, 83.0, 1958.0, 1353.0 ],
		"bglocked" : 0,
		"defrect" : [ 494.0, 83.0, 1958.0, 1353.0 ],
		"openrect" : [ 0.0, 0.0, 0.0, 0.0 ],
		"openinpresentation" : 1,
		"default_fontsize" : 12.0,
		"default_fontface" : 0,
		"default_fontname" : "Arial",
		"gridonopen" : 0,
		"gridsize" : [ 15.0, 15.0 ],
		"gridsnaponopen" : 0,
		"toolbarvisible" : 1,
		"boxanimatetime" : 200,
		"imprint" : 0,
		"enablehscroll" : 1,
		"enablevscroll" : 1,
		"devicewidth" : 0.0,
		"boxes" : [ 			{
				"box" : 				{
					"maxclass" : "bpatcher",
					"varname" : "chromakeyr[1]",
					"prototypename" : "pixl",
					"id" : "obj-22",
					"name" : "alphablendr-patch.maxpat",
					"numoutlets" : 1,
					"outlettype" : [ "" ],
					"args" : [  ],
					"bgmode" : 1,
					"patching_rect" : [ 615.0, 450.0, 250.0, 154.0 ],
					"numinlets" : 4
				}

			}
, 			{
				"box" : 				{
					"maxclass" : "bpatcher",
					"varname" : "pannr-patch",
					"prototypename" : "pixl",
					"id" : "obj-10",
					"name" : "pannr-patch.maxpat",
					"numoutlets" : 1,
					"outlettype" : [ "jit_matrix" ],
					"args" : [  ],
					"bgmode" : 1,
					"patching_rect" : [ 1034.0, 472.0, 250.0, 154.0 ],
					"numinlets" : 3
				}

			}
, 			{
				"box" : 				{
					"maxclass" : "bpatcher",
					"varname" : "sketchr-patch",
					"prototypename" : "pixl",
					"id" : "obj-15",
					"name" : "sketchr-patch.maxpat",
					"numoutlets" : 1,
					"outlettype" : [ "jit_matrix" ],
					"args" : [  ],
					"bgmode" : 1,
					"patching_rect" : [ 840.0, 240.0, 250.0, 154.0 ],
					"numinlets" : 2
				}

			}
, 			{
				"box" : 				{
					"maxclass" : "bpatcher",
					"varname" : "pixl8r-patch",
					"prototypename" : "pixl",
					"id" : "obj-7",
					"name" : "pixl8r-patch.maxpat",
					"numoutlets" : 1,
					"outlettype" : [ "jit_matrix" ],
					"args" : [  ],
					"bgmode" : 1,
					"patching_rect" : [ 570.0, 210.0, 250.0, 154.0 ],
					"numinlets" : 3
				}

			}
, 			{
				"box" : 				{
					"maxclass" : "newobj",
					"text" : "p esc-fullscreen",
					"id" : "obj-72",
					"fontname" : "Arial",
					"numoutlets" : 1,
					"outlettype" : [ "" ],
					"fontsize" : 11.595187,
					"patching_rect" : [ 374.824768, 577.958557, 90.0, 20.0 ],
					"numinlets" : 0,
					"patcher" : 					{
						"fileversion" : 1,
						"appversion" : 						{
							"major" : 5,
							"minor" : 1,
							"revision" : 9
						}
,
						"rect" : [ 86.0, 108.0, 235.0, 205.0 ],
						"bglocked" : 0,
						"defrect" : [ 86.0, 108.0, 235.0, 205.0 ],
						"openrect" : [ 0.0, 0.0, 0.0, 0.0 ],
						"openinpresentation" : 0,
						"default_fontsize" : 10.0,
						"default_fontface" : 0,
						"default_fontname" : "Arial",
						"gridonopen" : 0,
						"gridsize" : [ 15.0, 15.0 ],
						"gridsnaponopen" : 0,
						"toolbarvisible" : 1,
						"boxanimatetime" : 200,
						"imprint" : 0,
						"enablehscroll" : 1,
						"enablevscroll" : 1,
						"devicewidth" : 0.0,
						"boxes" : [ 							{
								"box" : 								{
									"maxclass" : "comment",
									"text" : "Escape ASCII Code",
									"id" : "obj-7",
									"fontname" : "Arial",
									"numoutlets" : 0,
									"fontsize" : 11.595187,
									"patching_rect" : [ 86.0, 67.0, 114.0, 20.0 ],
									"numinlets" : 1
								}

							}
, 							{
								"box" : 								{
									"maxclass" : "outlet",
									"id" : "obj-2",
									"numoutlets" : 0,
									"patching_rect" : [ 27.0, 157.25, 25.0, 25.0 ],
									"numinlets" : 1,
									"comment" : ""
								}

							}
, 							{
								"box" : 								{
									"maxclass" : "message",
									"text" : "fullscreen $1",
									"id" : "obj-3",
									"fontname" : "Arial",
									"numoutlets" : 1,
									"outlettype" : [ "" ],
									"fontsize" : 11.595187,
									"patching_rect" : [ 27.0, 127.25, 76.0, 18.0 ],
									"numinlets" : 2
								}

							}
, 							{
								"box" : 								{
									"maxclass" : "newobj",
									"text" : "key",
									"id" : "obj-4",
									"fontname" : "Arial",
									"numoutlets" : 4,
									"outlettype" : [ "int", "int", "int", "int" ],
									"fontsize" : 11.595187,
									"patching_rect" : [ 27.0, 37.0, 46.0, 20.0 ],
									"numinlets" : 0
								}

							}
, 							{
								"box" : 								{
									"maxclass" : "newobj",
									"text" : "select 27",
									"id" : "obj-5",
									"fontname" : "Arial",
									"numoutlets" : 2,
									"outlettype" : [ "bang", "" ],
									"fontsize" : 11.595187,
									"patching_rect" : [ 27.0, 67.25, 57.0, 20.0 ],
									"numinlets" : 2
								}

							}
, 							{
								"box" : 								{
									"maxclass" : "toggle",
									"id" : "obj-6",
									"numoutlets" : 1,
									"outlettype" : [ "int" ],
									"patching_rect" : [ 27.0, 97.25, 20.0, 20.0 ],
									"numinlets" : 1
								}

							}
 ],
						"lines" : [ 							{
								"patchline" : 								{
									"source" : [ "obj-4", 0 ],
									"destination" : [ "obj-5", 0 ],
									"hidden" : 0,
									"midpoints" : [  ]
								}

							}
, 							{
								"patchline" : 								{
									"source" : [ "obj-5", 0 ],
									"destination" : [ "obj-6", 0 ],
									"hidden" : 0,
									"midpoints" : [  ]
								}

							}
, 							{
								"patchline" : 								{
									"source" : [ "obj-6", 0 ],
									"destination" : [ "obj-3", 0 ],
									"hidden" : 0,
									"midpoints" : [  ]
								}

							}
, 							{
								"patchline" : 								{
									"source" : [ "obj-3", 0 ],
									"destination" : [ "obj-2", 0 ],
									"hidden" : 0,
									"midpoints" : [  ]
								}

							}
 ]
					}
,
					"saved_object_attributes" : 					{
						"fontname" : "Arial",
						"default_fontsize" : 10.0,
						"globalpatchername" : "",
						"fontface" : 0,
						"fontsize" : 10.0,
						"default_fontface" : 0,
						"default_fontname" : "Arial"
					}

				}

			}
, 			{
				"box" : 				{
					"maxclass" : "newobj",
					"text" : "jit.window preview @size 960 720",
					"id" : "obj-29",
					"fontname" : "Arial",
					"numoutlets" : 2,
					"outlettype" : [ "bang", "" ],
					"fontsize" : 12.0,
					"patching_rect" : [ 375.0, 615.0, 191.0, 20.0 ],
					"numinlets" : 1
				}

			}
, 			{
				"box" : 				{
					"maxclass" : "jit.pwindow",
					"id" : "obj-6",
					"numoutlets" : 2,
					"outlettype" : [ "", "" ],
					"presentation_rect" : [ 694.0, 614.0, 0.0, 0.0 ],
					"patching_rect" : [ 630.0, 615.0, 257.5, 184.4776 ],
					"numinlets" : 1
				}

			}
, 			{
				"box" : 				{
					"maxclass" : "bpatcher",
					"id" : "obj-3",
					"name" : "NWS_playerNoPrev.maxpat",
					"numoutlets" : 2,
					"outlettype" : [ "jit_matrix", "" ],
					"args" : [  ],
					"presentation_rect" : [ 329.0, 144.0, 181.0, 211.0 ],
					"patching_rect" : [ 330.0, 150.0, 181.0, 211.0 ],
					"numinlets" : 4,
					"presentation" : 1
				}

			}
, 			{
				"box" : 				{
					"maxclass" : "bpatcher",
					"id" : "obj-2",
					"name" : "NWS_playerNoPrev.maxpat",
					"numoutlets" : 2,
					"outlettype" : [ "jit_matrix", "" ],
					"args" : [  ],
					"presentation_rect" : [ 360.0, 345.0, 181.0, 211.0 ],
					"patching_rect" : [ 45.0, 150.0, 181.0, 211.0 ],
					"numinlets" : 4,
					"presentation" : 1
				}

			}
, 			{
				"box" : 				{
					"maxclass" : "bpatcher",
					"varname" : "chromakeyr",
					"prototypename" : "pixl",
					"id" : "obj-51",
					"name" : "chromakeyr-patch.maxpat",
					"numoutlets" : 4,
					"outlettype" : [ "jit_matrix", "", "", "" ],
					"args" : [  ],
					"bgmode" : 1,
					"patching_rect" : [ 30.0, 435.0, 330.0, 154.0 ],
					"numinlets" : 7
				}

			}
, 			{
				"box" : 				{
					"maxclass" : "jit.pwindow",
					"id" : "obj-40",
					"numoutlets" : 2,
					"outlettype" : [ "", "" ],
					"patching_rect" : [ 30.0, 615.0, 275.645813, 197.4776 ],
					"numinlets" : 1
				}

			}
, 			{
				"box" : 				{
					"maxclass" : "newobj",
					"text" : "p vidLists",
					"id" : "obj-4",
					"fontname" : "Arial",
					"numoutlets" : 0,
					"fontsize" : 12.0,
					"patching_rect" : [ 803.0, 73.0, 61.0, 20.0 ],
					"numinlets" : 0,
					"patcher" : 					{
						"fileversion" : 1,
						"appversion" : 						{
							"major" : 5,
							"minor" : 1,
							"revision" : 9
						}
,
						"rect" : [ 663.0, 140.0, 640.0, 480.0 ],
						"bglocked" : 0,
						"defrect" : [ 663.0, 140.0, 640.0, 480.0 ],
						"openrect" : [ 0.0, 0.0, 0.0, 0.0 ],
						"openinpresentation" : 0,
						"default_fontsize" : 12.0,
						"default_fontface" : 0,
						"default_fontname" : "Arial",
						"gridonopen" : 0,
						"gridsize" : [ 15.0, 15.0 ],
						"gridsnaponopen" : 0,
						"toolbarvisible" : 1,
						"boxanimatetime" : 200,
						"imprint" : 0,
						"enablehscroll" : 1,
						"enablevscroll" : 1,
						"devicewidth" : 0.0,
						"boxes" : [ 							{
								"box" : 								{
									"maxclass" : "message",
									"text" : "append \\$1",
									"id" : "obj-10",
									"fontname" : "Arial",
									"numoutlets" : 1,
									"outlettype" : [ "" ],
									"fontsize" : 12.0,
									"patching_rect" : [ 445.0, 109.0, 71.0, 18.0 ],
									"numinlets" : 2
								}

							}
, 							{
								"box" : 								{
									"maxclass" : "number",
									"id" : "obj-53",
									"fontname" : "Arial",
									"numoutlets" : 2,
									"outlettype" : [ "int", "bang" ],
									"fontsize" : 12.0,
									"patching_rect" : [ 462.0, 67.0, 50.0, 20.0 ],
									"numinlets" : 1
								}

							}
, 							{
								"box" : 								{
									"maxclass" : "message",
									"text" : "read ./NWS/vidLists/violin/",
									"id" : "obj-52",
									"fontname" : "Arial",
									"numoutlets" : 1,
									"outlettype" : [ "" ],
									"fontsize" : 12.0,
									"patching_rect" : [ 451.0, 144.0, 150.0, 18.0 ],
									"numinlets" : 2
								}

							}
, 							{
								"box" : 								{
									"maxclass" : "newobj",
									"text" : "print",
									"id" : "obj-46",
									"fontname" : "Arial",
									"numoutlets" : 0,
									"fontsize" : 12.0,
									"patching_rect" : [ 507.0, 184.0, 34.0, 20.0 ],
									"numinlets" : 1
								}

							}
, 							{
								"box" : 								{
									"maxclass" : "newobj",
									"text" : "coll pianoVids",
									"id" : "obj-2",
									"fontname" : "Arial",
									"numoutlets" : 4,
									"outlettype" : [ "", "", "", "" ],
									"fontsize" : 12.0,
									"patching_rect" : [ 15.0, 15.0, 84.0, 20.0 ],
									"numinlets" : 1,
									"saved_object_attributes" : 									{
										"embed" : 0
									}

								}

							}
, 							{
								"box" : 								{
									"maxclass" : "message",
									"text" : "read ./NWS/vidLists/violin/$1 -271",
									"id" : "obj-51",
									"fontname" : "Arial",
									"numoutlets" : 1,
									"outlettype" : [ "" ],
									"fontsize" : 12.0,
									"patching_rect" : [ 50.0, 256.0, 206.0, 18.0 ],
									"numinlets" : 2
								}

							}
, 							{
								"box" : 								{
									"maxclass" : "number",
									"id" : "obj-49",
									"fontname" : "Arial",
									"numoutlets" : 2,
									"outlettype" : [ "int", "bang" ],
									"fontsize" : 12.0,
									"patching_rect" : [ 89.0, 174.0, 50.0, 20.0 ],
									"numinlets" : 1
								}

							}
, 							{
								"box" : 								{
									"maxclass" : "newobj",
									"text" : "print",
									"id" : "obj-37",
									"fontname" : "Arial",
									"numoutlets" : 0,
									"fontsize" : 12.0,
									"patching_rect" : [ 331.0, 180.0, 34.0, 20.0 ],
									"numinlets" : 1
								}

							}
, 							{
								"box" : 								{
									"maxclass" : "number",
									"id" : "obj-35",
									"fontname" : "Arial",
									"numoutlets" : 2,
									"outlettype" : [ "int", "bang" ],
									"fontsize" : 12.0,
									"patching_rect" : [ 262.0, 100.0, 50.0, 20.0 ],
									"numinlets" : 1
								}

							}
, 							{
								"box" : 								{
									"maxclass" : "newobj",
									"text" : "prepend set read ./NWS/vidLists/violin/$1",
									"id" : "obj-33",
									"fontname" : "Arial",
									"numoutlets" : 1,
									"outlettype" : [ "" ],
									"fontsize" : 12.0,
									"patching_rect" : [ 60.0, 223.0, 230.0, 20.0 ],
									"numinlets" : 1
								}

							}
, 							{
								"box" : 								{
									"maxclass" : "message",
									"text" : "$1",
									"id" : "obj-32",
									"fontname" : "Arial",
									"numoutlets" : 1,
									"outlettype" : [ "" ],
									"fontsize" : 12.0,
									"patching_rect" : [ 319.0, 140.0, 32.5, 18.0 ],
									"numinlets" : 2
								}

							}
, 							{
								"box" : 								{
									"maxclass" : "message",
									"text" : "read ./NWS/vidLists/violin/1",
									"id" : "obj-9",
									"fontname" : "Arial",
									"numoutlets" : 1,
									"outlettype" : [ "" ],
									"fontsize" : 12.0,
									"patching_rect" : [ 307.0, 237.0, 157.0, 18.0 ],
									"numinlets" : 2
								}

							}
, 							{
								"box" : 								{
									"maxclass" : "newobj",
									"text" : "coll violinVids",
									"id" : "obj-3",
									"fontname" : "Arial",
									"numoutlets" : 4,
									"outlettype" : [ "", "", "", "" ],
									"fontsize" : 12.0,
									"patching_rect" : [ 307.0, 265.0, 82.0, 20.0 ],
									"numinlets" : 1,
									"saved_object_attributes" : 									{
										"embed" : 0
									}

								}

							}
 ],
						"lines" : [ 							{
								"patchline" : 								{
									"source" : [ "obj-9", 0 ],
									"destination" : [ "obj-3", 0 ],
									"hidden" : 0,
									"midpoints" : [  ]
								}

							}
, 							{
								"patchline" : 								{
									"source" : [ "obj-35", 0 ],
									"destination" : [ "obj-32", 0 ],
									"hidden" : 0,
									"midpoints" : [  ]
								}

							}
, 							{
								"patchline" : 								{
									"source" : [ "obj-33", 0 ],
									"destination" : [ "obj-51", 0 ],
									"hidden" : 0,
									"midpoints" : [  ]
								}

							}
, 							{
								"patchline" : 								{
									"source" : [ "obj-49", 0 ],
									"destination" : [ "obj-33", 0 ],
									"hidden" : 0,
									"midpoints" : [  ]
								}

							}
, 							{
								"patchline" : 								{
									"source" : [ "obj-10", 0 ],
									"destination" : [ "obj-52", 0 ],
									"hidden" : 0,
									"midpoints" : [  ]
								}

							}
, 							{
								"patchline" : 								{
									"source" : [ "obj-53", 0 ],
									"destination" : [ "obj-10", 0 ],
									"hidden" : 0,
									"midpoints" : [  ]
								}

							}
, 							{
								"patchline" : 								{
									"source" : [ "obj-52", 0 ],
									"destination" : [ "obj-46", 0 ],
									"hidden" : 0,
									"midpoints" : [  ]
								}

							}
 ]
					}
,
					"saved_object_attributes" : 					{
						"fontname" : "Arial",
						"default_fontsize" : 12.0,
						"globalpatchername" : "",
						"fontface" : 0,
						"fontsize" : 12.0,
						"default_fontface" : 0,
						"default_fontname" : "Arial"
					}

				}

			}
, 			{
				"box" : 				{
					"maxclass" : "newobj",
					"varname" : "experimental",
					"text" : "p experimental",
					"id" : "obj-1",
					"fontname" : "Arial",
					"numoutlets" : 0,
					"fontsize" : 12.0,
					"patching_rect" : [ 806.0, 42.0, 89.0, 20.0 ],
					"numinlets" : 0,
					"patcher" : 					{
						"fileversion" : 1,
						"appversion" : 						{
							"major" : 5,
							"minor" : 1,
							"revision" : 9
						}
,
						"rect" : [ 60.0, 69.0, 970.0, 579.0 ],
						"bglocked" : 0,
						"defrect" : [ 60.0, 69.0, 970.0, 579.0 ],
						"openrect" : [ 0.0, 0.0, 0.0, 0.0 ],
						"openinpresentation" : 0,
						"default_fontsize" : 12.0,
						"default_fontface" : 0,
						"default_fontname" : "Arial",
						"gridonopen" : 0,
						"gridsize" : [ 15.0, 15.0 ],
						"gridsnaponopen" : 0,
						"toolbarvisible" : 1,
						"boxanimatetime" : 200,
						"imprint" : 0,
						"enablehscroll" : 1,
						"enablevscroll" : 1,
						"devicewidth" : 0.0,
						"boxes" : [ 							{
								"box" : 								{
									"maxclass" : "newobj",
									"id" : "obj-1",
									"fontname" : "Arial",
									"numoutlets" : 0,
									"fontsize" : 12.0,
									"patching_rect" : [ 425.0, 379.0, 100.0, 20.0 ],
									"numinlets" : 0
								}

							}
, 							{
								"box" : 								{
									"maxclass" : "newobj",
									"text" : "r pX",
									"id" : "obj-55",
									"fontname" : "Arial",
									"numoutlets" : 1,
									"outlettype" : [ "" ],
									"fontsize" : 12.0,
									"patching_rect" : [ 77.0, 15.0, 33.0, 20.0 ],
									"numinlets" : 0
								}

							}
, 							{
								"box" : 								{
									"maxclass" : "newobj",
									"text" : "r pZ",
									"id" : "obj-53",
									"fontname" : "Arial",
									"numoutlets" : 1,
									"outlettype" : [ "" ],
									"fontsize" : 12.0,
									"patching_rect" : [ 158.0, 15.0, 32.0, 20.0 ],
									"numinlets" : 0
								}

							}
, 							{
								"box" : 								{
									"maxclass" : "newobj",
									"text" : "r pY",
									"id" : "obj-51",
									"fontname" : "Arial",
									"numoutlets" : 1,
									"outlettype" : [ "" ],
									"fontsize" : 12.0,
									"patching_rect" : [ 117.0, 14.0, 33.0, 20.0 ],
									"numinlets" : 0
								}

							}
, 							{
								"box" : 								{
									"maxclass" : "bpatcher",
									"varname" : "2toner-patch[1]",
									"prototypename" : "pixl",
									"id" : "obj-49",
									"name" : "2toner-patch.maxpat",
									"numoutlets" : 1,
									"outlettype" : [ "jit_matrix" ],
									"args" : [  ],
									"bgmode" : 1,
									"patching_rect" : [ 37.0, 51.0, 260.0, 154.0 ],
									"numinlets" : 7
								}

							}
, 							{
								"box" : 								{
									"maxclass" : "newobj",
									"text" : "r vZ",
									"id" : "obj-57",
									"fontname" : "Arial",
									"numoutlets" : 1,
									"outlettype" : [ "" ],
									"fontsize" : 12.0,
									"patching_rect" : [ 344.0, 15.0, 31.0, 20.0 ],
									"numinlets" : 0
								}

							}
, 							{
								"box" : 								{
									"maxclass" : "newobj",
									"text" : "r vY",
									"id" : "obj-59",
									"fontname" : "Arial",
									"numoutlets" : 1,
									"outlettype" : [ "" ],
									"fontsize" : 12.0,
									"patching_rect" : [ 426.0, 15.0, 32.0, 20.0 ],
									"numinlets" : 0
								}

							}
, 							{
								"box" : 								{
									"maxclass" : "newobj",
									"text" : "r vX",
									"id" : "obj-61",
									"fontname" : "Arial",
									"numoutlets" : 1,
									"outlettype" : [ "" ],
									"fontsize" : 12.0,
									"patching_rect" : [ 384.0, 15.0, 32.0, 20.0 ],
									"numinlets" : 0
								}

							}
, 							{
								"box" : 								{
									"maxclass" : "bpatcher",
									"varname" : "2toner-patch",
									"prototypename" : "pixl",
									"id" : "obj-33",
									"name" : "2toner-patch.maxpat",
									"numoutlets" : 1,
									"outlettype" : [ "jit_matrix" ],
									"args" : [  ],
									"bgmode" : 1,
									"patching_rect" : [ 305.0, 50.0, 260.0, 154.0 ],
									"numinlets" : 7
								}

							}
 ],
						"lines" : [ 							{
								"patchline" : 								{
									"source" : [ "obj-55", 0 ],
									"destination" : [ "obj-49", 6 ],
									"hidden" : 0,
									"midpoints" : [ 86.5, 42.5, 287.5, 42.5 ]
								}

							}
, 							{
								"patchline" : 								{
									"source" : [ "obj-55", 0 ],
									"destination" : [ "obj-49", 1 ],
									"hidden" : 0,
									"midpoints" : [ 86.5, 42.5, 86.666664, 42.5 ]
								}

							}
, 							{
								"patchline" : 								{
									"source" : [ "obj-51", 0 ],
									"destination" : [ "obj-49", 2 ],
									"hidden" : 0,
									"midpoints" : [ 126.5, 42.0, 126.833336, 42.0 ]
								}

							}
, 							{
								"patchline" : 								{
									"source" : [ "obj-51", 0 ],
									"destination" : [ "obj-49", 5 ],
									"hidden" : 0,
									"midpoints" : [ 126.5, 42.0, 247.333328, 42.0 ]
								}

							}
, 							{
								"patchline" : 								{
									"source" : [ "obj-53", 0 ],
									"destination" : [ "obj-49", 3 ],
									"hidden" : 0,
									"midpoints" : [ 167.5, 42.5, 167.0, 42.5 ]
								}

							}
, 							{
								"patchline" : 								{
									"source" : [ "obj-53", 0 ],
									"destination" : [ "obj-49", 4 ],
									"hidden" : 0,
									"midpoints" : [ 167.5, 42.5, 207.166672, 42.5 ]
								}

							}
, 							{
								"patchline" : 								{
									"source" : [ "obj-61", 0 ],
									"destination" : [ "obj-33", 5 ],
									"hidden" : 0,
									"midpoints" : [ 393.5, 42.0, 515.333313, 42.0 ]
								}

							}
, 							{
								"patchline" : 								{
									"source" : [ "obj-61", 0 ],
									"destination" : [ "obj-33", 2 ],
									"hidden" : 0,
									"midpoints" : [ 393.5, 42.0, 394.833344, 42.0 ]
								}

							}
, 							{
								"patchline" : 								{
									"source" : [ "obj-59", 0 ],
									"destination" : [ "obj-33", 4 ],
									"hidden" : 0,
									"midpoints" : [ 435.5, 42.0, 475.166656, 42.0 ]
								}

							}
, 							{
								"patchline" : 								{
									"source" : [ "obj-59", 0 ],
									"destination" : [ "obj-33", 3 ],
									"hidden" : 0,
									"midpoints" : [ 435.5, 42.0, 435.0, 42.0 ]
								}

							}
, 							{
								"patchline" : 								{
									"source" : [ "obj-57", 0 ],
									"destination" : [ "obj-33", 6 ],
									"hidden" : 0,
									"midpoints" : [ 353.5, 42.0, 555.5, 42.0 ]
								}

							}
, 							{
								"patchline" : 								{
									"source" : [ "obj-57", 0 ],
									"destination" : [ "obj-33", 1 ],
									"hidden" : 0,
									"midpoints" : [ 353.5, 42.0, 354.666656, 42.0 ]
								}

							}
 ]
					}
,
					"saved_object_attributes" : 					{
						"fontname" : "Arial",
						"default_fontsize" : 12.0,
						"globalpatchername" : "",
						"fontface" : 0,
						"fontsize" : 12.0,
						"default_fontface" : 0,
						"default_fontname" : "Arial"
					}

				}

			}
, 			{
				"box" : 				{
					"maxclass" : "newobj",
					"text" : "!- 1",
					"id" : "obj-68",
					"fontname" : "Arial",
					"numoutlets" : 1,
					"outlettype" : [ "int" ],
					"fontsize" : 12.0,
					"presentation_rect" : [ 654.0, 36.0, 32.5, 20.0 ],
					"patching_rect" : [ 544.0, 22.0, 32.5, 20.0 ],
					"numinlets" : 2,
					"presentation" : 1
				}

			}
, 			{
				"box" : 				{
					"maxclass" : "newobj",
					"text" : "s ---bypass",
					"id" : "obj-69",
					"fontname" : "Arial",
					"numoutlets" : 0,
					"fontsize" : 12.0,
					"presentation_rect" : [ 621.0, 60.0, 70.0, 20.0 ],
					"patching_rect" : [ 511.0, 46.0, 70.0, 20.0 ],
					"numinlets" : 1,
					"presentation" : 1
				}

			}
, 			{
				"box" : 				{
					"maxclass" : "toggle",
					"hint" : "Clicking on this button will disable the display windows of all Vizzie modules in your patch, although the modules will continue to process video. This may save you some CPU cycles in large patches.",
					"id" : "obj-70",
					"bordercolor" : [ 0.25098, 0.0, 0.0, 1.0 ],
					"numoutlets" : 1,
					"outlettype" : [ "int" ],
					"presentation_rect" : [ 628.0, 35.0, 20.0, 20.0 ],
					"checkedcolor" : [ 0.25098, 0.0, 0.0, 1.0 ],
					"bgcolor" : [ 0.8, 0.501961, 0.501961, 1.0 ],
					"patching_rect" : [ 522.0, 23.0, 20.0, 20.0 ],
					"numinlets" : 1,
					"presentation" : 1
				}

			}
, 			{
				"box" : 				{
					"maxclass" : "newobj",
					"text" : "r pY",
					"id" : "obj-38",
					"fontname" : "Arial",
					"numoutlets" : 1,
					"outlettype" : [ "" ],
					"fontsize" : 12.0,
					"patching_rect" : [ 240.0, 135.0, 33.0, 20.0 ],
					"numinlets" : 0
				}

			}
, 			{
				"box" : 				{
					"maxclass" : "newobj",
					"text" : "r vY",
					"id" : "obj-36",
					"fontname" : "Arial",
					"numoutlets" : 1,
					"outlettype" : [ "" ],
					"fontsize" : 12.0,
					"patching_rect" : [ 1132.0, 146.0, 32.0, 20.0 ],
					"numinlets" : 0
				}

			}
, 			{
				"box" : 				{
					"maxclass" : "newobj",
					"text" : "r vX",
					"id" : "obj-30",
					"fontname" : "Arial",
					"numoutlets" : 1,
					"outlettype" : [ "" ],
					"fontsize" : 12.0,
					"patching_rect" : [ 1137.0, 356.0, 32.0, 20.0 ],
					"numinlets" : 0
				}

			}
, 			{
				"box" : 				{
					"maxclass" : "newobj",
					"text" : "r pX",
					"id" : "obj-8",
					"fontname" : "Arial",
					"numoutlets" : 1,
					"outlettype" : [ "" ],
					"fontsize" : 12.0,
					"patching_rect" : [ 180.0, 135.0, 33.0, 20.0 ],
					"numinlets" : 0
				}

			}
, 			{
				"box" : 				{
					"maxclass" : "newobj",
					"text" : "- 1",
					"id" : "obj-5",
					"fontname" : "Arial",
					"numoutlets" : 1,
					"outlettype" : [ "int" ],
					"fontsize" : 12.0,
					"patching_rect" : [ 285.0, 39.0, 32.5, 20.0 ],
					"numinlets" : 2
				}

			}
, 			{
				"box" : 				{
					"maxclass" : "number",
					"id" : "obj-48",
					"fontname" : "Arial",
					"numoutlets" : 2,
					"outlettype" : [ "int", "bang" ],
					"fontsize" : 12.0,
					"maximum" : 10,
					"patching_rect" : [ 175.0, 32.0, 50.0, 20.0 ],
					"numinlets" : 1
				}

			}
, 			{
				"box" : 				{
					"maxclass" : "number",
					"id" : "obj-47",
					"fontname" : "Arial",
					"numoutlets" : 2,
					"outlettype" : [ "int", "bang" ],
					"fontsize" : 12.0,
					"maximum" : 10,
					"patching_rect" : [ 363.0, 32.0, 50.0, 20.0 ],
					"numinlets" : 1
				}

			}
, 			{
				"box" : 				{
					"maxclass" : "bpatcher",
					"id" : "obj-45",
					"name" : "NWS_loadVid.maxpat",
					"numoutlets" : 1,
					"outlettype" : [ "" ],
					"args" : [  ],
					"presentation_rect" : [ 264.0, 99.0, 243.0, 56.0 ],
					"patching_rect" : [ 259.0, 64.0, 243.0, 56.0 ],
					"numinlets" : 1,
					"presentation" : 1
				}

			}
, 			{
				"box" : 				{
					"maxclass" : "bpatcher",
					"id" : "obj-44",
					"name" : "NWS_loadVid.maxpat",
					"numoutlets" : 1,
					"outlettype" : [ "" ],
					"args" : [  ],
					"presentation_rect" : [ 22.0, 100.0, 243.0, 56.0 ],
					"patching_rect" : [ 17.0, 65.0, 243.0, 56.0 ],
					"numinlets" : 1,
					"presentation" : 1
				}

			}
, 			{
				"box" : 				{
					"maxclass" : "newobj",
					"text" : "p keySelect",
					"id" : "obj-41",
					"fontname" : "Arial",
					"numoutlets" : 1,
					"outlettype" : [ "" ],
					"fontsize" : 12.0,
					"patching_rect" : [ 84.0, 38.5, 73.0, 20.0 ],
					"numinlets" : 0,
					"patcher" : 					{
						"fileversion" : 1,
						"appversion" : 						{
							"major" : 5,
							"minor" : 1,
							"revision" : 9
						}
,
						"rect" : [ 0.0, 0.0, 640.0, 480.0 ],
						"bglocked" : 0,
						"defrect" : [ 0.0, 0.0, 640.0, 480.0 ],
						"openrect" : [ 0.0, 0.0, 0.0, 0.0 ],
						"openinpresentation" : 0,
						"default_fontsize" : 12.0,
						"default_fontface" : 0,
						"default_fontname" : "Arial",
						"gridonopen" : 0,
						"gridsize" : [ 15.0, 15.0 ],
						"gridsnaponopen" : 0,
						"toolbarvisible" : 1,
						"boxanimatetime" : 200,
						"imprint" : 0,
						"enablehscroll" : 1,
						"enablevscroll" : 1,
						"devicewidth" : 0.0,
						"boxes" : [ 							{
								"box" : 								{
									"maxclass" : "message",
									"text" : "dec",
									"id" : "obj-37",
									"fontname" : "Arial",
									"numoutlets" : 1,
									"outlettype" : [ "" ],
									"fontsize" : 12.0,
									"patching_rect" : [ 54.0, 128.5, 32.5, 18.0 ],
									"numinlets" : 2
								}

							}
, 							{
								"box" : 								{
									"maxclass" : "message",
									"text" : "inc",
									"id" : "obj-23",
									"fontname" : "Arial",
									"numoutlets" : 1,
									"outlettype" : [ "" ],
									"fontsize" : 12.0,
									"patching_rect" : [ 50.0, 106.5, 32.5, 18.0 ],
									"numinlets" : 2
								}

							}
, 							{
								"box" : 								{
									"maxclass" : "newobj",
									"text" : "key",
									"id" : "obj-10",
									"fontname" : "Arial",
									"numoutlets" : 4,
									"outlettype" : [ "int", "int", "int", "int" ],
									"fontsize" : 11.595187,
									"patching_rect" : [ 101.0, 101.5, 59.5, 20.0 ],
									"numinlets" : 0
								}

							}
, 							{
								"box" : 								{
									"maxclass" : "newobj",
									"text" : "select 29 28",
									"id" : "obj-27",
									"fontname" : "Arial",
									"numoutlets" : 3,
									"outlettype" : [ "bang", "bang", "" ],
									"fontsize" : 11.595187,
									"patching_rect" : [ 101.0, 126.833344, 73.0, 20.0 ],
									"numinlets" : 1
								}

							}
, 							{
								"box" : 								{
									"maxclass" : "outlet",
									"id" : "obj-40",
									"numoutlets" : 0,
									"patching_rect" : [ 47.0, 213.0, 25.0, 25.0 ],
									"numinlets" : 1,
									"comment" : ""
								}

							}
 ],
						"lines" : [ 							{
								"patchline" : 								{
									"source" : [ "obj-37", 0 ],
									"destination" : [ "obj-40", 0 ],
									"hidden" : 0,
									"midpoints" : [  ]
								}

							}
, 							{
								"patchline" : 								{
									"source" : [ "obj-23", 0 ],
									"destination" : [ "obj-40", 0 ],
									"hidden" : 0,
									"midpoints" : [  ]
								}

							}
, 							{
								"patchline" : 								{
									"source" : [ "obj-27", 1 ],
									"destination" : [ "obj-37", 0 ],
									"hidden" : 0,
									"midpoints" : [  ]
								}

							}
, 							{
								"patchline" : 								{
									"source" : [ "obj-10", 0 ],
									"destination" : [ "obj-27", 0 ],
									"hidden" : 0,
									"midpoints" : [  ]
								}

							}
, 							{
								"patchline" : 								{
									"source" : [ "obj-27", 0 ],
									"destination" : [ "obj-23", 0 ],
									"hidden" : 0,
									"midpoints" : [  ]
								}

							}
 ]
					}
,
					"saved_object_attributes" : 					{
						"fontname" : "Arial",
						"default_fontsize" : 12.0,
						"globalpatchername" : "",
						"fontface" : 0,
						"fontsize" : 12.0,
						"default_fontface" : 0,
						"default_fontname" : "Arial"
					}

				}

			}
, 			{
				"box" : 				{
					"maxclass" : "comment",
					"text" : "TOWER PATCH : LEFT AND RIGHT VIDEOS",
					"id" : "obj-39",
					"fontname" : "Arial",
					"numoutlets" : 0,
					"fontsize" : 16.0,
					"patching_rect" : [ 93.0, 6.0, 350.0, 25.0 ],
					"numinlets" : 1
				}

			}
, 			{
				"box" : 				{
					"maxclass" : "bpatcher",
					"id" : "obj-25",
					"name" : "oscReceiver.maxpat",
					"numoutlets" : 0,
					"args" : [  ],
					"presentation_rect" : [ 487.0, 209.0, 393.0, 277.0 ],
					"patching_rect" : [ 1515.0, 15.0, 393.0, 277.0 ],
					"numinlets" : 0,
					"presentation" : 1
				}

			}
, 			{
				"box" : 				{
					"maxclass" : "bpatcher",
					"prototypename" : "pixl",
					"id" : "obj-24",
					"name" : "startr-patch.maxpat",
					"numoutlets" : 0,
					"args" : [  ],
					"presentation_rect" : [ 590.0, 81.0, 140.0, 94.0 ],
					"bgmode" : 1,
					"patching_rect" : [ 596.0, 16.0, 140.0, 94.0 ],
					"numinlets" : 0,
					"presentation" : 1
				}

			}
, 			{
				"box" : 				{
					"maxclass" : "incdec",
					"id" : "obj-13",
					"numoutlets" : 1,
					"outlettype" : [ "float" ],
					"presentation_rect" : [ 522.0, 102.0, 39.0, 44.0 ],
					"patching_rect" : [ 26.0, 14.0, 39.0, 44.0 ],
					"numinlets" : 1,
					"presentation" : 1
				}

			}
 ],
		"lines" : [ 			{
				"patchline" : 				{
					"source" : [ "obj-22", 0 ],
					"destination" : [ "obj-29", 0 ],
					"hidden" : 0,
					"midpoints" : [  ]
				}

			}
, 			{
				"patchline" : 				{
					"source" : [ "obj-22", 0 ],
					"destination" : [ "obj-6", 0 ],
					"hidden" : 0,
					"midpoints" : [  ]
				}

			}
, 			{
				"patchline" : 				{
					"source" : [ "obj-10", 0 ],
					"destination" : [ "obj-22", 2 ],
					"hidden" : 0,
					"midpoints" : [  ]
				}

			}
, 			{
				"patchline" : 				{
					"source" : [ "obj-2", 0 ],
					"destination" : [ "obj-22", 0 ],
					"hidden" : 0,
					"midpoints" : [  ]
				}

			}
, 			{
				"patchline" : 				{
					"source" : [ "obj-3", 0 ],
					"destination" : [ "obj-10", 0 ],
					"hidden" : 0,
					"midpoints" : [  ]
				}

			}
, 			{
				"patchline" : 				{
					"source" : [ "obj-51", 0 ],
					"destination" : [ "obj-40", 0 ],
					"hidden" : 0,
					"midpoints" : [  ]
				}

			}
, 			{
				"patchline" : 				{
					"source" : [ "obj-72", 0 ],
					"destination" : [ "obj-29", 0 ],
					"hidden" : 0,
					"midpoints" : [  ]
				}

			}
, 			{
				"patchline" : 				{
					"source" : [ "obj-45", 0 ],
					"destination" : [ "obj-3", 3 ],
					"hidden" : 0,
					"midpoints" : [  ]
				}

			}
, 			{
				"patchline" : 				{
					"source" : [ "obj-70", 0 ],
					"destination" : [ "obj-68", 0 ],
					"hidden" : 0,
					"midpoints" : [ 531.5, 46.0, 542.5, 46.0, 542.5, 18.0, 553.5, 18.0 ]
				}

			}
, 			{
				"patchline" : 				{
					"source" : [ "obj-68", 0 ],
					"destination" : [ "obj-69", 0 ],
					"hidden" : 0,
					"midpoints" : [ 553.5, 43.5, 520.5, 43.5 ]
				}

			}
, 			{
				"patchline" : 				{
					"source" : [ "obj-5", 0 ],
					"destination" : [ "obj-47", 0 ],
					"hidden" : 0,
					"midpoints" : [ 294.5, 68.0, 359.5, 68.0, 359.5, 22.0, 372.5, 22.0 ]
				}

			}
, 			{
				"patchline" : 				{
					"source" : [ "obj-48", 0 ],
					"destination" : [ "obj-5", 0 ],
					"hidden" : 0,
					"midpoints" : [ 184.5, 61.0, 281.5, 61.0, 281.5, 29.0, 294.5, 29.0 ]
				}

			}
, 			{
				"patchline" : 				{
					"source" : [ "obj-41", 0 ],
					"destination" : [ "obj-13", 0 ],
					"hidden" : 0,
					"midpoints" : [ 93.5, 62.5, 79.5, 62.5, 79.5, 7.0, 35.5, 7.0 ]
				}

			}
, 			{
				"patchline" : 				{
					"source" : [ "obj-13", 0 ],
					"destination" : [ "obj-48", 0 ],
					"hidden" : 0,
					"midpoints" : [ 35.5, 67.0, 170.0, 67.0, 170.0, 29.0, 184.5, 29.0 ]
				}

			}
, 			{
				"patchline" : 				{
					"source" : [ "obj-47", 0 ],
					"destination" : [ "obj-45", 0 ],
					"hidden" : 0,
					"midpoints" : [ 372.5, 62.5, 268.5, 62.5 ]
				}

			}
, 			{
				"patchline" : 				{
					"source" : [ "obj-48", 0 ],
					"destination" : [ "obj-44", 0 ],
					"hidden" : 0,
					"midpoints" : [ 184.5, 58.0, 26.5, 58.0 ]
				}

			}
, 			{
				"patchline" : 				{
					"source" : [ "obj-44", 0 ],
					"destination" : [ "obj-2", 3 ],
					"hidden" : 0,
					"midpoints" : [  ]
				}

			}
, 			{
				"patchline" : 				{
					"source" : [ "obj-2", 0 ],
					"destination" : [ "obj-51", 0 ],
					"hidden" : 0,
					"midpoints" : [  ]
				}

			}
, 			{
				"patchline" : 				{
					"source" : [ "obj-3", 0 ],
					"destination" : [ "obj-51", 1 ],
					"hidden" : 0,
					"midpoints" : [  ]
				}

			}
 ]
	}

}
