{
	"patcher" : 	{
		"fileversion" : 1,
		"appversion" : 		{
			"major" : 5,
			"minor" : 1,
			"revision" : 9
		}
,
		"rect" : [ 70.0, 44.0, 1283.0, 802.0 ],
		"bglocked" : 0,
		"defrect" : [ 70.0, 44.0, 1283.0, 802.0 ],
		"openrect" : [ 0.0, 0.0, 0.0, 0.0 ],
		"openinpresentation" : 1,
		"default_fontsize" : 12.0,
		"default_fontface" : 0,
		"default_fontname" : "Arial",
		"gridonopen" : 0,
		"gridsize" : [ 15.0, 15.0 ],
		"gridsnaponopen" : 0,
		"toolbarvisible" : 1,
		"boxanimatetime" : 200,
		"imprint" : 0,
		"enablehscroll" : 1,
		"enablevscroll" : 1,
		"devicewidth" : 0.0,
		"boxes" : [ 			{
				"box" : 				{
					"maxclass" : "comment",
					"text" : "defaults",
					"fontsize" : 12.0,
					"patching_rect" : [ 1085.0, 32.0, 150.0, 20.0 ],
					"id" : "obj-84",
					"fontname" : "Arial",
					"numinlets" : 1,
					"numoutlets" : 0
				}

			}
, 			{
				"box" : 				{
					"maxclass" : "newobj",
					"text" : "loadmess 750",
					"fontsize" : 12.0,
					"outlettype" : [ "" ],
					"patching_rect" : [ 1082.0, 130.0, 85.0, 20.0 ],
					"id" : "obj-82",
					"fontname" : "Arial",
					"numinlets" : 1,
					"numoutlets" : 1
				}

			}
, 			{
				"box" : 				{
					"maxclass" : "newobj",
					"text" : "loadmess 650",
					"fontsize" : 12.0,
					"outlettype" : [ "" ],
					"patching_rect" : [ 1082.0, 104.0, 85.0, 20.0 ],
					"id" : "obj-81",
					"fontname" : "Arial",
					"numinlets" : 1,
					"numoutlets" : 1
				}

			}
, 			{
				"box" : 				{
					"maxclass" : "newobj",
					"text" : "loadmess 350",
					"fontsize" : 12.0,
					"outlettype" : [ "" ],
					"patching_rect" : [ 1082.0, 83.0, 85.0, 20.0 ],
					"id" : "obj-80",
					"fontname" : "Arial",
					"numinlets" : 1,
					"numoutlets" : 1
				}

			}
, 			{
				"box" : 				{
					"maxclass" : "newobj",
					"text" : "loadmess 200",
					"fontsize" : 12.0,
					"outlettype" : [ "" ],
					"patching_rect" : [ 1083.0, 58.0, 85.0, 20.0 ],
					"id" : "obj-79",
					"fontname" : "Arial",
					"numinlets" : 1,
					"numoutlets" : 1
				}

			}
, 			{
				"box" : 				{
					"maxclass" : "comment",
					"text" : "high\n",
					"fontsize" : 12.0,
					"frgb" : [ 0.203922, 0.490196, 0.290196, 1.0 ],
					"presentation_rect" : [ 86.0, 159.0, 50.0, 20.0 ],
					"patching_rect" : [ 77.0, 172.0, 146.0, 20.0 ],
					"presentation" : 1,
					"id" : "obj-75",
					"fontname" : "Arial",
					"numinlets" : 1,
					"textcolor" : [ 0.203922, 0.490196, 0.290196, 1.0 ],
					"numoutlets" : 0,
					"fontface" : 1
				}

			}
, 			{
				"box" : 				{
					"maxclass" : "comment",
					"text" : "low",
					"fontsize" : 12.0,
					"frgb" : [ 0.384314, 0.694118, 1.0, 1.0 ],
					"presentation_rect" : [ 30.0, 159.0, 33.0, 20.0 ],
					"patching_rect" : [ 21.0, 172.0, 146.0, 20.0 ],
					"presentation" : 1,
					"id" : "obj-76",
					"fontname" : "Arial",
					"numinlets" : 1,
					"textcolor" : [ 0.384314, 0.694118, 1.0, 1.0 ],
					"numoutlets" : 0,
					"fontface" : 1
				}

			}
, 			{
				"box" : 				{
					"maxclass" : "comment",
					"text" : "high\n",
					"fontsize" : 12.0,
					"frgb" : [ 0.203922, 0.490196, 0.290196, 1.0 ],
					"presentation_rect" : [ 86.0, 47.0, 50.0, 20.0 ],
					"patching_rect" : [ 77.0, 45.0, 146.0, 34.0 ],
					"presentation" : 1,
					"id" : "obj-74",
					"fontname" : "Arial",
					"numinlets" : 1,
					"textcolor" : [ 0.203922, 0.490196, 0.290196, 1.0 ],
					"numoutlets" : 0,
					"fontface" : 1
				}

			}
, 			{
				"box" : 				{
					"maxclass" : "comment",
					"text" : "low",
					"fontsize" : 12.0,
					"frgb" : [ 0.384314, 0.694118, 1.0, 1.0 ],
					"presentation_rect" : [ 30.0, 47.0, 33.0, 20.0 ],
					"patching_rect" : [ 21.0, 44.0, 146.0, 20.0 ],
					"presentation" : 1,
					"id" : "obj-73",
					"fontname" : "Arial",
					"numinlets" : 1,
					"textcolor" : [ 0.384314, 0.694118, 1.0, 1.0 ],
					"numoutlets" : 0,
					"fontface" : 1
				}

			}
, 			{
				"box" : 				{
					"maxclass" : "comment",
					"text" : "high",
					"fontsize" : 12.0,
					"presentation_rect" : [ 472.0, 309.0, 0.0, 0.0 ],
					"patching_rect" : [ 472.0, 309.0, 45.0, 20.0 ],
					"id" : "obj-55",
					"fontname" : "Arial",
					"numinlets" : 1,
					"numoutlets" : 0
				}

			}
, 			{
				"box" : 				{
					"maxclass" : "comment",
					"text" : "low",
					"fontsize" : 12.0,
					"presentation_rect" : [ 451.0, 283.0, 0.0, 0.0 ],
					"patching_rect" : [ 451.0, 283.0, 45.0, 20.0 ],
					"id" : "obj-56",
					"fontname" : "Arial",
					"numinlets" : 1,
					"numoutlets" : 0
				}

			}
, 			{
				"box" : 				{
					"maxclass" : "comment",
					"text" : "high",
					"fontsize" : 12.0,
					"presentation_rect" : [ 307.0, 311.0, 0.0, 0.0 ],
					"patching_rect" : [ 307.0, 311.0, 45.0, 20.0 ],
					"id" : "obj-57",
					"fontname" : "Arial",
					"numinlets" : 1,
					"numoutlets" : 0
				}

			}
, 			{
				"box" : 				{
					"maxclass" : "comment",
					"text" : "low",
					"fontsize" : 12.0,
					"presentation_rect" : [ 286.0, 285.0, 0.0, 0.0 ],
					"patching_rect" : [ 286.0, 285.0, 45.0, 20.0 ],
					"id" : "obj-58",
					"fontname" : "Arial",
					"numinlets" : 1,
					"numoutlets" : 0
				}

			}
, 			{
				"box" : 				{
					"maxclass" : "comment",
					"text" : "high",
					"fontsize" : 12.0,
					"presentation_rect" : [ 132.0, 322.0, 0.0, 0.0 ],
					"patching_rect" : [ 132.0, 322.0, 45.0, 20.0 ],
					"id" : "obj-59",
					"fontname" : "Arial",
					"numinlets" : 1,
					"numoutlets" : 0
				}

			}
, 			{
				"box" : 				{
					"maxclass" : "comment",
					"text" : "low",
					"fontsize" : 12.0,
					"presentation_rect" : [ 111.0, 296.0, 0.0, 0.0 ],
					"patching_rect" : [ 111.0, 296.0, 45.0, 20.0 ],
					"id" : "obj-60",
					"fontname" : "Arial",
					"numinlets" : 1,
					"numoutlets" : 0
				}

			}
, 			{
				"box" : 				{
					"maxclass" : "number",
					"fontsize" : 12.0,
					"outlettype" : [ "int", "bang" ],
					"presentation_rect" : [ 315.0, 69.0, 50.0, 20.0 ],
					"bgcolor" : [ 0.784314, 1.0, 0.796078, 1.0 ],
					"patching_rect" : [ 416.0, 316.0, 50.0, 20.0 ],
					"presentation" : 1,
					"id" : "obj-61",
					"fontname" : "Arial",
					"numinlets" : 1,
					"numoutlets" : 2
				}

			}
, 			{
				"box" : 				{
					"maxclass" : "number",
					"fontsize" : 12.0,
					"outlettype" : [ "int", "bang" ],
					"presentation_rect" : [ 258.0, 69.0, 50.0, 20.0 ],
					"bgcolor" : [ 0.752941, 0.87451, 1.0, 1.0 ],
					"patching_rect" : [ 396.0, 287.0, 50.0, 20.0 ],
					"presentation" : 1,
					"id" : "obj-62",
					"fontname" : "Arial",
					"numinlets" : 1,
					"numoutlets" : 2
				}

			}
, 			{
				"box" : 				{
					"maxclass" : "number",
					"fontsize" : 12.0,
					"outlettype" : [ "int", "bang" ],
					"presentation_rect" : [ 197.0, 69.0, 50.0, 20.0 ],
					"bgcolor" : [ 0.784314, 1.0, 0.796078, 1.0 ],
					"patching_rect" : [ 247.0, 315.0, 50.0, 20.0 ],
					"presentation" : 1,
					"id" : "obj-63",
					"fontname" : "Arial",
					"numinlets" : 1,
					"numoutlets" : 2
				}

			}
, 			{
				"box" : 				{
					"maxclass" : "number",
					"fontsize" : 12.0,
					"outlettype" : [ "int", "bang" ],
					"presentation_rect" : [ 143.0, 69.0, 50.0, 20.0 ],
					"bgcolor" : [ 0.752941, 0.87451, 1.0, 1.0 ],
					"patching_rect" : [ 227.0, 286.0, 50.0, 20.0 ],
					"presentation" : 1,
					"id" : "obj-64",
					"fontname" : "Arial",
					"numinlets" : 1,
					"numoutlets" : 2
				}

			}
, 			{
				"box" : 				{
					"maxclass" : "number",
					"fontsize" : 12.0,
					"outlettype" : [ "int", "bang" ],
					"presentation_rect" : [ 83.0, 69.0, 50.0, 20.0 ],
					"bgcolor" : [ 0.784314, 1.0, 0.796078, 1.0 ],
					"patching_rect" : [ 78.0, 324.0, 50.0, 20.0 ],
					"presentation" : 1,
					"id" : "obj-65",
					"fontname" : "Arial",
					"numinlets" : 1,
					"numoutlets" : 2
				}

			}
, 			{
				"box" : 				{
					"maxclass" : "number",
					"fontsize" : 12.0,
					"outlettype" : [ "int", "bang" ],
					"presentation_rect" : [ 28.0, 69.0, 50.0, 20.0 ],
					"bgcolor" : [ 0.752941, 0.87451, 1.0, 1.0 ],
					"patching_rect" : [ 58.0, 295.0, 50.0, 20.0 ],
					"presentation" : 1,
					"id" : "obj-66",
					"fontname" : "Arial",
					"numinlets" : 1,
					"numoutlets" : 2
				}

			}
, 			{
				"box" : 				{
					"maxclass" : "flonum",
					"fontsize" : 12.0,
					"outlettype" : [ "float", "bang" ],
					"maximum" : 1.0,
					"presentation_rect" : [ 279.0, 93.0, 50.0, 20.0 ],
					"patching_rect" : [ 378.0, 384.0, 50.0, 20.0 ],
					"presentation" : 1,
					"id" : "obj-67",
					"fontname" : "Arial",
					"numinlets" : 1,
					"numoutlets" : 2,
					"minimum" : 0.0
				}

			}
, 			{
				"box" : 				{
					"maxclass" : "flonum",
					"fontsize" : 12.0,
					"outlettype" : [ "float", "bang" ],
					"maximum" : 1.0,
					"presentation_rect" : [ 172.0, 93.0, 50.0, 20.0 ],
					"patching_rect" : [ 210.0, 388.0, 50.0, 20.0 ],
					"presentation" : 1,
					"id" : "obj-68",
					"fontname" : "Arial",
					"numinlets" : 1,
					"numoutlets" : 2,
					"minimum" : 0.0
				}

			}
, 			{
				"box" : 				{
					"maxclass" : "flonum",
					"fontsize" : 12.0,
					"outlettype" : [ "float", "bang" ],
					"maximum" : 1.0,
					"presentation_rect" : [ 56.0, 93.0, 50.0, 20.0 ],
					"patching_rect" : [ 37.0, 385.0, 50.0, 20.0 ],
					"presentation" : 1,
					"id" : "obj-69",
					"fontname" : "Arial",
					"numinlets" : 1,
					"numoutlets" : 2,
					"minimum" : 0.0
				}

			}
, 			{
				"box" : 				{
					"maxclass" : "newobj",
					"text" : "scale 350 750 0. 1.",
					"fontsize" : 12.0,
					"outlettype" : [ "" ],
					"presentation_rect" : [ 378.0, 349.0, 0.0, 0.0 ],
					"patching_rect" : [ 378.0, 349.0, 112.0, 20.0 ],
					"id" : "obj-70",
					"fontname" : "Arial",
					"numinlets" : 6,
					"numoutlets" : 1
				}

			}
, 			{
				"box" : 				{
					"maxclass" : "newobj",
					"text" : "scale 350 650 0. 1.",
					"fontsize" : 12.0,
					"outlettype" : [ "" ],
					"presentation_rect" : [ 208.0, 347.0, 0.0, 0.0 ],
					"patching_rect" : [ 208.0, 347.0, 112.0, 20.0 ],
					"id" : "obj-71",
					"fontname" : "Arial",
					"numinlets" : 6,
					"numoutlets" : 1
				}

			}
, 			{
				"box" : 				{
					"maxclass" : "newobj",
					"text" : "scale 200 650. 0. 1.",
					"fontsize" : 12.0,
					"outlettype" : [ "" ],
					"presentation_rect" : [ 39.0, 353.0, 0.0, 0.0 ],
					"patching_rect" : [ 39.0, 353.0, 115.0, 20.0 ],
					"id" : "obj-72",
					"fontname" : "Arial",
					"numinlets" : 6,
					"numoutlets" : 1
				}

			}
, 			{
				"box" : 				{
					"maxclass" : "comment",
					"text" : "high",
					"fontsize" : 12.0,
					"presentation_rect" : [ 659.0, 291.0, 0.0, 0.0 ],
					"patching_rect" : [ 1020.0, 293.0, 45.0, 20.0 ],
					"id" : "obj-53",
					"fontname" : "Arial",
					"numinlets" : 1,
					"numoutlets" : 0
				}

			}
, 			{
				"box" : 				{
					"maxclass" : "comment",
					"text" : "low",
					"fontsize" : 12.0,
					"presentation_rect" : [ 638.0, 265.0, 0.0, 0.0 ],
					"patching_rect" : [ 999.0, 267.0, 45.0, 20.0 ],
					"id" : "obj-54",
					"fontname" : "Arial",
					"numinlets" : 1,
					"numoutlets" : 0
				}

			}
, 			{
				"box" : 				{
					"maxclass" : "comment",
					"text" : "high",
					"fontsize" : 12.0,
					"presentation_rect" : [ 494.0, 293.0, 0.0, 0.0 ],
					"patching_rect" : [ 855.0, 295.0, 45.0, 20.0 ],
					"id" : "obj-51",
					"fontname" : "Arial",
					"numinlets" : 1,
					"numoutlets" : 0
				}

			}
, 			{
				"box" : 				{
					"maxclass" : "comment",
					"text" : "low",
					"fontsize" : 12.0,
					"presentation_rect" : [ 473.0, 267.0, 0.0, 0.0 ],
					"patching_rect" : [ 834.0, 269.0, 45.0, 20.0 ],
					"id" : "obj-52",
					"fontname" : "Arial",
					"numinlets" : 1,
					"numoutlets" : 0
				}

			}
, 			{
				"box" : 				{
					"maxclass" : "comment",
					"text" : "high",
					"fontsize" : 12.0,
					"presentation_rect" : [ 319.0, 304.0, 0.0, 0.0 ],
					"patching_rect" : [ 680.0, 306.0, 45.0, 20.0 ],
					"id" : "obj-50",
					"fontname" : "Arial",
					"numinlets" : 1,
					"numoutlets" : 0
				}

			}
, 			{
				"box" : 				{
					"maxclass" : "comment",
					"text" : "low",
					"fontsize" : 12.0,
					"patching_rect" : [ 659.0, 280.0, 45.0, 20.0 ],
					"id" : "obj-49",
					"fontname" : "Arial",
					"numinlets" : 1,
					"numoutlets" : 0
				}

			}
, 			{
				"box" : 				{
					"maxclass" : "number",
					"fontsize" : 12.0,
					"outlettype" : [ "int", "bang" ],
					"presentation_rect" : [ 311.0, 181.0, 50.0, 20.0 ],
					"bgcolor" : [ 0.784314, 1.0, 0.796078, 1.0 ],
					"patching_rect" : [ 964.0, 300.0, 50.0, 20.0 ],
					"presentation" : 1,
					"id" : "obj-46",
					"fontname" : "Arial",
					"numinlets" : 1,
					"numoutlets" : 2
				}

			}
, 			{
				"box" : 				{
					"maxclass" : "number",
					"fontsize" : 12.0,
					"outlettype" : [ "int", "bang" ],
					"presentation_rect" : [ 256.0, 181.0, 50.0, 20.0 ],
					"bgcolor" : [ 0.752941, 0.87451, 1.0, 1.0 ],
					"patching_rect" : [ 944.0, 271.0, 50.0, 20.0 ],
					"presentation" : 1,
					"id" : "obj-47",
					"fontname" : "Arial",
					"numinlets" : 1,
					"numoutlets" : 2
				}

			}
, 			{
				"box" : 				{
					"maxclass" : "number",
					"fontsize" : 12.0,
					"outlettype" : [ "int", "bang" ],
					"presentation_rect" : [ 196.0, 180.0, 50.0, 20.0 ],
					"bgcolor" : [ 0.784314, 1.0, 0.796078, 1.0 ],
					"patching_rect" : [ 795.0, 299.0, 50.0, 20.0 ],
					"presentation" : 1,
					"id" : "obj-44",
					"fontname" : "Arial",
					"numinlets" : 1,
					"numoutlets" : 2
				}

			}
, 			{
				"box" : 				{
					"maxclass" : "number",
					"fontsize" : 12.0,
					"outlettype" : [ "int", "bang" ],
					"presentation_rect" : [ 143.0, 180.0, 50.0, 20.0 ],
					"bgcolor" : [ 0.752941, 0.87451, 1.0, 1.0 ],
					"patching_rect" : [ 775.0, 270.0, 50.0, 20.0 ],
					"presentation" : 1,
					"id" : "obj-45",
					"fontname" : "Arial",
					"numinlets" : 1,
					"numoutlets" : 2
				}

			}
, 			{
				"box" : 				{
					"maxclass" : "number",
					"fontsize" : 12.0,
					"outlettype" : [ "int", "bang" ],
					"presentation_rect" : [ 82.0, 180.0, 50.0, 20.0 ],
					"bgcolor" : [ 0.784314, 1.0, 0.796078, 1.0 ],
					"patching_rect" : [ 626.0, 308.0, 50.0, 20.0 ],
					"presentation" : 1,
					"id" : "obj-43",
					"fontname" : "Arial",
					"numinlets" : 1,
					"numoutlets" : 2
				}

			}
, 			{
				"box" : 				{
					"maxclass" : "number",
					"fontsize" : 12.0,
					"outlettype" : [ "int", "bang" ],
					"presentation_rect" : [ 30.0, 180.0, 50.0, 20.0 ],
					"bgcolor" : [ 0.752941, 0.87451, 1.0, 1.0 ],
					"patching_rect" : [ 606.0, 279.0, 50.0, 20.0 ],
					"presentation" : 1,
					"id" : "obj-42",
					"fontname" : "Arial",
					"numinlets" : 1,
					"numoutlets" : 2
				}

			}
, 			{
				"box" : 				{
					"maxclass" : "flonum",
					"fontsize" : 12.0,
					"outlettype" : [ "float", "bang" ],
					"maximum" : 1.0,
					"presentation_rect" : [ 279.0, 205.0, 50.0, 20.0 ],
					"patching_rect" : [ 926.0, 368.0, 50.0, 20.0 ],
					"presentation" : 1,
					"id" : "obj-41",
					"fontname" : "Arial",
					"numinlets" : 1,
					"numoutlets" : 2,
					"minimum" : 0.0
				}

			}
, 			{
				"box" : 				{
					"maxclass" : "flonum",
					"fontsize" : 12.0,
					"outlettype" : [ "float", "bang" ],
					"maximum" : 1.0,
					"presentation_rect" : [ 172.0, 204.0, 50.0, 20.0 ],
					"patching_rect" : [ 758.0, 372.0, 50.0, 20.0 ],
					"presentation" : 1,
					"id" : "obj-40",
					"fontname" : "Arial",
					"numinlets" : 1,
					"numoutlets" : 2,
					"minimum" : 0.0
				}

			}
, 			{
				"box" : 				{
					"maxclass" : "flonum",
					"fontsize" : 12.0,
					"outlettype" : [ "float", "bang" ],
					"maximum" : 1.0,
					"presentation_rect" : [ 56.0, 204.0, 50.0, 20.0 ],
					"patching_rect" : [ 585.0, 369.0, 50.0, 20.0 ],
					"presentation" : 1,
					"id" : "obj-39",
					"fontname" : "Arial",
					"numinlets" : 1,
					"numoutlets" : 2,
					"minimum" : 0.0
				}

			}
, 			{
				"box" : 				{
					"maxclass" : "newobj",
					"text" : "scale 350 750 0. 1.",
					"fontsize" : 12.0,
					"outlettype" : [ "" ],
					"patching_rect" : [ 926.0, 333.0, 112.0, 20.0 ],
					"id" : "obj-30",
					"fontname" : "Arial",
					"numinlets" : 6,
					"numoutlets" : 1
				}

			}
, 			{
				"box" : 				{
					"maxclass" : "newobj",
					"text" : "scale 350 650 0. 1.",
					"fontsize" : 12.0,
					"outlettype" : [ "" ],
					"patching_rect" : [ 756.0, 331.0, 112.0, 20.0 ],
					"id" : "obj-26",
					"fontname" : "Arial",
					"numinlets" : 6,
					"numoutlets" : 1
				}

			}
, 			{
				"box" : 				{
					"maxclass" : "newobj",
					"text" : "scale 200 650. 0. 1.",
					"fontsize" : 12.0,
					"outlettype" : [ "" ],
					"patching_rect" : [ 587.0, 337.0, 115.0, 20.0 ],
					"id" : "obj-9",
					"fontname" : "Arial",
					"numinlets" : 6,
					"numoutlets" : 1
				}

			}
, 			{
				"box" : 				{
					"maxclass" : "comment",
					"text" : "debug",
					"fontsize" : 10.0,
					"presentation_rect" : [ 231.0, 13.0, 41.0, 18.0 ],
					"patching_rect" : [ 237.0, 50.0, 129.0, 18.0 ],
					"presentation" : 1,
					"id" : "obj-35",
					"fontname" : "Arial",
					"numinlets" : 1,
					"numoutlets" : 0
				}

			}
, 			{
				"box" : 				{
					"maxclass" : "comment",
					"text" : "NWS OSC RECEIVER",
					"fontsize" : 14.0,
					"presentation_rect" : [ 17.0, 11.0, 169.0, 23.0 ],
					"patching_rect" : [ 14.0, 36.0, 167.0, 23.0 ],
					"presentation" : 1,
					"id" : "obj-33",
					"fontname" : "Arial",
					"numinlets" : 1,
					"numoutlets" : 0,
					"fontface" : 1
				}

			}
, 			{
				"box" : 				{
					"maxclass" : "comment",
					"text" : "piano\n",
					"fontsize" : 14.0,
					"presentation_rect" : [ 19.0, 225.0, 56.0, 23.0 ],
					"patching_rect" : [ 448.0, 35.0, 183.0, 23.0 ],
					"presentation" : 1,
					"id" : "obj-31",
					"fontname" : "Arial",
					"numinlets" : 1,
					"numoutlets" : 0,
					"fontface" : 1
				}

			}
, 			{
				"box" : 				{
					"maxclass" : "comment",
					"text" : "violin",
					"fontsize" : 14.0,
					"presentation_rect" : [ 19.0, 116.0, 53.0, 23.0 ],
					"patching_rect" : [ 448.0, 5.0, 188.0, 23.0 ],
					"presentation" : 1,
					"id" : "obj-5",
					"fontname" : "Arial",
					"numinlets" : 1,
					"numoutlets" : 0,
					"fontface" : 1
				}

			}
, 			{
				"box" : 				{
					"maxclass" : "newobj",
					"text" : "loadbang",
					"fontsize" : 12.0,
					"outlettype" : [ "bang" ],
					"patching_rect" : [ 91.0, 91.0, 60.0, 20.0 ],
					"id" : "obj-29",
					"fontname" : "Arial",
					"numinlets" : 1,
					"numoutlets" : 1
				}

			}
, 			{
				"box" : 				{
					"maxclass" : "newobj",
					"text" : "print",
					"fontsize" : 12.0,
					"patching_rect" : [ 45.0, 158.0, 34.0, 20.0 ],
					"id" : "obj-28",
					"fontname" : "Arial",
					"numinlets" : 1,
					"numoutlets" : 0
				}

			}
, 			{
				"box" : 				{
					"maxclass" : "toggle",
					"outlettype" : [ "int" ],
					"presentation_rect" : [ 210.0, 10.0, 20.0, 20.0 ],
					"patching_rect" : [ 41.0, 107.0, 20.0, 20.0 ],
					"presentation" : 1,
					"id" : "obj-27",
					"numinlets" : 1,
					"numoutlets" : 1
				}

			}
, 			{
				"box" : 				{
					"maxclass" : "newobj",
					"text" : "gate",
					"fontsize" : 12.0,
					"outlettype" : [ "" ],
					"patching_rect" : [ 43.0, 130.0, 34.0, 20.0 ],
					"id" : "obj-25",
					"fontname" : "Arial",
					"numinlets" : 2,
					"numoutlets" : 1
				}

			}
, 			{
				"box" : 				{
					"maxclass" : "newobj",
					"text" : "s pZ",
					"fontsize" : 12.0,
					"presentation_rect" : [ 292.0, 228.0, 34.0, 20.0 ],
					"patching_rect" : [ 927.0, 411.0, 34.0, 20.0 ],
					"presentation" : 1,
					"id" : "obj-21",
					"fontname" : "Arial",
					"numinlets" : 1,
					"numoutlets" : 0
				}

			}
, 			{
				"box" : 				{
					"maxclass" : "newobj",
					"text" : "s pY",
					"fontsize" : 12.0,
					"presentation_rect" : [ 188.0, 227.0, 35.0, 20.0 ],
					"patching_rect" : [ 758.0, 411.0, 35.0, 20.0 ],
					"presentation" : 1,
					"id" : "obj-22",
					"fontname" : "Arial",
					"numinlets" : 1,
					"numoutlets" : 0
				}

			}
, 			{
				"box" : 				{
					"maxclass" : "newobj",
					"text" : "s pX",
					"fontsize" : 12.0,
					"presentation_rect" : [ 71.0, 227.0, 35.0, 20.0 ],
					"patching_rect" : [ 586.0, 410.0, 35.0, 20.0 ],
					"presentation" : 1,
					"id" : "obj-23",
					"fontname" : "Arial",
					"numinlets" : 1,
					"numoutlets" : 0
				}

			}
, 			{
				"box" : 				{
					"maxclass" : "newobj",
					"text" : "s vZ",
					"fontsize" : 12.0,
					"presentation_rect" : [ 292.0, 118.0, 33.0, 20.0 ],
					"patching_rect" : [ 377.0, 413.0, 33.0, 20.0 ],
					"presentation" : 1,
					"id" : "obj-20",
					"fontname" : "Arial",
					"numinlets" : 1,
					"numoutlets" : 0
				}

			}
, 			{
				"box" : 				{
					"maxclass" : "newobj",
					"text" : "s vY",
					"fontsize" : 12.0,
					"presentation_rect" : [ 188.0, 118.0, 34.0, 20.0 ],
					"patching_rect" : [ 210.0, 415.0, 34.0, 20.0 ],
					"presentation" : 1,
					"id" : "obj-19",
					"fontname" : "Arial",
					"numinlets" : 1,
					"numoutlets" : 0
				}

			}
, 			{
				"box" : 				{
					"maxclass" : "newobj",
					"text" : "s vX",
					"fontsize" : 12.0,
					"presentation_rect" : [ 71.0, 118.0, 34.0, 20.0 ],
					"patching_rect" : [ 35.0, 414.0, 34.0, 20.0 ],
					"presentation" : 1,
					"id" : "obj-18",
					"fontname" : "Arial",
					"numinlets" : 1,
					"numoutlets" : 0
				}

			}
, 			{
				"box" : 				{
					"maxclass" : "number",
					"fontsize" : 12.0,
					"outlettype" : [ "int", "bang" ],
					"patching_rect" : [ 926.0, 236.0, 50.0, 20.0 ],
					"id" : "obj-14",
					"fontname" : "Arial",
					"numinlets" : 1,
					"numoutlets" : 2
				}

			}
, 			{
				"box" : 				{
					"maxclass" : "number",
					"fontsize" : 12.0,
					"outlettype" : [ "int", "bang" ],
					"patching_rect" : [ 756.0, 239.0, 50.0, 20.0 ],
					"id" : "obj-15",
					"fontname" : "Arial",
					"numinlets" : 1,
					"numoutlets" : 2
				}

			}
, 			{
				"box" : 				{
					"maxclass" : "number",
					"fontsize" : 12.0,
					"outlettype" : [ "int", "bang" ],
					"patching_rect" : [ 587.0, 239.0, 50.0, 20.0 ],
					"id" : "obj-16",
					"fontname" : "Arial",
					"numinlets" : 1,
					"numoutlets" : 2
				}

			}
, 			{
				"box" : 				{
					"maxclass" : "newobj",
					"text" : "osc-route /x /y /z",
					"fontsize" : 12.0,
					"outlettype" : [ "", "", "", "" ],
					"patching_rect" : [ 587.0, 207.0, 527.0, 20.0 ],
					"id" : "obj-17",
					"fontname" : "Arial",
					"numinlets" : 1,
					"numoutlets" : 4
				}

			}
, 			{
				"box" : 				{
					"maxclass" : "message",
					"text" : "port 12345",
					"fontsize" : 11.595187,
					"outlettype" : [ "" ],
					"patching_rect" : [ 91.0, 119.0, 66.0, 18.0 ],
					"id" : "obj-11",
					"fontname" : "Arial",
					"numinlets" : 2,
					"numoutlets" : 1
				}

			}
, 			{
				"box" : 				{
					"maxclass" : "number",
					"fontsize" : 12.0,
					"outlettype" : [ "int", "bang" ],
					"patching_rect" : [ 382.0, 235.0, 50.0, 20.0 ],
					"id" : "obj-8",
					"fontname" : "Arial",
					"numinlets" : 1,
					"numoutlets" : 2
				}

			}
, 			{
				"box" : 				{
					"maxclass" : "number",
					"fontsize" : 12.0,
					"outlettype" : [ "int", "bang" ],
					"patching_rect" : [ 209.0, 236.0, 50.0, 20.0 ],
					"id" : "obj-7",
					"fontname" : "Arial",
					"numinlets" : 1,
					"numoutlets" : 2
				}

			}
, 			{
				"box" : 				{
					"maxclass" : "number",
					"fontsize" : 12.0,
					"outlettype" : [ "int", "bang" ],
					"patching_rect" : [ 34.0, 237.0, 50.0, 20.0 ],
					"id" : "obj-6",
					"fontname" : "Arial",
					"numinlets" : 1,
					"numoutlets" : 2
				}

			}
, 			{
				"box" : 				{
					"maxclass" : "newobj",
					"text" : "osc-route /x /y /z",
					"fontsize" : 12.0,
					"outlettype" : [ "", "", "", "" ],
					"patching_rect" : [ 34.0, 204.0, 542.0, 20.0 ],
					"id" : "obj-4",
					"fontname" : "Arial",
					"numinlets" : 1,
					"numoutlets" : 4
				}

			}
, 			{
				"box" : 				{
					"maxclass" : "newobj",
					"text" : "osc-route /violin /piano",
					"fontsize" : 12.0,
					"outlettype" : [ "", "", "" ],
					"patching_rect" : [ 86.0, 168.0, 131.0, 20.0 ],
					"id" : "obj-3",
					"fontname" : "Arial",
					"numinlets" : 1,
					"numoutlets" : 3
				}

			}
, 			{
				"box" : 				{
					"maxclass" : "newobj",
					"text" : "udpreceive",
					"fontsize" : 12.0,
					"outlettype" : [ "" ],
					"patching_rect" : [ 86.0, 140.0, 69.0, 20.0 ],
					"id" : "obj-1",
					"fontname" : "Arial",
					"numinlets" : 1,
					"numoutlets" : 1
				}

			}
, 			{
				"box" : 				{
					"maxclass" : "panel",
					"border" : 3,
					"presentation_rect" : [ 13.0, 146.0, 360.0, 113.0 ],
					"bgcolor" : [ 1.0, 0.913725, 0.780392, 1.0 ],
					"patching_rect" : [ 44.0, 550.0, 128.0, 128.0 ],
					"presentation" : 1,
					"id" : "obj-77",
					"numinlets" : 1,
					"numoutlets" : 0
				}

			}
, 			{
				"box" : 				{
					"maxclass" : "panel",
					"border" : 3,
					"presentation_rect" : [ 13.0, 36.0, 360.0, 113.0 ],
					"bgcolor" : [ 1.0, 0.913725, 0.780392, 1.0 ],
					"patching_rect" : [ 184.0, 538.0, 128.0, 128.0 ],
					"presentation" : 1,
					"id" : "obj-78",
					"numinlets" : 1,
					"numoutlets" : 0
				}

			}
, 			{
				"box" : 				{
					"maxclass" : "panel",
					"border" : 5,
					"presentation_rect" : [ 0.0, 0.0, 386.0, 271.437927 ],
					"bgcolor" : [ 0.94902, 0.811765, 0.976471, 1.0 ],
					"patching_rect" : [ 848.0, 6.0, 23.0, 23.0 ],
					"presentation" : 1,
					"id" : "obj-32",
					"numinlets" : 1,
					"rounded" : 42,
					"shadow" : 1,
					"numoutlets" : 0
				}

			}
 ],
		"lines" : [ 			{
				"patchline" : 				{
					"source" : [ "obj-82", 0 ],
					"destination" : [ "obj-46", 0 ],
					"hidden" : 0,
					"midpoints" : [ 1091.5, 224.5, 973.5, 224.5 ]
				}

			}
, 			{
				"patchline" : 				{
					"source" : [ "obj-82", 0 ],
					"destination" : [ "obj-61", 0 ],
					"hidden" : 0,
					"midpoints" : [ 1091.5, 232.5, 425.5, 232.5 ]
				}

			}
, 			{
				"patchline" : 				{
					"source" : [ "obj-80", 0 ],
					"destination" : [ "obj-64", 0 ],
					"hidden" : 0,
					"midpoints" : [ 1091.5, 194.0, 236.5, 194.0 ]
				}

			}
, 			{
				"patchline" : 				{
					"source" : [ "obj-81", 0 ],
					"destination" : [ "obj-44", 0 ],
					"hidden" : 0,
					"midpoints" : [ 1091.5, 211.0, 804.5, 211.0 ]
				}

			}
, 			{
				"patchline" : 				{
					"source" : [ "obj-81", 0 ],
					"destination" : [ "obj-43", 0 ],
					"hidden" : 0,
					"midpoints" : [ 1091.5, 215.5, 635.5, 215.5 ]
				}

			}
, 			{
				"patchline" : 				{
					"source" : [ "obj-81", 0 ],
					"destination" : [ "obj-63", 0 ],
					"hidden" : 0,
					"midpoints" : [ 1091.5, 219.0, 256.5, 219.0 ]
				}

			}
, 			{
				"patchline" : 				{
					"source" : [ "obj-81", 0 ],
					"destination" : [ "obj-65", 0 ],
					"hidden" : 0,
					"midpoints" : [ 1091.5, 223.5, 87.5, 223.5 ]
				}

			}
, 			{
				"patchline" : 				{
					"source" : [ "obj-80", 0 ],
					"destination" : [ "obj-62", 0 ],
					"hidden" : 0,
					"midpoints" : [ 1091.5, 194.5, 405.5, 194.5 ]
				}

			}
, 			{
				"patchline" : 				{
					"source" : [ "obj-80", 0 ],
					"destination" : [ "obj-47", 0 ],
					"hidden" : 0,
					"midpoints" : [ 1091.5, 186.5, 953.5, 186.5 ]
				}

			}
, 			{
				"patchline" : 				{
					"source" : [ "obj-80", 0 ],
					"destination" : [ "obj-45", 0 ],
					"hidden" : 0,
					"midpoints" : [ 1091.5, 186.0, 784.5, 186.0 ]
				}

			}
, 			{
				"patchline" : 				{
					"source" : [ "obj-79", 0 ],
					"destination" : [ "obj-42", 0 ],
					"hidden" : 0,
					"midpoints" : [ 1092.5, 178.0, 615.5, 178.0 ]
				}

			}
, 			{
				"patchline" : 				{
					"source" : [ "obj-79", 0 ],
					"destination" : [ "obj-66", 0 ],
					"hidden" : 0,
					"midpoints" : [ 1092.5, 186.0, 67.5, 186.0 ]
				}

			}
, 			{
				"patchline" : 				{
					"source" : [ "obj-67", 0 ],
					"destination" : [ "obj-20", 0 ],
					"hidden" : 0,
					"midpoints" : [  ]
				}

			}
, 			{
				"patchline" : 				{
					"source" : [ "obj-68", 0 ],
					"destination" : [ "obj-19", 0 ],
					"hidden" : 0,
					"midpoints" : [  ]
				}

			}
, 			{
				"patchline" : 				{
					"source" : [ "obj-69", 0 ],
					"destination" : [ "obj-18", 0 ],
					"hidden" : 0,
					"midpoints" : [  ]
				}

			}
, 			{
				"patchline" : 				{
					"source" : [ "obj-8", 0 ],
					"destination" : [ "obj-70", 0 ],
					"hidden" : 0,
					"midpoints" : [  ]
				}

			}
, 			{
				"patchline" : 				{
					"source" : [ "obj-7", 0 ],
					"destination" : [ "obj-71", 0 ],
					"hidden" : 0,
					"midpoints" : [  ]
				}

			}
, 			{
				"patchline" : 				{
					"source" : [ "obj-6", 0 ],
					"destination" : [ "obj-72", 0 ],
					"hidden" : 0,
					"midpoints" : [  ]
				}

			}
, 			{
				"patchline" : 				{
					"source" : [ "obj-72", 0 ],
					"destination" : [ "obj-69", 0 ],
					"hidden" : 0,
					"midpoints" : [  ]
				}

			}
, 			{
				"patchline" : 				{
					"source" : [ "obj-71", 0 ],
					"destination" : [ "obj-68", 0 ],
					"hidden" : 0,
					"midpoints" : [  ]
				}

			}
, 			{
				"patchline" : 				{
					"source" : [ "obj-70", 0 ],
					"destination" : [ "obj-67", 0 ],
					"hidden" : 0,
					"midpoints" : [  ]
				}

			}
, 			{
				"patchline" : 				{
					"source" : [ "obj-66", 0 ],
					"destination" : [ "obj-72", 1 ],
					"hidden" : 0,
					"midpoints" : [  ]
				}

			}
, 			{
				"patchline" : 				{
					"source" : [ "obj-65", 0 ],
					"destination" : [ "obj-72", 2 ],
					"hidden" : 0,
					"midpoints" : [  ]
				}

			}
, 			{
				"patchline" : 				{
					"source" : [ "obj-64", 0 ],
					"destination" : [ "obj-71", 1 ],
					"hidden" : 0,
					"midpoints" : [  ]
				}

			}
, 			{
				"patchline" : 				{
					"source" : [ "obj-63", 0 ],
					"destination" : [ "obj-71", 2 ],
					"hidden" : 0,
					"midpoints" : [  ]
				}

			}
, 			{
				"patchline" : 				{
					"source" : [ "obj-61", 0 ],
					"destination" : [ "obj-70", 2 ],
					"hidden" : 0,
					"midpoints" : [  ]
				}

			}
, 			{
				"patchline" : 				{
					"source" : [ "obj-62", 0 ],
					"destination" : [ "obj-70", 1 ],
					"hidden" : 0,
					"midpoints" : [  ]
				}

			}
, 			{
				"patchline" : 				{
					"source" : [ "obj-47", 0 ],
					"destination" : [ "obj-30", 1 ],
					"hidden" : 0,
					"midpoints" : [  ]
				}

			}
, 			{
				"patchline" : 				{
					"source" : [ "obj-46", 0 ],
					"destination" : [ "obj-30", 2 ],
					"hidden" : 0,
					"midpoints" : [  ]
				}

			}
, 			{
				"patchline" : 				{
					"source" : [ "obj-44", 0 ],
					"destination" : [ "obj-26", 2 ],
					"hidden" : 0,
					"midpoints" : [  ]
				}

			}
, 			{
				"patchline" : 				{
					"source" : [ "obj-45", 0 ],
					"destination" : [ "obj-26", 1 ],
					"hidden" : 0,
					"midpoints" : [  ]
				}

			}
, 			{
				"patchline" : 				{
					"source" : [ "obj-43", 0 ],
					"destination" : [ "obj-9", 2 ],
					"hidden" : 0,
					"midpoints" : [  ]
				}

			}
, 			{
				"patchline" : 				{
					"source" : [ "obj-42", 0 ],
					"destination" : [ "obj-9", 1 ],
					"hidden" : 0,
					"midpoints" : [  ]
				}

			}
, 			{
				"patchline" : 				{
					"source" : [ "obj-41", 0 ],
					"destination" : [ "obj-21", 0 ],
					"hidden" : 0,
					"midpoints" : [  ]
				}

			}
, 			{
				"patchline" : 				{
					"source" : [ "obj-30", 0 ],
					"destination" : [ "obj-41", 0 ],
					"hidden" : 0,
					"midpoints" : [  ]
				}

			}
, 			{
				"patchline" : 				{
					"source" : [ "obj-40", 0 ],
					"destination" : [ "obj-22", 0 ],
					"hidden" : 0,
					"midpoints" : [  ]
				}

			}
, 			{
				"patchline" : 				{
					"source" : [ "obj-26", 0 ],
					"destination" : [ "obj-40", 0 ],
					"hidden" : 0,
					"midpoints" : [  ]
				}

			}
, 			{
				"patchline" : 				{
					"source" : [ "obj-39", 0 ],
					"destination" : [ "obj-23", 0 ],
					"hidden" : 0,
					"midpoints" : [  ]
				}

			}
, 			{
				"patchline" : 				{
					"source" : [ "obj-9", 0 ],
					"destination" : [ "obj-39", 0 ],
					"hidden" : 0,
					"midpoints" : [  ]
				}

			}
, 			{
				"patchline" : 				{
					"source" : [ "obj-14", 0 ],
					"destination" : [ "obj-30", 0 ],
					"hidden" : 0,
					"midpoints" : [  ]
				}

			}
, 			{
				"patchline" : 				{
					"source" : [ "obj-16", 0 ],
					"destination" : [ "obj-9", 0 ],
					"hidden" : 0,
					"midpoints" : [  ]
				}

			}
, 			{
				"patchline" : 				{
					"source" : [ "obj-15", 0 ],
					"destination" : [ "obj-26", 0 ],
					"hidden" : 0,
					"midpoints" : [  ]
				}

			}
, 			{
				"patchline" : 				{
					"source" : [ "obj-29", 0 ],
					"destination" : [ "obj-11", 0 ],
					"hidden" : 0,
					"midpoints" : [  ]
				}

			}
, 			{
				"patchline" : 				{
					"source" : [ "obj-25", 0 ],
					"destination" : [ "obj-28", 0 ],
					"hidden" : 0,
					"midpoints" : [  ]
				}

			}
, 			{
				"patchline" : 				{
					"source" : [ "obj-1", 0 ],
					"destination" : [ "obj-25", 1 ],
					"hidden" : 0,
					"midpoints" : [  ]
				}

			}
, 			{
				"patchline" : 				{
					"source" : [ "obj-27", 0 ],
					"destination" : [ "obj-25", 0 ],
					"hidden" : 0,
					"midpoints" : [  ]
				}

			}
, 			{
				"patchline" : 				{
					"source" : [ "obj-3", 1 ],
					"destination" : [ "obj-17", 0 ],
					"hidden" : 0,
					"midpoints" : [ 151.5, 196.0, 596.5, 196.0 ]
				}

			}
, 			{
				"patchline" : 				{
					"source" : [ "obj-17", 0 ],
					"destination" : [ "obj-16", 0 ],
					"hidden" : 0,
					"midpoints" : [  ]
				}

			}
, 			{
				"patchline" : 				{
					"source" : [ "obj-17", 1 ],
					"destination" : [ "obj-15", 0 ],
					"hidden" : 0,
					"midpoints" : [  ]
				}

			}
, 			{
				"patchline" : 				{
					"source" : [ "obj-17", 2 ],
					"destination" : [ "obj-14", 0 ],
					"hidden" : 0,
					"midpoints" : [  ]
				}

			}
, 			{
				"patchline" : 				{
					"source" : [ "obj-11", 0 ],
					"destination" : [ "obj-1", 0 ],
					"hidden" : 0,
					"midpoints" : [  ]
				}

			}
, 			{
				"patchline" : 				{
					"source" : [ "obj-4", 2 ],
					"destination" : [ "obj-8", 0 ],
					"hidden" : 0,
					"midpoints" : [  ]
				}

			}
, 			{
				"patchline" : 				{
					"source" : [ "obj-4", 1 ],
					"destination" : [ "obj-7", 0 ],
					"hidden" : 0,
					"midpoints" : [  ]
				}

			}
, 			{
				"patchline" : 				{
					"source" : [ "obj-4", 0 ],
					"destination" : [ "obj-6", 0 ],
					"hidden" : 0,
					"midpoints" : [  ]
				}

			}
, 			{
				"patchline" : 				{
					"source" : [ "obj-3", 0 ],
					"destination" : [ "obj-4", 0 ],
					"hidden" : 0,
					"midpoints" : [ 95.5, 195.5, 43.5, 195.5 ]
				}

			}
, 			{
				"patchline" : 				{
					"source" : [ "obj-1", 0 ],
					"destination" : [ "obj-3", 0 ],
					"hidden" : 0,
					"midpoints" : [  ]
				}

			}
 ]
	}

}
