{
	"patcher" : 	{
		"fileversion" : 1,
		"appversion" : 		{
			"major" : 5,
			"minor" : 1,
			"revision" : 9
		}
,
		"rect" : [ 429.0, 84.0, 640.0, 480.0 ],
		"bglocked" : 0,
		"defrect" : [ 429.0, 84.0, 640.0, 480.0 ],
		"openrect" : [ 0.0, 0.0, 0.0, 0.0 ],
		"openinpresentation" : 1,
		"default_fontsize" : 12.0,
		"default_fontface" : 0,
		"default_fontname" : "Arial",
		"gridonopen" : 0,
		"gridsize" : [ 15.0, 15.0 ],
		"gridsnaponopen" : 0,
		"toolbarvisible" : 1,
		"boxanimatetime" : 200,
		"imprint" : 0,
		"enablehscroll" : 1,
		"enablevscroll" : 1,
		"devicewidth" : 0.0,
		"boxes" : [ 			{
				"box" : 				{
					"maxclass" : "comment",
					"text" : "debug",
					"presentation" : 1,
					"numinlets" : 1,
					"fontname" : "Arial",
					"numoutlets" : 0,
					"presentation_rect" : [ 145.0, 36.0, 41.0, 18.0 ],
					"fontsize" : 10.0,
					"id" : "obj-35",
					"patching_rect" : [ 237.0, 20.0, 129.0, 18.0 ]
				}

			}
, 			{
				"box" : 				{
					"maxclass" : "comment",
					"text" : "OSC RECEIVER",
					"presentation" : 1,
					"numinlets" : 1,
					"fontname" : "Arial",
					"numoutlets" : 0,
					"presentation_rect" : [ 11.0, 14.0, 118.0, 23.0 ],
					"fontface" : 1,
					"fontsize" : 14.0,
					"id" : "obj-33",
					"patching_rect" : [ 14.0, 6.0, 167.0, 23.0 ]
				}

			}
, 			{
				"box" : 				{
					"maxclass" : "comment",
					"text" : "piano\n",
					"presentation" : 1,
					"numinlets" : 1,
					"fontname" : "Arial",
					"numoutlets" : 0,
					"presentation_rect" : [ 17.0, 113.0, 172.0, 23.0 ],
					"fontsize" : 14.0,
					"id" : "obj-31",
					"patching_rect" : [ 13.0, 81.0, 172.0, 23.0 ]
				}

			}
, 			{
				"box" : 				{
					"maxclass" : "comment",
					"text" : "violin",
					"presentation" : 1,
					"numinlets" : 1,
					"fontname" : "Arial",
					"numoutlets" : 0,
					"presentation_rect" : [ 15.0, 43.0, 47.0, 23.0 ],
					"fontsize" : 14.0,
					"id" : "obj-5",
					"patching_rect" : [ 84.0, 31.0, 167.0, 23.0 ]
				}

			}
, 			{
				"box" : 				{
					"maxclass" : "newobj",
					"text" : "loadbang",
					"numinlets" : 1,
					"fontname" : "Arial",
					"numoutlets" : 1,
					"outlettype" : [ "bang" ],
					"fontsize" : 12.0,
					"id" : "obj-29",
					"patching_rect" : [ 91.0, 16.0, 60.0, 20.0 ]
				}

			}
, 			{
				"box" : 				{
					"maxclass" : "newobj",
					"text" : "print",
					"numinlets" : 1,
					"fontname" : "Arial",
					"numoutlets" : 0,
					"fontsize" : 12.0,
					"id" : "obj-28",
					"patching_rect" : [ 45.0, 83.0, 34.0, 20.0 ]
				}

			}
, 			{
				"box" : 				{
					"maxclass" : "toggle",
					"presentation" : 1,
					"numinlets" : 1,
					"numoutlets" : 1,
					"outlettype" : [ "int" ],
					"presentation_rect" : [ 147.0, 14.0, 20.0, 20.0 ],
					"id" : "obj-27",
					"patching_rect" : [ 41.0, 32.0, 20.0, 20.0 ]
				}

			}
, 			{
				"box" : 				{
					"maxclass" : "newobj",
					"text" : "gate",
					"numinlets" : 2,
					"fontname" : "Arial",
					"numoutlets" : 1,
					"outlettype" : [ "" ],
					"fontsize" : 12.0,
					"id" : "obj-25",
					"patching_rect" : [ 43.0, 55.0, 34.0, 20.0 ]
				}

			}
, 			{
				"box" : 				{
					"maxclass" : "newobj",
					"text" : "s pZ",
					"presentation" : 1,
					"numinlets" : 1,
					"fontname" : "Arial",
					"numoutlets" : 0,
					"presentation_rect" : [ 132.0, 157.0, 34.0, 20.0 ],
					"fontsize" : 12.0,
					"id" : "obj-21",
					"patching_rect" : [ 353.0, 202.0, 34.0, 20.0 ]
				}

			}
, 			{
				"box" : 				{
					"maxclass" : "newobj",
					"text" : "s pY",
					"presentation" : 1,
					"numinlets" : 1,
					"fontname" : "Arial",
					"numoutlets" : 0,
					"presentation_rect" : [ 78.0, 158.0, 35.0, 20.0 ],
					"fontsize" : 12.0,
					"id" : "obj-22",
					"patching_rect" : [ 289.0, 204.0, 35.0, 20.0 ]
				}

			}
, 			{
				"box" : 				{
					"maxclass" : "newobj",
					"text" : "s pX",
					"presentation" : 1,
					"numinlets" : 1,
					"fontname" : "Arial",
					"numoutlets" : 0,
					"presentation_rect" : [ 21.0, 159.0, 35.0, 20.0 ],
					"fontsize" : 12.0,
					"id" : "obj-23",
					"patching_rect" : [ 224.0, 204.0, 35.0, 20.0 ]
				}

			}
, 			{
				"box" : 				{
					"maxclass" : "newobj",
					"text" : "s vZ",
					"presentation" : 1,
					"numinlets" : 1,
					"fontname" : "Arial",
					"numoutlets" : 0,
					"presentation_rect" : [ 133.0, 91.0, 33.0, 20.0 ],
					"fontsize" : 12.0,
					"id" : "obj-20",
					"patching_rect" : [ 155.0, 205.0, 33.0, 20.0 ]
				}

			}
, 			{
				"box" : 				{
					"maxclass" : "newobj",
					"text" : "s vY",
					"presentation" : 1,
					"numinlets" : 1,
					"fontname" : "Arial",
					"numoutlets" : 0,
					"presentation_rect" : [ 74.0, 91.0, 34.0, 20.0 ],
					"fontsize" : 12.0,
					"id" : "obj-19",
					"patching_rect" : [ 92.0, 202.0, 34.0, 20.0 ]
				}

			}
, 			{
				"box" : 				{
					"maxclass" : "newobj",
					"text" : "s vX",
					"presentation" : 1,
					"numinlets" : 1,
					"fontname" : "Arial",
					"numoutlets" : 0,
					"presentation_rect" : [ 17.0, 89.0, 34.0, 20.0 ],
					"fontsize" : 12.0,
					"id" : "obj-18",
					"patching_rect" : [ 27.0, 202.0, 34.0, 20.0 ]
				}

			}
, 			{
				"box" : 				{
					"maxclass" : "number",
					"presentation" : 1,
					"numinlets" : 1,
					"fontname" : "Arial",
					"numoutlets" : 2,
					"outlettype" : [ "int", "bang" ],
					"presentation_rect" : [ 129.0, 135.0, 50.0, 20.0 ],
					"fontsize" : 12.0,
					"id" : "obj-14",
					"patching_rect" : [ 336.0, 162.0, 50.0, 20.0 ]
				}

			}
, 			{
				"box" : 				{
					"maxclass" : "number",
					"presentation" : 1,
					"numinlets" : 1,
					"fontname" : "Arial",
					"numoutlets" : 2,
					"outlettype" : [ "int", "bang" ],
					"presentation_rect" : [ 74.0, 135.0, 50.0, 20.0 ],
					"fontsize" : 12.0,
					"id" : "obj-15",
					"patching_rect" : [ 281.0, 162.0, 50.0, 20.0 ]
				}

			}
, 			{
				"box" : 				{
					"maxclass" : "number",
					"presentation" : 1,
					"numinlets" : 1,
					"fontname" : "Arial",
					"numoutlets" : 2,
					"outlettype" : [ "int", "bang" ],
					"presentation_rect" : [ 19.0, 135.0, 50.0, 20.0 ],
					"fontsize" : 12.0,
					"id" : "obj-16",
					"patching_rect" : [ 226.0, 162.0, 50.0, 20.0 ]
				}

			}
, 			{
				"box" : 				{
					"maxclass" : "newobj",
					"text" : "osc-route /x /y /z",
					"numinlets" : 1,
					"fontname" : "Arial",
					"numoutlets" : 4,
					"outlettype" : [ "", "", "", "" ],
					"fontsize" : 12.0,
					"id" : "obj-17",
					"patching_rect" : [ 226.0, 130.0, 132.0, 20.0 ]
				}

			}
, 			{
				"box" : 				{
					"maxclass" : "message",
					"text" : "port 12345",
					"numinlets" : 2,
					"fontname" : "Arial",
					"numoutlets" : 1,
					"outlettype" : [ "" ],
					"fontsize" : 11.595187,
					"id" : "obj-11",
					"patching_rect" : [ 91.0, 44.0, 66.0, 18.0 ]
				}

			}
, 			{
				"box" : 				{
					"maxclass" : "number",
					"presentation" : 1,
					"numinlets" : 1,
					"fontname" : "Arial",
					"numoutlets" : 2,
					"outlettype" : [ "int", "bang" ],
					"presentation_rect" : [ 128.0, 68.0, 50.0, 20.0 ],
					"fontsize" : 12.0,
					"id" : "obj-8",
					"patching_rect" : [ 144.0, 162.0, 50.0, 20.0 ]
				}

			}
, 			{
				"box" : 				{
					"maxclass" : "number",
					"presentation" : 1,
					"numinlets" : 1,
					"fontname" : "Arial",
					"numoutlets" : 2,
					"outlettype" : [ "int", "bang" ],
					"presentation_rect" : [ 73.0, 68.0, 50.0, 20.0 ],
					"fontsize" : 12.0,
					"id" : "obj-7",
					"patching_rect" : [ 89.0, 162.0, 50.0, 20.0 ]
				}

			}
, 			{
				"box" : 				{
					"maxclass" : "number",
					"presentation" : 1,
					"numinlets" : 1,
					"fontname" : "Arial",
					"numoutlets" : 2,
					"outlettype" : [ "int", "bang" ],
					"presentation_rect" : [ 18.0, 68.0, 50.0, 20.0 ],
					"fontsize" : 12.0,
					"id" : "obj-6",
					"patching_rect" : [ 34.0, 162.0, 50.0, 20.0 ]
				}

			}
, 			{
				"box" : 				{
					"maxclass" : "newobj",
					"text" : "osc-route /x /y /z",
					"numinlets" : 1,
					"fontname" : "Arial",
					"numoutlets" : 4,
					"outlettype" : [ "", "", "", "" ],
					"fontsize" : 12.0,
					"id" : "obj-4",
					"patching_rect" : [ 35.0, 129.0, 132.0, 20.0 ]
				}

			}
, 			{
				"box" : 				{
					"maxclass" : "newobj",
					"text" : "osc-route /violin /piano",
					"numinlets" : 1,
					"fontname" : "Arial",
					"numoutlets" : 3,
					"outlettype" : [ "", "", "" ],
					"fontsize" : 12.0,
					"id" : "obj-3",
					"patching_rect" : [ 86.0, 93.0, 131.0, 20.0 ]
				}

			}
, 			{
				"box" : 				{
					"maxclass" : "newobj",
					"text" : "udpreceive",
					"numinlets" : 1,
					"fontname" : "Arial",
					"numoutlets" : 1,
					"outlettype" : [ "" ],
					"fontsize" : 12.0,
					"id" : "obj-1",
					"patching_rect" : [ 86.0, 65.0, 69.0, 20.0 ]
				}

			}
, 			{
				"box" : 				{
					"maxclass" : "panel",
					"presentation" : 1,
					"rounded" : 42,
					"shadow" : 1,
					"numinlets" : 1,
					"border" : 5,
					"numoutlets" : 0,
					"presentation_rect" : [ 1.0, 1.0, 195.0, 192.0 ],
					"id" : "obj-32",
					"bgcolor" : [ 0.94902, 0.811765, 0.976471, 1.0 ],
					"patching_rect" : [ 293.0, 171.0, 128.0, 128.0 ]
				}

			}
 ],
		"lines" : [ 			{
				"patchline" : 				{
					"source" : [ "obj-1", 0 ],
					"destination" : [ "obj-3", 0 ],
					"hidden" : 0,
					"midpoints" : [  ]
				}

			}
, 			{
				"patchline" : 				{
					"source" : [ "obj-3", 0 ],
					"destination" : [ "obj-4", 0 ],
					"hidden" : 0,
					"midpoints" : [ 95.5, 120.5, 44.5, 120.5 ]
				}

			}
, 			{
				"patchline" : 				{
					"source" : [ "obj-4", 0 ],
					"destination" : [ "obj-6", 0 ],
					"hidden" : 0,
					"midpoints" : [  ]
				}

			}
, 			{
				"patchline" : 				{
					"source" : [ "obj-4", 1 ],
					"destination" : [ "obj-7", 0 ],
					"hidden" : 0,
					"midpoints" : [  ]
				}

			}
, 			{
				"patchline" : 				{
					"source" : [ "obj-4", 2 ],
					"destination" : [ "obj-8", 0 ],
					"hidden" : 0,
					"midpoints" : [  ]
				}

			}
, 			{
				"patchline" : 				{
					"source" : [ "obj-11", 0 ],
					"destination" : [ "obj-1", 0 ],
					"hidden" : 0,
					"midpoints" : [  ]
				}

			}
, 			{
				"patchline" : 				{
					"source" : [ "obj-17", 2 ],
					"destination" : [ "obj-14", 0 ],
					"hidden" : 0,
					"midpoints" : [  ]
				}

			}
, 			{
				"patchline" : 				{
					"source" : [ "obj-17", 1 ],
					"destination" : [ "obj-15", 0 ],
					"hidden" : 0,
					"midpoints" : [  ]
				}

			}
, 			{
				"patchline" : 				{
					"source" : [ "obj-17", 0 ],
					"destination" : [ "obj-16", 0 ],
					"hidden" : 0,
					"midpoints" : [  ]
				}

			}
, 			{
				"patchline" : 				{
					"source" : [ "obj-3", 1 ],
					"destination" : [ "obj-17", 0 ],
					"hidden" : 0,
					"midpoints" : [ 151.5, 121.0, 235.5, 121.0 ]
				}

			}
, 			{
				"patchline" : 				{
					"source" : [ "obj-6", 0 ],
					"destination" : [ "obj-18", 0 ],
					"hidden" : 0,
					"midpoints" : [  ]
				}

			}
, 			{
				"patchline" : 				{
					"source" : [ "obj-7", 0 ],
					"destination" : [ "obj-19", 0 ],
					"hidden" : 0,
					"midpoints" : [  ]
				}

			}
, 			{
				"patchline" : 				{
					"source" : [ "obj-8", 0 ],
					"destination" : [ "obj-20", 0 ],
					"hidden" : 0,
					"midpoints" : [  ]
				}

			}
, 			{
				"patchline" : 				{
					"source" : [ "obj-16", 0 ],
					"destination" : [ "obj-23", 0 ],
					"hidden" : 0,
					"midpoints" : [  ]
				}

			}
, 			{
				"patchline" : 				{
					"source" : [ "obj-15", 0 ],
					"destination" : [ "obj-22", 0 ],
					"hidden" : 0,
					"midpoints" : [  ]
				}

			}
, 			{
				"patchline" : 				{
					"source" : [ "obj-14", 0 ],
					"destination" : [ "obj-21", 0 ],
					"hidden" : 0,
					"midpoints" : [  ]
				}

			}
, 			{
				"patchline" : 				{
					"source" : [ "obj-27", 0 ],
					"destination" : [ "obj-25", 0 ],
					"hidden" : 0,
					"midpoints" : [  ]
				}

			}
, 			{
				"patchline" : 				{
					"source" : [ "obj-1", 0 ],
					"destination" : [ "obj-25", 1 ],
					"hidden" : 0,
					"midpoints" : [  ]
				}

			}
, 			{
				"patchline" : 				{
					"source" : [ "obj-25", 0 ],
					"destination" : [ "obj-28", 0 ],
					"hidden" : 0,
					"midpoints" : [  ]
				}

			}
, 			{
				"patchline" : 				{
					"source" : [ "obj-29", 0 ],
					"destination" : [ "obj-11", 0 ],
					"hidden" : 0,
					"midpoints" : [  ]
				}

			}
 ]
	}

}
